<?xml version="1.0" standalone="no"?>
<!DOCTYPE svg PUBLIC "-//W3C//DTD SVG 20010904//EN"
 "http://www.w3.org/TR/2001/REC-SVG-20010904/DTD/svg10.dtd">
<svg version="1.0" xmlns="http://www.w3.org/2000/svg"
 width="1536.000000pt" height="1536.000000pt" viewBox="0 0 1536.000000 1536.000000"
 preserveAspectRatio="xMidYMid meet">
<metadata>
Created by potrace 1.10, written by Peter Selinger 2001-2011
</metadata>
<g transform="translate(0.000000,1536.000000) scale(0.100000,-0.100000)"
fill="#b3b3b3" stroke="none">
<path d="M10410 15340 c0 -11 5 -20 10 -20 6 0 10 9 10 20 0 11 -4 20 -10 20
-5 0 -10 -9 -10 -20z"/>
<path d="M10236 15305 c-15 -8 -34 -15 -41 -15 -7 0 -43 -21 -81 -46 -101 -67
-189 -164 -291 -319 -50 -76 -153 -272 -153 -293 0 -7 -5 -20 -10 -30 -13 -22
-60 -150 -67 -182 -3 -14 -12 -34 -19 -45 -8 -11 -14 -31 -14 -45 0 -14 -4
-30 -8 -35 -13 -15 -47 -128 -71 -240 -12 -55 -28 -120 -36 -145 -7 -25 -13
-59 -14 -77 0 -17 -4 -41 -10 -52 -6 -11 -11 -37 -11 -59 0 -22 -7 -59 -15
-82 -8 -23 -15 -59 -15 -79 0 -20 -7 -61 -15 -91 -8 -30 -15 -78 -15 -107 0
-29 -7 -78 -15 -110 -8 -31 -15 -88 -15 -126 0 -38 -7 -123 -15 -190 -17 -142
-14 -846 4 -957 6 -36 11 -97 11 -135 0 -39 7 -97 15 -128 22 -85 21 -92 -24
-105 -21 -7 -54 -12 -73 -12 -20 0 -55 -7 -78 -15 -23 -8 -46 -13 -50 -10 -5
3 -21 0 -37 -6 -15 -6 -55 -15 -88 -21 -141 -23 -220 -42 -262 -61 -13 -6 -24
-8 -26 -6 -9 11 -37 97 -37 114 -1 22 -33 122 -44 132 -3 3 -6 15 -6 26 0 22
-17 81 -31 110 -5 9 -16 39 -25 65 -18 54 -42 110 -55 132 -5 8 -12 22 -15 30
-5 15 -58 130 -73 160 -45 88 -126 241 -141 265 -11 17 -23 37 -27 45 -3 8
-18 33 -33 55 -15 22 -55 83 -90 135 -35 52 -71 104 -81 115 -10 11 -59 73
-109 137 -164 212 -469 508 -705 684 -91 68 -353 243 -387 258 -18 8 -55 29
-83 45 -74 44 -328 171 -343 171 -7 0 -20 4 -30 9 -29 14 -85 38 -132 56 -25
9 -58 22 -75 29 -48 20 -98 38 -125 43 -14 3 -29 9 -35 13 -5 4 -26 11 -45 15
-19 4 -41 11 -50 15 -20 10 -111 32 -130 32 -8 0 -33 5 -55 13 -22 7 -74 18
-115 24 -41 7 -103 18 -137 26 -34 8 -79 15 -100 15 -21 0 -72 7 -113 16 -62
13 -142 16 -450 16 -241 0 -393 -5 -425 -12 -27 -6 -88 -15 -135 -19 -47 -5
-98 -13 -113 -20 -16 -6 -45 -11 -66 -11 -21 0 -57 -6 -82 -14 -24 -8 -71 -19
-104 -26 -33 -7 -82 -16 -110 -22 -27 -6 -58 -14 -67 -19 -9 -5 -35 -12 -58
-15 -22 -4 -43 -11 -46 -15 -3 -5 -15 -9 -28 -9 -12 0 -31 -7 -42 -15 -10 -8
-28 -15 -40 -15 -11 0 -29 -7 -40 -15 -10 -8 -29 -15 -41 -15 -12 0 -24 -4
-27 -9 -3 -4 -27 -16 -53 -25 -26 -10 -88 -35 -138 -56 -49 -20 -97 -40 -105
-44 -8 -3 -51 -26 -95 -50 -44 -24 -116 -63 -160 -87 -74 -39 -165 -97 -355
-227 -41 -28 -82 -57 -90 -65 -8 -8 -42 -36 -75 -62 -234 -189 -442 -396 -630
-630 -26 -33 -56 -68 -67 -78 -10 -10 -18 -22 -18 -27 0 -4 -27 -45 -60 -89
-51 -69 -190 -292 -213 -341 -4 -8 -16 -28 -26 -45 -24 -37 -121 -228 -121
-238 0 -4 -13 -35 -28 -69 -16 -35 -37 -83 -47 -108 -9 -25 -24 -61 -33 -80
-28 -63 -40 -94 -57 -150 -9 -30 -20 -64 -25 -75 -4 -11 -13 -47 -20 -80 -7
-33 -19 -74 -26 -92 -8 -17 -14 -40 -14 -52 0 -23 -14 -88 -36 -167 -8 -28
-14 -64 -14 -80 0 -16 -7 -51 -15 -78 -8 -27 -15 -70 -15 -95 0 -25 -7 -80
-16 -121 -22 -107 -22 -768 1 -850 8 -30 15 -82 15 -115 1 -33 7 -78 15 -100
8 -22 15 -59 15 -83 0 -24 5 -53 12 -65 7 -12 15 -44 19 -72 14 -88 25 -140
34 -155 5 -8 12 -32 16 -55 15 -76 21 -100 30 -120 5 -11 18 -47 28 -80 34
-102 52 -150 62 -160 5 -5 9 -18 9 -30 0 -11 7 -29 15 -39 8 -11 15 -26 15
-35 0 -8 6 -22 13 -30 7 -9 19 -34 26 -56 12 -36 105 -231 134 -280 7 -11 30
-51 52 -90 40 -72 108 -182 123 -200 5 -6 17 -24 28 -40 49 -77 179 -252 241
-327 149 -181 430 -452 603 -583 36 -27 70 -54 75 -61 6 -6 46 -35 90 -65 44
-30 85 -58 90 -62 6 -5 27 -18 47 -30 20 -12 85 -52 145 -88 133 -81 445 -234
573 -281 52 -19 111 -40 130 -47 19 -8 47 -16 63 -18 15 -3 30 -9 33 -14 3 -5
16 -9 29 -9 13 0 39 -6 57 -14 56 -23 132 -46 154 -46 12 0 35 -7 50 -15 16
-8 42 -15 58 -15 16 0 43 -4 60 -9 105 -32 298 -56 419 -53 93 2 97 1 97 -19
0 -12 -13 -38 -30 -59 -16 -21 -30 -40 -30 -43 0 -3 -13 -25 -29 -49 -16 -24
-39 -61 -50 -83 -26 -47 -37 -65 -71 -120 -14 -22 -37 -62 -50 -90 -13 -27
-48 -89 -77 -137 -29 -47 -53 -89 -53 -92 0 -3 -13 -25 -30 -48 -16 -22 -30
-47 -30 -54 0 -7 -3 -14 -7 -16 -5 -1 -25 -37 -47 -78 -21 -41 -66 -120 -99
-175 -127 -211 -147 -267 -152 -428 -3 -108 -1 -126 24 -201 15 -45 46 -109
68 -142 50 -74 143 -160 207 -194 59 -31 74 -40 111 -66 17 -11 44 -28 60 -36
53 -27 119 -64 162 -91 24 -15 45 -27 48 -27 2 0 35 -19 72 -41 62 -38 96 -58
218 -123 22 -12 59 -34 82 -49 24 -15 45 -27 47 -27 3 0 24 -13 48 -29 24 -16
63 -40 88 -53 25 -14 63 -35 85 -48 22 -12 56 -31 75 -42 19 -11 49 -28 65
-39 17 -10 39 -23 50 -29 11 -6 34 -19 50 -29 30 -18 242 -139 300 -171 17 -9
56 -33 89 -54 32 -21 82 -49 110 -63 57 -28 72 -36 133 -76 24 -15 45 -27 48
-27 3 0 32 -17 63 -37 31 -20 89 -53 127 -73 39 -19 92 -50 118 -68 26 -17 50
-32 52 -32 2 0 38 -20 78 -45 41 -25 77 -45 81 -45 3 0 50 -26 103 -58 54 -32
105 -61 113 -65 25 -13 57 -32 71 -44 8 -5 34 -21 59 -35 150 -82 211 -118
278 -160 24 -16 45 -28 47 -28 2 0 41 -23 88 -50 47 -28 88 -50 91 -50 3 0 76
-43 162 -95 86 -52 166 -98 179 -101 13 -3 29 -12 36 -20 6 -8 16 -14 21 -14
6 0 30 -13 55 -30 24 -16 46 -30 49 -30 2 0 23 -12 47 -27 23 -15 58 -36 77
-47 19 -11 53 -30 75 -43 22 -13 54 -30 70 -38 17 -9 51 -28 76 -43 74 -44
181 -108 219 -130 140 -85 244 -117 375 -116 103 1 169 15 250 54 23 11 44 20
48 20 4 0 34 21 68 47 75 59 133 137 238 323 46 80 87 152 92 160 5 8 14 24
19 35 6 11 19 34 30 50 10 17 38 64 62 105 24 41 58 99 75 130 18 30 37 64 42
75 5 11 21 37 35 58 14 21 26 40 26 42 0 2 20 38 45 78 25 41 45 77 45 81 0 4
27 51 60 106 33 55 60 102 60 105 0 3 14 24 30 47 16 22 30 45 30 49 0 5 19
41 43 81 24 40 46 80 50 88 4 8 16 29 27 45 10 17 25 41 33 55 13 24 145 253
262 455 31 55 63 107 70 115 8 8 17 27 20 43 4 15 11 30 17 33 5 3 14 16 19
27 5 12 18 36 29 52 11 17 23 37 27 45 4 8 24 43 44 77 21 34 50 83 64 110 14
26 29 55 35 63 53 85 152 256 164 282 17 37 49 92 87 153 14 22 29 47 32 55 4
8 16 29 26 45 10 17 58 99 107 184 49 84 97 165 106 180 10 14 21 33 25 41 3
8 30 56 59 106 30 50 57 100 61 110 4 11 20 38 35 60 15 23 28 46 28 52 0 6 4
12 8 14 7 3 96 156 115 198 4 8 16 29 27 45 11 17 24 39 30 50 5 11 16 29 22
40 63 98 87 138 113 190 16 33 62 114 101 180 80 135 205 351 217 375 4 8 16
29 27 45 11 17 23 37 27 45 4 8 45 80 91 160 122 210 174 301 229 400 13 25
35 63 48 85 13 22 24 48 25 58 0 10 7 29 17 43 23 35 24 281 1 316 -8 13 -17
37 -20 53 -6 31 -21 77 -44 133 -8 18 -14 44 -14 57 0 13 -4 27 -10 30 -5 3
-10 18 -10 33 0 15 -7 40 -15 56 -8 15 -15 39 -15 52 0 12 -4 26 -10 29 -5 3
-10 15 -10 27 0 21 -26 109 -41 140 -5 10 -9 26 -9 35 0 10 -7 31 -15 47 -8
15 -15 38 -15 50 0 12 -7 31 -15 42 -8 10 -15 30 -15 44 0 14 -6 34 -14 45 -7
11 -16 34 -18 50 -3 17 -10 44 -16 60 -6 17 -16 50 -23 75 -16 61 -29 107 -44
155 -7 22 -25 81 -40 130 -15 50 -33 106 -40 125 -32 90 -37 107 -45 140 -4
19 -12 46 -18 60 -5 14 -15 45 -22 70 -7 25 -18 63 -25 85 -7 22 -18 60 -25
85 -7 25 -16 55 -21 68 -5 13 -9 30 -9 38 0 9 -6 30 -13 47 -22 52 -38 100
-47 137 -7 33 -12 48 -45 140 -7 19 -18 55 -25 80 -6 25 -16 59 -21 75 -6 17
-17 55 -25 85 -22 84 -64 221 -80 258 -8 18 -14 39 -14 47 0 8 -6 29 -14 47
-8 18 -22 53 -31 78 -27 69 -55 134 -63 146 -34 52 -65 94 -87 119 -26 29 -26
31 -21 140 24 467 28 636 22 835 -9 326 -22 573 -35 668 -6 45 -16 119 -22
165 -6 45 -15 116 -18 157 -4 42 -10 80 -14 86 -3 6 -9 39 -11 73 -3 34 -8 67
-12 72 -3 6 -10 38 -15 72 -4 34 -15 94 -25 132 -9 39 -20 88 -24 110 -4 22
-15 65 -24 95 -10 30 -21 71 -26 90 -8 33 -15 55 -45 140 -7 19 -21 62 -31 95
-9 33 -21 67 -25 75 -5 8 -20 47 -34 85 -23 59 -96 215 -130 273 -113 194
-252 346 -376 411 -90 46 -127 55 -189 43 l-45 -8 67 -37 c36 -21 72 -45 79
-53 7 -8 26 -21 43 -28 43 -18 224 -198 276 -276 58 -85 103 -166 130 -235 23
-57 74 -174 89 -205 9 -19 23 -55 30 -80 8 -25 20 -62 27 -83 8 -20 14 -47 14
-60 0 -12 6 -33 13 -47 7 -14 19 -45 26 -70 7 -25 17 -56 22 -70 4 -14 15 -68
24 -120 10 -52 23 -111 30 -130 8 -19 14 -56 14 -82 0 -27 6 -58 12 -70 7 -13
14 -43 15 -68 1 -25 9 -75 17 -112 9 -36 18 -99 21 -140 3 -40 9 -104 15 -143
21 -148 32 -311 37 -600 8 -411 7 -543 -11 -922 l-6 -131 31 -64 c44 -90 63
-126 94 -181 29 -49 62 -129 76 -182 4 -16 14 -43 23 -60 22 -44 38 -93 49
-150 6 -27 18 -68 28 -90 10 -22 24 -67 30 -100 6 -33 20 -78 30 -100 10 -22
21 -51 24 -65 25 -114 33 -139 49 -154 9 -10 17 -32 17 -49 0 -18 18 -86 39
-151 21 -66 37 -125 35 -131 -3 -7 2 -18 11 -25 8 -7 15 -27 15 -46 0 -18 11
-54 25 -79 13 -26 27 -63 31 -83 3 -21 19 -77 35 -127 35 -106 60 -188 84
-270 10 -33 22 -70 26 -83 5 -13 9 -35 9 -49 0 -15 6 -34 14 -42 8 -9 21 -45
30 -81 9 -36 27 -94 40 -130 35 -96 46 -134 46 -157 0 -11 7 -26 15 -33 8 -7
15 -25 15 -41 0 -16 6 -46 14 -66 8 -21 26 -81 41 -133 15 -52 36 -117 46
-144 10 -27 19 -58 19 -68 0 -22 23 -98 48 -161 39 -97 26 -329 -23 -400 -11
-18 -28 -46 -36 -62 -8 -17 -37 -70 -65 -118 -27 -49 -58 -106 -69 -128 -11
-22 -25 -43 -30 -47 -6 -4 -28 -43 -50 -87 -22 -44 -49 -93 -60 -110 -27 -40
-42 -66 -54 -92 -5 -11 -15 -24 -20 -28 -6 -3 -11 -13 -11 -22 0 -9 -11 -30
-24 -47 -13 -17 -26 -41 -30 -54 -4 -12 -16 -31 -27 -41 -11 -10 -34 -47 -53
-82 -66 -127 -103 -195 -132 -238 -28 -42 -42 -66 -113 -196 -19 -33 -42 -71
-52 -84 -11 -13 -19 -27 -19 -32 0 -4 -22 -45 -50 -91 -27 -46 -50 -88 -50
-95 0 -6 -6 -18 -14 -26 -17 -17 -92 -146 -136 -233 -17 -34 -37 -67 -45 -74
-8 -7 -15 -18 -15 -25 0 -6 -9 -20 -19 -29 -11 -10 -22 -29 -25 -43 -4 -13
-19 -43 -34 -66 -33 -53 -68 -113 -87 -152 -19 -37 -33 -60 -64 -104 -26 -37
-60 -94 -92 -156 -11 -22 -31 -58 -44 -80 -13 -22 -29 -50 -34 -63 -6 -13 -22
-38 -35 -55 -13 -18 -36 -57 -50 -88 -15 -32 -33 -62 -41 -69 -8 -7 -15 -18
-15 -25 0 -8 -11 -27 -25 -43 -14 -17 -25 -36 -25 -42 0 -7 -10 -27 -23 -44
-13 -17 -27 -40 -31 -51 -4 -11 -29 -57 -57 -102 -27 -45 -49 -87 -49 -93 0
-5 -8 -18 -18 -28 -10 -10 -32 -46 -50 -80 -18 -34 -52 -93 -77 -130 -24 -38
-47 -80 -50 -95 -4 -14 -13 -31 -21 -38 -8 -6 -14 -16 -14 -22 0 -6 -7 -19
-17 -29 -18 -20 -19 -22 -82 -140 -24 -46 -49 -90 -56 -98 -6 -8 -24 -40 -39
-70 -16 -30 -36 -64 -46 -75 -10 -11 -25 -36 -34 -55 -8 -19 -27 -53 -41 -75
-14 -22 -32 -53 -40 -70 -8 -16 -31 -55 -50 -85 -19 -30 -42 -70 -50 -88 -9
-18 -22 -35 -30 -38 -8 -3 -21 -30 -29 -59 -9 -29 -23 -58 -32 -66 -8 -7 -27
-36 -41 -63 -14 -28 -36 -64 -49 -79 -13 -16 -24 -37 -24 -47 0 -10 -11 -32
-25 -48 -14 -17 -25 -35 -25 -42 0 -7 -8 -24 -19 -38 -20 -29 -37 -59 -109
-187 -24 -44 -54 -93 -66 -109 -21 -30 -30 -46 -100 -178 -21 -40 -41 -75 -45
-78 -3 -3 -17 -26 -31 -52 -13 -26 -30 -50 -37 -52 -7 -3 -19 -20 -26 -38 -12
-28 -52 -69 -127 -131 -74 -60 -167 -89 -292 -90 -81 0 -109 4 -175 28 -43 15
-91 38 -108 50 -16 12 -50 31 -75 42 -25 11 -51 27 -59 36 -7 10 -19 17 -26
17 -7 0 -39 18 -71 40 -33 22 -64 40 -70 40 -6 0 -28 13 -50 30 -21 16 -44 30
-50 30 -7 0 -36 16 -65 36 -29 19 -65 38 -80 41 -16 3 -36 14 -45 24 -9 11
-23 19 -30 19 -7 0 -25 11 -41 24 -15 12 -63 41 -105 63 -42 22 -89 50 -104
62 -15 11 -33 21 -40 21 -7 0 -19 6 -26 14 -8 7 -29 21 -48 31 -18 9 -51 30
-73 46 -22 16 -47 29 -55 29 -8 0 -33 12 -56 26 -159 98 -220 134 -229 134 -6
0 -18 6 -26 14 -9 8 -27 21 -41 28 -14 7 -76 43 -138 78 -62 36 -136 79 -166
95 -29 17 -66 40 -81 53 -15 12 -35 22 -44 23 -9 0 -29 9 -46 20 -16 10 -41
23 -53 29 -13 6 -50 30 -82 55 -32 25 -65 45 -74 45 -8 0 -18 5 -22 11 -3 6
-25 20 -48 31 -22 11 -50 25 -61 31 -11 7 -51 30 -90 51 -38 22 -83 49 -100
60 -16 12 -52 31 -79 44 -26 12 -62 33 -78 47 -16 14 -35 25 -42 25 -7 0 -30
14 -51 30 -21 17 -46 30 -56 30 -9 0 -30 10 -46 23 -15 13 -35 26 -43 30 -8 3
-37 20 -65 37 -27 16 -59 34 -70 40 -11 5 -42 23 -70 39 -27 17 -72 42 -100
57 -27 15 -75 43 -105 63 -30 19 -68 41 -84 48 -46 21 -192 111 -206 128 -7 8
-22 15 -34 15 -12 0 -38 11 -57 24 -20 14 -58 37 -85 52 -96 53 -130 72 -184
103 -30 17 -62 36 -70 41 -8 5 -37 21 -65 36 -27 14 -57 32 -65 39 -8 7 -49
31 -90 53 -242 126 -382 261 -430 413 -27 89 -28 229 0 283 10 22 17 42 15 46
-6 10 22 65 57 114 15 21 28 43 28 49 0 5 20 43 45 84 25 40 45 77 45 82 0 4
9 16 20 26 11 10 20 24 20 31 0 15 64 135 95 179 12 17 29 46 38 66 9 19 25
43 37 54 11 10 20 25 20 34 0 9 14 36 30 61 16 25 30 50 30 56 0 6 9 21 20 34
11 13 20 29 20 36 0 18 40 84 51 84 5 0 9 4 9 9 0 6 15 36 34 69 48 81 80 176
72 215 -9 43 -54 81 -112 96 -27 7 -69 19 -94 27 -25 8 -88 18 -140 23 -127
12 -159 18 -244 42 -39 11 -86 23 -104 26 -18 3 -35 9 -38 14 -3 5 -20 9 -37
9 -18 0 -41 6 -52 14 -11 7 -39 17 -63 21 -24 4 -70 18 -103 31 -32 13 -69 24
-83 24 -13 0 -26 7 -30 15 -3 8 -16 15 -29 15 -13 0 -32 7 -43 15 -10 8 -27
15 -37 15 -10 0 -37 10 -60 23 -23 12 -60 28 -82 36 -22 7 -47 19 -55 26 -8 7
-33 19 -55 26 -22 8 -42 16 -45 19 -14 15 -71 47 -116 66 -27 12 -81 41 -120
65 -91 58 -100 64 -162 100 -28 17 -55 36 -60 43 -4 6 -34 29 -67 51 -73 49
-155 114 -173 137 -7 10 -19 18 -25 18 -7 0 -44 31 -84 68 -39 37 -102 94
-139 127 -71 65 -260 272 -336 370 -26 33 -61 78 -78 100 -18 22 -54 76 -81
120 -27 44 -56 85 -64 91 -8 6 -15 14 -15 18 0 4 -11 22 -24 39 -33 44 -82
129 -91 158 -4 13 -15 33 -25 44 -28 30 -137 249 -144 288 -4 19 -15 46 -26
60 -11 14 -20 32 -20 41 0 15 -27 80 -56 138 -8 14 -14 35 -14 45 0 10 -4 23
-9 28 -11 13 -41 109 -41 131 0 10 -8 26 -17 36 -9 10 -17 36 -18 56 0 20 -4
42 -7 48 -11 17 -50 201 -74 354 -34 211 -53 404 -47 462 4 30 1 53 -6 62 -8
10 -9 16 -2 21 7 4 10 76 10 203 -1 220 4 301 26 447 35 221 95 497 120 545 7
14 16 44 20 67 4 24 11 45 16 49 5 3 9 18 9 34 0 16 4 31 9 35 5 3 13 20 17
38 7 33 12 45 89 210 25 54 45 103 45 110 0 7 14 36 30 66 17 30 30 58 30 63
0 5 11 24 25 42 14 18 25 39 25 47 0 8 5 20 11 26 15 15 33 47 59 103 12 25
26 50 33 55 17 14 47 62 47 75 0 7 15 30 34 53 19 23 57 75 85 116 53 78 93
127 151 191 75 81 90 98 90 103 0 6 61 76 101 116 91 91 228 220 269 253 25
21 74 61 109 90 129 107 385 288 407 288 6 0 17 7 24 15 14 17 133 85 149 85
5 0 47 22 93 50 46 27 88 50 95 50 7 0 54 20 106 45 52 25 100 45 107 45 7 0
33 11 59 24 50 26 137 57 241 86 36 10 90 28 120 39 69 27 201 54 395 81 83
11 165 25 183 31 19 6 45 9 60 6 15 -3 36 0 46 5 27 15 642 14 726 0 36 -6 99
-16 140 -22 41 -5 113 -17 160 -26 47 -8 101 -16 120 -18 19 -1 49 -6 65 -10
17 -4 55 -14 85 -21 30 -7 80 -23 110 -35 30 -12 78 -26 105 -32 28 -5 73 -20
102 -34 28 -13 64 -24 78 -24 15 0 57 -14 93 -31 37 -18 90 -42 117 -55 28
-13 57 -24 65 -24 8 0 40 -15 71 -34 30 -18 72 -39 92 -45 21 -7 42 -21 47
-32 6 -10 18 -19 26 -19 17 0 157 -70 162 -81 2 -4 23 -17 48 -29 24 -12 44
-26 44 -31 0 -5 6 -9 14 -9 8 0 36 -18 61 -40 25 -22 52 -40 59 -40 7 0 24 -9
37 -21 13 -11 53 -42 89 -70 170 -129 340 -285 520 -475 11 -12 20 -25 20 -30
0 -6 13 -18 30 -27 16 -10 35 -28 41 -40 7 -12 22 -33 35 -47 35 -37 144 -177
144 -184 0 -11 44 -70 63 -84 9 -7 17 -22 17 -32 0 -10 7 -23 15 -27 12 -7 85
-117 85 -129 0 -2 15 -26 33 -52 18 -26 55 -91 82 -145 28 -54 67 -131 87
-170 20 -40 37 -78 38 -85 0 -7 18 -50 40 -94 22 -45 40 -94 40 -108 0 -14 10
-41 22 -60 28 -47 58 -128 58 -161 0 -45 51 -142 101 -191 l47 -47 68 5 c38 2
93 9 122 14 28 6 78 15 110 21 31 5 80 17 108 25 28 8 62 14 75 14 13 0 33 7
43 15 11 8 34 15 52 15 24 0 43 11 77 43 39 36 48 53 61 108 16 70 12 203 -6
226 -14 18 -20 913 -7 1060 5 65 10 125 10 133 0 8 5 25 11 37 8 16 8 26 -1
36 -7 10 -8 23 -3 38 5 13 12 58 16 99 4 41 12 92 17 112 5 21 10 59 11 85 0
27 4 53 9 59 5 6 12 40 16 75 3 35 10 67 16 70 5 4 11 39 13 79 2 39 12 97 22
128 11 31 28 93 37 137 10 44 31 118 46 165 14 47 36 119 48 160 30 103 51
159 62 165 10 7 49 93 49 110 0 7 7 18 14 25 8 6 22 34 31 61 10 28 32 70 51
95 19 24 34 46 34 49 0 12 62 94 75 99 8 3 15 11 15 19 0 27 147 164 205 191
19 9 40 25 48 35 7 11 38 31 70 45 31 14 57 29 57 34 0 5 -21 12 -46 16 -63 8
-65 8 -98 -9z"/>
<path d="M10410 15057 c-19 -5 -53 -14 -75 -20 -22 -6 -47 -10 -56 -9 -10 2
-20 -5 -24 -17 -3 -10 -22 -32 -43 -47 -62 -48 -121 -115 -147 -168 -14 -28
-36 -70 -50 -93 -13 -24 -31 -62 -39 -85 -8 -24 -31 -74 -50 -113 -20 -38 -36
-75 -36 -81 0 -6 -13 -41 -30 -77 -16 -37 -30 -75 -30 -85 0 -10 -3 -22 -7
-26 -5 -4 -9 -17 -10 -29 -1 -25 -46 -188 -62 -230 -6 -16 -8 -33 -5 -38 3 -6
-1 -20 -10 -33 -8 -13 -17 -53 -20 -90 -2 -36 -8 -71 -12 -77 -26 -42 -91
-509 -115 -824 -24 -320 -10 -950 26 -1121 16 -75 53 -128 101 -144 35 -12
207 -11 234 1 52 23 245 69 290 69 33 0 89 14 122 31 10 5 31 9 47 9 16 0 63
7 103 16 73 16 199 28 273 27 53 -1 208 -34 245 -52 8 -4 46 -5 84 -1 62 5 71
9 96 38 44 53 53 134 54 475 1 362 -9 677 -24 807 -7 52 -14 129 -16 170 -4
86 -37 303 -60 400 -14 56 -34 162 -50 265 -3 17 -12 55 -20 85 -9 30 -23 80
-31 110 -8 30 -20 66 -25 80 -6 14 -14 41 -19 60 -8 38 -50 159 -60 175 -4 6
-19 42 -33 80 -29 75 -53 131 -67 155 -5 8 -23 44 -40 80 -17 35 -50 87 -72
115 -59 71 -140 155 -151 155 -5 0 -17 6 -25 14 -33 28 -124 53 -161 43z m67
-89 c53 -22 122 -79 160 -130 61 -82 87 -121 100 -148 17 -35 82 -178 99 -220
9 -19 22 -48 30 -63 8 -16 14 -35 14 -42 0 -8 6 -29 14 -47 25 -58 44 -112 56
-158 6 -25 18 -67 25 -95 8 -27 19 -75 25 -105 6 -30 16 -70 21 -87 12 -37 26
-113 38 -194 5 -30 13 -65 20 -77 6 -11 11 -40 11 -64 0 -24 7 -68 15 -98 8
-30 15 -77 15 -105 0 -27 7 -81 15 -120 8 -38 15 -99 15 -135 0 -36 5 -94 11
-130 6 -38 12 -284 14 -586 2 -286 5 -524 6 -530 5 -30 -2 -36 -33 -30 -18 3
-35 10 -38 15 -7 12 -83 40 -135 51 -22 4 -57 13 -78 20 -46 14 -312 8 -372
-8 -85 -23 -132 -34 -180 -42 -27 -4 -63 -13 -78 -19 -16 -6 -41 -11 -56 -11
-16 0 -45 -7 -65 -15 -20 -9 -40 -14 -44 -11 -5 3 -26 0 -48 -5 -44 -12 -108
-24 -174 -34 -25 -4 -59 -13 -77 -21 -45 -20 -90 -28 -97 -16 -3 6 -8 66 -11
134 -3 67 -10 191 -16 273 -12 161 -6 700 11 910 17 228 29 330 39 358 6 16
11 50 11 76 0 27 7 68 15 91 8 23 15 57 15 75 0 18 7 52 15 75 8 23 15 55 15
70 0 15 7 44 15 63 8 20 15 49 15 65 0 16 3 32 7 36 4 4 13 33 21 64 14 63 25
109 41 165 6 20 15 52 20 70 14 50 32 99 47 129 8 14 14 32 14 40 0 7 13 40
29 73 16 33 51 105 77 160 56 117 77 149 150 232 81 93 172 131 241 101z"/>
<path d="M4559 14196 c-2 -2 -38 -7 -79 -10 -98 -8 -212 -22 -275 -36 -27 -5
-79 -15 -115 -20 -36 -6 -78 -18 -93 -26 -15 -9 -35 -13 -43 -10 -8 3 -22 2
-32 -3 -26 -13 -102 -32 -149 -38 -23 -3 -47 -11 -54 -19 -6 -8 -28 -14 -48
-14 -20 0 -45 -7 -55 -15 -10 -8 -23 -12 -28 -9 -4 3 -25 -4 -46 -14 -20 -11
-57 -27 -82 -37 -25 -9 -58 -23 -73 -31 -16 -8 -34 -14 -42 -14 -7 0 -18 -7
-25 -15 -7 -8 -19 -15 -27 -15 -12 0 -125 -54 -320 -154 -40 -20 -73 -41 -73
-46 0 -5 -10 -12 -22 -16 -27 -8 -138 -83 -138 -93 0 -4 -25 -19 -55 -35 -30
-15 -55 -31 -55 -36 0 -4 -30 -27 -66 -50 -36 -23 -80 -57 -96 -76 -17 -19
-36 -34 -44 -34 -7 0 -18 -8 -23 -17 -5 -10 -63 -65 -128 -123 -66 -58 -132
-122 -148 -143 -17 -21 -40 -48 -52 -59 -13 -12 -23 -27 -23 -34 0 -7 -9 -16
-21 -19 -11 -4 -25 -18 -31 -31 -6 -13 -15 -24 -19 -24 -4 0 -36 -39 -72 -87
-35 -49 -71 -94 -80 -102 -10 -7 -17 -19 -17 -25 0 -7 -28 -48 -61 -91 -34
-44 -66 -92 -71 -107 -6 -16 -14 -28 -18 -28 -5 0 -12 -9 -15 -20 -4 -11 -24
-49 -46 -85 -21 -36 -39 -71 -39 -79 0 -7 -7 -19 -16 -27 -8 -7 -30 -42 -49
-78 -18 -36 -40 -79 -49 -96 -9 -16 -16 -42 -16 -56 0 -15 -7 -32 -15 -39 -8
-7 -15 -18 -15 -26 0 -7 -11 -34 -25 -60 -14 -26 -25 -54 -25 -63 0 -16 -22
-87 -39 -126 -29 -68 -51 -130 -51 -148 0 -11 -9 -50 -21 -86 -11 -36 -24 -80
-30 -97 -5 -17 -9 -46 -9 -65 0 -19 -5 -51 -10 -71 -6 -21 -14 -55 -20 -75
-29 -111 -51 -413 -52 -698 0 -168 5 -309 11 -335 6 -25 11 -68 11 -96 0 -28
6 -73 14 -100 8 -27 18 -71 21 -99 4 -27 14 -65 22 -84 9 -19 13 -47 10 -66
-3 -19 0 -41 7 -51 7 -11 16 -32 19 -49 12 -64 25 -112 39 -150 9 -22 21 -60
28 -85 14 -50 16 -56 40 -120 10 -25 28 -72 40 -105 13 -33 29 -69 36 -80 8
-11 14 -28 14 -38 0 -10 18 -48 40 -84 22 -37 40 -73 40 -80 0 -16 55 -120 76
-144 8 -9 29 -44 47 -79 53 -105 59 -114 80 -138 11 -12 30 -37 41 -56 45 -74
254 -343 316 -407 25 -25 52 -55 61 -65 52 -61 261 -252 341 -311 31 -23 81
-64 111 -90 30 -26 77 -61 104 -77 26 -17 66 -45 89 -63 23 -18 47 -33 54 -33
6 0 25 -11 42 -25 16 -14 38 -25 48 -25 10 0 21 -4 25 -9 7 -13 94 -71 104
-71 5 0 14 -7 21 -15 7 -8 20 -15 30 -15 10 0 64 -24 121 -53 57 -28 129 -63
159 -76 30 -12 70 -29 88 -37 18 -8 39 -14 47 -14 8 0 29 -6 47 -14 18 -8 53
-20 78 -27 25 -7 63 -20 85 -30 22 -9 54 -20 70 -24 17 -3 48 -10 70 -15 22
-5 69 -15 105 -23 36 -8 76 -19 90 -25 37 -16 100 -26 142 -23 20 1 47 -3 59
-10 13 -6 59 -14 103 -16 45 -2 88 -6 96 -10 8 -3 49 -7 90 -9 41 -2 80 -6 86
-8 6 -2 38 4 70 15 69 23 133 84 165 160 11 26 32 57 45 70 13 12 24 28 24 34
0 6 9 28 20 49 10 21 22 59 26 83 6 41 4 47 -27 79 -46 47 -102 61 -289 69
-85 4 -177 9 -205 12 -27 2 -72 5 -98 7 -27 2 -53 8 -60 15 -6 6 -23 11 -37
11 -38 0 -203 35 -228 49 -11 6 -32 11 -46 11 -14 0 -40 6 -58 14 -51 21 -99
37 -138 46 -42 10 -137 45 -153 58 -7 4 -32 15 -57 22 -25 7 -49 17 -55 21 -5
4 -57 31 -115 59 -58 29 -112 58 -120 65 -8 6 -31 18 -50 25 -19 7 -46 23 -60
35 -14 13 -41 30 -61 39 -20 10 -52 30 -70 47 -18 16 -36 29 -41 29 -13 0
-128 91 -128 101 0 5 -7 9 -15 9 -36 0 -376 332 -500 489 -149 188 -162 206
-170 231 -4 14 -14 32 -22 40 -31 34 -53 64 -53 73 0 6 -11 25 -25 43 -27 36
-125 212 -125 226 0 5 -15 41 -34 81 -60 128 -87 197 -122 312 -10 33 -23 66
-28 73 -6 8 -11 32 -12 55 -1 22 -6 50 -12 61 -30 68 -59 199 -66 296 -1 14
-4 30 -8 35 -17 27 -37 552 -26 665 28 283 40 364 62 445 14 47 25 99 45 206
5 25 23 76 40 114 17 37 31 75 31 84 0 9 11 39 25 66 13 28 25 59 25 70 0 24
94 220 109 229 6 4 11 16 11 27 0 11 15 41 32 68 18 27 42 63 53 82 11 18 25
42 31 52 7 10 17 24 23 30 6 6 11 17 11 25 0 8 16 32 35 53 19 21 45 60 59 86
13 26 36 59 51 73 15 14 64 70 110 125 83 100 367 385 384 385 5 0 46 32 92
70 46 39 104 82 129 97 25 14 59 37 75 51 53 42 136 92 156 92 10 0 23 9 29
20 6 11 17 20 25 20 8 0 31 11 51 25 20 14 47 25 60 25 12 0 26 5 29 10 8 13
113 63 167 80 21 6 40 16 43 21 4 5 19 9 34 9 16 0 34 7 41 15 7 9 18 14 24
12 6 -3 22 2 36 9 39 21 110 45 160 54 25 4 79 17 120 28 41 11 95 23 120 27
25 3 54 10 65 15 32 13 298 40 464 46 159 7 449 -9 509 -28 18 -5 67 -12 108
-14 41 -2 91 -11 112 -20 20 -9 60 -19 87 -24 28 -4 84 -18 125 -29 41 -12 93
-27 115 -32 22 -6 47 -16 55 -23 8 -7 40 -18 70 -25 30 -7 82 -26 114 -42 33
-16 63 -29 69 -29 18 0 213 -98 226 -114 8 -9 17 -16 21 -16 13 0 174 -95 229
-135 30 -21 66 -46 82 -54 43 -24 179 -132 179 -142 0 -5 12 -15 28 -23 44
-23 358 -340 392 -396 10 -17 33 -45 88 -110 22 -25 55 -70 75 -100 21 -30 41
-60 46 -67 26 -30 123 -199 153 -263 11 -25 26 -52 33 -60 7 -8 24 -50 40 -92
15 -42 33 -79 41 -82 8 -3 14 -16 14 -28 0 -13 12 -48 26 -78 14 -30 32 -79
40 -109 7 -29 18 -58 23 -65 5 -6 15 -31 22 -56 8 -25 29 -60 49 -80 40 -40
106 -66 127 -48 7 6 34 12 60 14 114 7 175 23 225 61 83 60 93 115 48 253 -9
30 -25 82 -35 115 -9 33 -26 78 -36 100 -11 22 -19 45 -19 52 0 6 -11 34 -25
61 -14 28 -25 57 -25 65 0 9 -16 42 -35 74 -19 32 -35 63 -35 68 0 14 -66 144
-83 164 -8 9 -24 41 -36 71 -13 30 -34 66 -47 81 -13 14 -24 30 -24 35 0 6 -9
19 -20 29 -11 10 -20 22 -20 27 0 16 -136 200 -262 355 -136 168 -472 484
-613 576 -71 47 -129 89 -155 111 -14 13 -45 33 -70 45 -25 13 -56 33 -70 46
-14 13 -61 41 -105 63 -44 22 -102 51 -130 65 -104 53 -283 137 -291 137 -3 0
-20 6 -37 13 -18 8 -50 20 -72 27 -22 7 -58 21 -79 31 -22 11 -47 19 -55 19
-9 0 -29 7 -45 15 -15 8 -42 15 -58 15 -16 0 -39 5 -51 12 -12 6 -40 15 -62
19 -125 24 -190 40 -201 50 -7 6 -17 8 -22 5 -9 -5 -80 4 -182 24 -139 26
-204 31 -491 36 -168 2 -307 3 -310 0z m601 -91 c80 -9 177 -23 215 -31 39 -8
82 -14 96 -14 15 0 46 -7 69 -15 23 -8 53 -15 67 -15 13 0 48 -7 76 -16 29 -8
68 -19 87 -24 146 -38 309 -90 316 -101 3 -5 14 -9 24 -9 10 0 31 -6 47 -14
15 -8 44 -21 63 -30 222 -97 290 -131 430 -215 162 -96 308 -194 390 -261 19
-15 53 -43 75 -60 76 -60 210 -184 303 -279 84 -87 120 -128 260 -294 23 -29
68 -90 99 -137 32 -47 60 -87 63 -90 9 -7 151 -247 178 -300 13 -25 27 -53 32
-62 24 -43 30 -55 49 -93 37 -78 75 -167 98 -235 8 -25 21 -58 27 -75 18 -42
36 -95 46 -130 14 -48 39 -119 50 -137 6 -10 10 -31 10 -48 0 -28 -2 -30 -41
-30 -40 0 -108 -14 -244 -51 -99 -27 -102 -26 -110 24 -8 55 -52 204 -71 240
-7 16 -14 33 -14 39 0 9 -12 38 -45 113 -28 63 -156 322 -178 361 -29 52 -192
297 -209 315 -7 8 -30 37 -51 64 -75 99 -142 172 -286 315 -254 251 -525 442
-861 606 -82 40 -192 84 -367 148 -88 31 -110 38 -143 46 -19 4 -48 13 -65 19
-16 5 -66 17 -110 26 -44 9 -98 20 -120 25 -22 6 -103 18 -180 27 -174 22
-635 25 -795 5 -180 -22 -373 -60 -455 -88 -23 -8 -49 -14 -59 -14 -10 0 -32
-6 -49 -14 -18 -8 -41 -16 -52 -19 -63 -16 -311 -115 -415 -165 -132 -64 -345
-191 -470 -281 -94 -67 -133 -97 -235 -181 -16 -14 -95 -90 -175 -170 -133
-133 -173 -177 -253 -279 -15 -20 -33 -43 -40 -51 -140 -175 -320 -491 -411
-720 -20 -52 -43 -108 -50 -125 -16 -37 -35 -90 -46 -130 -5 -16 -17 -55 -26
-85 -36 -121 -79 -342 -94 -479 -5 -52 -14 -131 -20 -175 -28 -221 1 -635 66
-946 26 -122 68 -268 90 -313 8 -16 14 -35 14 -44 0 -8 6 -29 14 -46 8 -18 26
-63 41 -102 63 -161 107 -251 209 -425 82 -141 136 -223 149 -228 4 -2 7 -8 7
-13 0 -5 7 -17 15 -27 9 -9 51 -62 94 -117 85 -108 108 -135 205 -235 97 -99
183 -179 266 -245 41 -33 80 -65 85 -71 9 -10 132 -97 190 -134 183 -118 443
-254 605 -315 25 -10 54 -21 65 -25 23 -10 124 -41 210 -65 33 -9 80 -23 104
-31 25 -8 55 -14 68 -14 14 0 34 -5 46 -12 12 -6 48 -15 82 -19 33 -4 85 -13
115 -18 149 -27 365 -43 491 -36 149 8 154 4 95 -68 -35 -45 -140 -217 -169
-279 -10 -20 -22 -40 -27 -43 -5 -3 -36 -1 -67 5 -32 6 -114 15 -183 20 -265
21 -622 94 -785 161 -30 13 -107 40 -130 46 -11 3 -35 12 -53 20 -18 8 -70 29
-115 48 -89 36 -142 60 -169 75 -34 19 -53 29 -108 58 -85 43 -288 168 -355
217 -33 24 -78 56 -100 72 -148 105 -417 355 -568 527 -107 123 -239 297 -300
396 -30 48 -38 63 -95 155 -41 67 -154 288 -176 345 -3 8 -10 22 -14 30 -12
19 -35 73 -57 130 -9 25 -21 56 -26 68 -14 37 -45 131 -64 197 -9 33 -23 78
-31 100 -8 23 -14 48 -14 57 0 8 -6 38 -14 64 -16 57 -39 164 -60 284 -62 352
-50 924 26 1240 6 25 14 65 18 90 4 25 12 58 19 73 6 16 11 41 11 57 0 16 4
31 9 34 5 3 12 23 16 43 18 98 92 311 155 448 96 207 149 311 199 393 31 51
61 100 66 110 30 51 130 192 213 302 110 143 440 480 570 580 315 244 550 385
877 524 17 7 46 20 65 28 19 8 49 21 65 28 49 20 205 70 270 86 33 8 85 22
115 30 30 9 78 19 106 24 28 4 61 13 72 19 11 6 37 11 57 11 20 0 64 7 98 15
180 42 638 58 897 30z"/>
<path d="M4495 13428 c-231 -29 -265 -34 -340 -55 -38 -11 -97 -26 -130 -33
-33 -7 -67 -19 -76 -27 -8 -7 -25 -13 -36 -13 -27 0 -110 -27 -154 -51 -20
-10 -44 -19 -53 -19 -9 0 -72 -27 -141 -60 -69 -33 -129 -60 -133 -60 -5 0
-24 -13 -42 -30 -18 -16 -37 -30 -42 -30 -5 0 -42 -20 -83 -45 -41 -25 -82
-48 -92 -52 -10 -4 -49 -33 -88 -66 -38 -32 -77 -62 -85 -65 -35 -14 -362
-324 -425 -402 -11 -14 -50 -63 -87 -110 -37 -47 -75 -94 -85 -105 -10 -11
-28 -41 -40 -66 -12 -25 -37 -69 -55 -97 -64 -99 -88 -140 -102 -174 -8 -19
-22 -40 -30 -48 -9 -7 -16 -19 -16 -27 0 -19 -37 -100 -50 -108 -5 -3 -10 -19
-10 -34 0 -15 -9 -38 -20 -51 -11 -13 -20 -36 -20 -51 0 -15 -4 -30 -9 -33 -4
-3 -16 -34 -26 -68 -9 -35 -21 -67 -25 -73 -4 -5 -10 -29 -13 -52 -3 -23 -12
-56 -21 -74 -9 -18 -16 -44 -16 -59 0 -15 -7 -47 -15 -70 -8 -23 -15 -58 -15
-76 0 -19 -4 -42 -9 -52 -5 -9 -17 -84 -26 -167 -25 -224 -18 -593 15 -770 51
-271 87 -421 115 -474 8 -17 15 -38 15 -49 0 -10 11 -41 25 -68 14 -27 25 -54
25 -61 0 -7 11 -38 25 -69 14 -31 25 -65 25 -75 0 -9 7 -24 15 -33 8 -8 15
-20 15 -26 0 -6 13 -30 29 -53 15 -23 40 -64 55 -92 134 -248 254 -408 481
-643 120 -125 105 -111 185 -174 36 -28 87 -70 115 -94 27 -24 54 -44 58 -44
14 0 107 -62 107 -72 0 -4 24 -19 53 -32 28 -13 63 -35 76 -49 13 -14 36 -29
52 -32 16 -4 31 -11 34 -16 4 -5 27 -18 53 -29 26 -12 54 -25 62 -30 8 -6 22
-13 30 -16 8 -3 42 -18 75 -34 33 -16 74 -32 90 -35 17 -4 46 -16 65 -26 19
-9 46 -20 60 -22 14 -3 45 -12 70 -21 113 -39 181 -59 255 -72 44 -7 107 -19
140 -24 142 -26 185 -31 280 -36 55 -3 107 -8 115 -11 28 -11 345 -2 357 10 3
4 21 7 40 7 46 0 115 34 155 78 37 41 51 62 96 144 18 31 43 69 57 84 14 15
25 33 25 41 0 8 18 44 40 80 22 37 40 71 40 76 0 6 11 25 25 43 14 18 25 38
25 45 0 7 9 22 19 33 21 23 64 98 106 186 14 30 34 64 44 75 10 11 27 36 36
55 10 18 24 40 31 48 8 7 14 18 14 24 0 6 34 66 75 135 41 68 75 130 75 137 0
7 9 21 20 31 11 10 20 24 20 31 0 7 7 20 16 28 8 9 32 46 51 84 20 37 44 81
52 97 9 17 35 55 57 85 22 30 48 76 58 102 10 26 22 50 27 54 5 3 16 20 24 37
8 18 28 55 45 82 17 28 36 61 43 75 6 14 36 66 66 115 30 50 67 115 84 145 16
30 33 57 37 60 4 3 10 15 14 27 6 20 101 170 126 200 5 7 10 19 10 27 0 8 18
42 40 75 22 33 40 64 40 69 0 5 15 29 33 53 17 24 42 64 55 89 12 25 33 63 46
85 12 22 50 87 83 145 110 193 117 204 135 222 10 10 18 23 18 29 0 37 175
197 227 208 9 2 26 9 38 16 11 7 49 21 83 31 53 16 71 27 103 65 25 31 39 57
39 75 0 39 -25 156 -38 181 -17 32 -42 106 -42 127 0 11 -6 27 -13 35 -7 9
-26 45 -42 81 -15 36 -45 94 -65 130 -21 36 -48 88 -61 115 -24 53 -59 108
-72 113 -4 2 -18 25 -31 50 -22 43 -45 76 -160 227 -52 68 -170 198 -236 259
-30 28 -66 62 -80 76 -24 24 -51 47 -179 150 -65 53 -159 120 -166 120 -3 0
-18 8 -33 19 -63 43 -139 88 -169 100 -17 7 -39 21 -49 32 -9 10 -25 19 -34
19 -9 0 -37 13 -61 30 -24 16 -51 30 -60 30 -9 0 -29 6 -45 14 -73 35 -124 56
-139 56 -9 0 -29 7 -44 15 -61 31 -213 80 -296 95 -27 4 -68 14 -90 20 -43 12
-178 34 -310 50 -161 20 -479 19 -640 -2z m610 -83 c235 -23 423 -60 580 -115
50 -17 99 -34 110 -36 11 -3 34 -12 50 -19 33 -15 81 -35 135 -56 40 -16 219
-107 266 -135 174 -104 312 -199 396 -272 166 -143 267 -244 398 -398 51 -59
175 -230 208 -287 7 -12 21 -35 32 -52 10 -16 31 -52 45 -80 14 -27 37 -70 50
-94 14 -24 25 -50 25 -56 0 -7 7 -18 15 -25 8 -7 15 -20 15 -30 0 -10 6 -23
14 -29 8 -6 16 -22 19 -34 3 -12 15 -47 26 -77 12 -30 33 -89 47 -130 14 -41
32 -89 41 -105 8 -17 13 -41 12 -55 -4 -22 -10 -26 -59 -32 -205 -24 -356
-128 -469 -321 -28 -49 -51 -91 -51 -92 0 -2 -12 -21 -26 -42 -14 -21 -30 -47
-35 -58 -5 -11 -13 -27 -19 -35 -15 -22 -125 -212 -133 -230 -4 -8 -16 -28
-27 -45 -11 -16 -24 -39 -30 -50 -6 -11 -20 -36 -31 -55 -12 -19 -32 -55 -46
-80 -13 -25 -33 -58 -44 -75 -10 -16 -22 -37 -26 -45 -4 -8 -40 -70 -80 -136
-40 -67 -73 -124 -73 -127 0 -4 -31 -57 -68 -119 -38 -62 -82 -138 -99 -168
-16 -30 -53 -94 -81 -142 -29 -48 -52 -90 -52 -93 0 -3 -11 -21 -24 -38 -14
-18 -30 -43 -35 -57 -6 -14 -20 -38 -31 -55 -11 -16 -23 -37 -27 -45 -4 -8
-26 -48 -50 -88 -24 -41 -43 -75 -43 -77 0 -2 -12 -21 -26 -42 -14 -21 -30
-47 -35 -58 -5 -11 -13 -27 -19 -35 -20 -30 -100 -171 -100 -175 0 -3 -12 -24
-27 -48 -38 -58 -51 -80 -59 -97 -4 -8 -24 -42 -44 -75 -20 -33 -54 -91 -74
-130 -21 -38 -51 -89 -67 -113 -16 -24 -29 -45 -29 -47 0 -2 -19 -36 -43 -77
-24 -40 -46 -80 -50 -88 -4 -8 -11 -22 -17 -30 -28 -43 -119 -201 -140 -243
-13 -27 -27 -50 -30 -52 -3 -2 -81 -8 -174 -15 -252 -17 -594 8 -762 56 -28 7
-62 14 -75 14 -13 1 -35 7 -49 15 -14 8 -36 14 -48 15 -23 0 -122 31 -277 87
-111 40 -394 183 -510 259 -221 144 -488 375 -622 539 -23 28 -62 75 -88 105
-38 45 -167 230 -210 302 -38 63 -108 201 -149 293 -15 33 -33 73 -41 88 -8
16 -15 37 -15 47 0 9 -7 23 -15 30 -8 7 -15 21 -15 31 0 10 -6 33 -14 51 -39
93 -89 300 -120 498 -80 501 -10 1087 180 1525 199 459 456 809 819 1114 99
83 292 220 370 262 17 9 53 30 80 46 86 50 307 153 328 153 7 0 21 6 32 14 11
7 31 16 45 19 14 3 50 15 80 27 30 12 71 26 90 30 19 4 73 18 120 30 129 34
236 50 450 70 205 20 281 19 525 -5z"/>
<path d="M4737 12928 c-21 -11 -50 -36 -65 -56 l-27 -35 -5 -241 -5 -241 -50
-6 c-137 -15 -355 -132 -483 -259 -58 -57 -141 -159 -155 -190 -4 -8 -16 -28
-27 -45 -11 -16 -23 -37 -26 -45 -4 -8 -17 -38 -30 -65 -63 -139 -90 -394 -65
-605 11 -94 64 -285 82 -296 5 -3 9 -11 9 -19 0 -40 121 -183 220 -259 77 -60
251 -143 350 -166 19 -4 51 -14 70 -21 19 -6 52 -18 73 -26 20 -7 49 -13 63
-13 14 0 34 -5 45 -11 11 -6 41 -14 67 -19 355 -66 550 -175 639 -355 54 -110
64 -153 64 -298 0 -111 -3 -145 -21 -198 -63 -187 -176 -323 -338 -406 -35
-18 -69 -33 -75 -33 -7 0 -25 -8 -42 -17 -44 -24 -326 -24 -370 0 -16 9 -36
17 -42 17 -7 0 -45 17 -85 38 -101 51 -230 181 -277 277 -48 97 -63 156 -70
265 -8 129 -28 165 -113 210 -88 47 -212 0 -247 -93 -36 -95 15 -400 91 -535
76 -138 131 -207 257 -325 53 -51 218 -154 261 -164 14 -3 34 -11 45 -18 11
-7 34 -15 50 -18 17 -3 54 -11 83 -18 l52 -12 0 -232 0 -232 31 -42 c78 -109
228 -106 307 6 21 31 22 40 22 266 l0 233 83 19 c70 15 202 71 307 130 61 35
187 156 253 244 164 219 234 470 208 749 -6 70 -18 148 -26 173 -8 26 -15 56
-15 67 0 11 -6 33 -14 49 -8 15 -25 53 -38 83 -65 153 -185 273 -364 365 -48
25 -93 45 -100 45 -7 0 -25 6 -41 14 -26 13 -69 27 -168 55 -22 6 -107 27
-190 46 -207 49 -303 78 -367 111 -14 8 -31 14 -37 14 -24 0 -137 76 -186 125
-99 100 -145 234 -145 421 0 210 58 347 209 494 47 46 93 78 152 107 118 58
156 67 299 67 143 1 228 -20 334 -83 112 -67 221 -186 266 -291 48 -113 53
-134 60 -230 7 -105 18 -141 58 -183 31 -33 100 -67 134 -67 35 1 100 34 132
67 50 53 60 102 47 223 -29 257 -132 472 -311 649 -130 128 -349 246 -485 261
l-50 5 -3 239 -2 239 -31 39 c-60 75 -154 98 -232 56z m132 -115 c12 -16 31
-39 42 -52 15 -18 19 -33 15 -55 -10 -52 -8 -207 3 -268 5 -31 18 -69 27 -85
21 -33 64 -72 80 -73 6 0 17 -6 23 -14 7 -8 27 -18 44 -21 37 -7 44 -10 152
-61 105 -49 228 -152 303 -254 14 -19 31 -40 36 -45 36 -34 90 -134 106 -197
7 -23 18 -50 26 -59 33 -37 46 -256 19 -309 -30 -58 -86 -66 -128 -19 -15 17
-27 35 -27 39 0 4 -6 12 -13 18 -7 6 -14 32 -15 59 -4 92 -54 248 -92 288 -12
12 -24 34 -28 47 -7 26 -159 198 -175 198 -5 0 -41 19 -80 42 -112 66 -137 75
-248 87 -113 13 -118 13 -199 7 -106 -8 -192 -34 -247 -73 -17 -13 -35 -23
-40 -23 -4 0 -37 -20 -71 -44 -79 -54 -177 -164 -217 -242 -16 -33 -34 -66
-41 -74 -6 -8 -14 -33 -17 -55 -4 -22 -11 -60 -16 -85 -17 -75 -13 -290 5
-351 42 -142 116 -262 206 -331 33 -27 64 -48 69 -48 4 0 30 -13 57 -29 27
-16 64 -32 82 -36 17 -4 55 -18 84 -30 28 -13 98 -36 156 -50 119 -30 174 -44
210 -55 14 -4 50 -13 80 -20 91 -20 294 -91 315 -110 11 -10 39 -27 62 -39 24
-12 52 -34 63 -49 11 -15 37 -38 58 -51 33 -21 55 -47 128 -161 12 -19 27 -53
33 -75 6 -22 17 -49 25 -60 19 -28 35 -168 35 -315 0 -69 0 -144 1 -167 0 -23
-6 -66 -14 -95 -16 -60 -73 -195 -93 -219 -7 -8 -13 -20 -13 -25 0 -38 -228
-285 -300 -325 -19 -11 -55 -31 -79 -44 -24 -14 -52 -25 -61 -25 -9 0 -31 -11
-50 -25 -19 -14 -46 -25 -62 -25 -31 0 -126 -72 -145 -111 -6 -13 -16 -106
-21 -209 -5 -107 -15 -196 -22 -212 -16 -33 -86 -56 -119 -39 -46 25 -54 64
-65 311 -6 137 -19 173 -78 215 -26 19 -55 35 -62 35 -8 0 -18 5 -21 10 -3 6
-13 10 -21 10 -32 0 -214 97 -290 155 -66 50 -204 195 -204 213 0 5 -18 33
-40 62 -22 29 -40 60 -40 67 0 8 -9 32 -20 53 -46 90 -73 307 -46 372 17 40
55 59 100 51 46 -9 84 -79 85 -158 0 -36 5 -73 10 -82 5 -10 19 -49 32 -88 12
-38 34 -86 49 -105 15 -19 34 -49 43 -65 8 -17 24 -38 35 -48 11 -10 26 -32
32 -48 7 -16 19 -29 27 -29 8 0 32 -15 53 -33 22 -18 52 -39 67 -47 15 -8 35
-19 43 -26 8 -6 40 -19 70 -29 30 -9 71 -24 90 -32 49 -21 277 -30 333 -13
119 35 177 58 227 87 30 18 58 33 61 33 13 0 135 120 173 170 51 70 66 101
105 222 28 89 31 108 32 240 0 79 -4 155 -9 169 -5 13 -15 42 -22 64 -7 22
-23 63 -36 92 -13 28 -24 54 -24 58 0 9 -150 155 -159 155 -4 0 -18 9 -31 20
-13 11 -29 20 -35 20 -7 0 -18 7 -25 16 -15 18 -74 44 -100 44 -10 0 -23 6
-29 14 -6 8 -26 16 -44 19 -18 3 -68 15 -112 27 -44 12 -98 26 -120 32 -22 5
-48 14 -57 19 -10 5 -35 9 -57 9 -22 0 -46 7 -55 15 -8 8 -32 15 -53 15 -22 0
-44 5 -50 11 -6 6 -29 15 -50 20 -61 13 -144 44 -198 75 -28 16 -68 38 -88 48
-49 25 -155 130 -187 185 -14 23 -36 56 -49 72 -27 34 -57 135 -78 264 -16 99
-13 366 5 445 17 73 51 163 71 185 10 11 21 32 24 46 8 31 86 138 142 195 64
64 223 184 244 184 5 0 14 7 21 15 7 8 26 19 44 24 17 5 56 19 86 31 30 12 64
24 75 28 26 7 68 50 87 87 25 47 29 83 30 236 1 150 4 165 51 217 29 31 70 29
96 -5z"/>
<path d="M10590 11658 c-41 -5 -90 -16 -109 -25 -19 -8 -61 -19 -95 -24 -107
-14 -141 -20 -161 -29 -11 -5 -45 -14 -75 -20 -30 -5 -82 -16 -115 -24 -33 -8
-89 -21 -125 -29 -84 -19 -176 -62 -197 -93 -23 -35 -34 -158 -18 -192 7 -15
18 -75 25 -134 6 -59 17 -123 25 -142 8 -20 15 -55 15 -78 1 -24 7 -54 15 -68
8 -14 14 -42 15 -62 0 -20 4 -39 9 -42 5 -3 11 -20 14 -38 2 -18 9 -46 15 -63
6 -16 21 -64 33 -105 30 -98 89 -158 182 -185 34 -10 76 -24 94 -31 17 -8 37
-14 44 -14 20 0 155 -68 169 -85 7 -8 19 -15 26 -15 18 0 170 -152 212 -212
17 -26 32 -54 32 -63 0 -9 6 -18 14 -21 13 -5 37 -65 75 -185 6 -19 11 -47 11
-62 0 -14 5 -29 10 -32 34 -21 -11 -370 -53 -411 -4 -4 -7 -17 -7 -28 0 -12
-11 -39 -25 -61 -13 -22 -29 -49 -34 -61 -5 -11 -25 -38 -45 -59 -20 -21 -36
-41 -36 -45 0 -21 -189 -176 -240 -197 -19 -8 -55 -23 -79 -35 -43 -19 -122
-40 -225 -58 -69 -13 -148 -6 -306 25 -14 3 -38 10 -55 16 -16 6 -39 14 -50
18 -50 19 -122 59 -158 88 -21 18 -42 33 -47 33 -12 0 -146 141 -172 180 -21
31 -44 81 -83 175 -7 17 -23 55 -36 85 -21 49 -23 70 -24 215 0 150 2 165 28
240 16 44 46 116 67 161 39 81 124 194 146 194 7 0 23 12 36 28 36 42 108 98
158 121 73 34 160 119 170 165 5 22 6 45 2 50 -4 6 -12 36 -19 66 -6 30 -19
82 -28 115 -10 33 -21 85 -26 115 -13 89 -21 120 -30 126 -5 3 -9 21 -9 40 0
19 -9 67 -19 107 -22 84 -36 165 -33 190 1 10 -7 36 -18 57 -11 22 -20 45 -20
53 0 7 -16 28 -36 45 -33 30 -41 32 -107 32 -42 0 -114 -11 -172 -25 -55 -13
-115 -25 -133 -25 -18 0 -42 -5 -52 -10 -25 -14 -141 -40 -220 -50 -36 -5 -76
-11 -90 -15 -14 -3 -45 -11 -70 -16 -25 -6 -67 -16 -95 -24 -27 -8 -77 -19
-110 -26 -33 -6 -87 -18 -120 -27 -33 -8 -89 -21 -125 -28 -325 -64 -578 -118
-627 -135 -93 -32 -149 -75 -212 -159 -14 -19 -28 -37 -31 -40 -18 -18 -54
-79 -90 -151 -23 -46 -50 -93 -61 -105 -10 -11 -19 -25 -19 -30 0 -6 -16 -33
-35 -60 -19 -27 -35 -55 -35 -63 0 -8 -6 -22 -14 -30 -8 -9 -31 -47 -51 -86
-21 -38 -41 -72 -44 -75 -3 -3 -14 -21 -24 -40 -10 -19 -25 -48 -35 -64 -82
-141 -112 -196 -112 -204 0 -5 -7 -15 -16 -23 -9 -7 -29 -38 -44 -70 -16 -31
-43 -77 -60 -102 -16 -25 -30 -50 -30 -56 0 -6 -4 -11 -8 -11 -8 0 -52 -80
-52 -94 0 -4 -12 -26 -27 -49 -46 -69 -52 -80 -79 -132 -34 -67 -47 -89 -135
-235 -42 -69 -94 -159 -117 -200 -22 -41 -52 -90 -66 -109 -14 -19 -26 -41
-26 -48 0 -7 -12 -32 -27 -56 -15 -23 -36 -58 -46 -77 -11 -19 -27 -44 -37
-55 -10 -11 -21 -31 -25 -45 -4 -14 -21 -47 -39 -75 -48 -76 -53 -86 -87 -150
-17 -33 -36 -63 -41 -66 -10 -6 -22 -25 -57 -94 -57 -109 -100 -187 -110 -199
-7 -8 -24 -38 -40 -68 -15 -29 -46 -82 -69 -117 -23 -35 -42 -68 -42 -73 0 -5
-12 -28 -27 -51 -47 -71 -52 -80 -82 -143 -16 -34 -38 -71 -50 -83 -11 -11
-23 -31 -27 -45 -3 -13 -14 -33 -25 -45 -10 -11 -19 -23 -19 -27 0 -3 -24 -47
-52 -96 -29 -49 -71 -123 -93 -163 -22 -40 -59 -106 -82 -145 -24 -39 -43 -78
-43 -85 0 -7 -7 -18 -16 -26 -8 -7 -24 -29 -35 -48 -11 -20 -38 -65 -59 -101
-21 -36 -49 -83 -61 -105 -12 -22 -27 -47 -34 -55 -6 -8 -18 -31 -25 -50 -16
-38 -46 -88 -82 -135 -13 -16 -37 -56 -53 -90 -29 -57 -48 -92 -67 -125 -4 -8
-13 -27 -19 -42 -6 -16 -15 -28 -19 -28 -7 0 -24 -28 -68 -114 -8 -16 -33 -57
-56 -90 -22 -34 -55 -90 -73 -126 -19 -36 -46 -86 -61 -112 -15 -26 -45 -78
-67 -115 -21 -37 -45 -74 -52 -81 -7 -7 -13 -18 -13 -24 0 -5 -15 -42 -34 -81
-59 -126 -66 -147 -66 -205 0 -90 37 -187 99 -263 30 -35 67 -69 83 -74 16 -6
32 -15 36 -20 12 -18 71 -55 85 -55 8 0 20 -7 28 -16 7 -9 43 -31 80 -50 37
-18 70 -38 74 -44 3 -5 15 -10 25 -10 10 0 33 -12 50 -27 34 -28 52 -39 165
-97 39 -20 88 -49 110 -66 22 -16 86 -52 142 -79 55 -28 104 -54 107 -60 10
-15 91 -68 118 -76 12 -4 37 -18 55 -31 17 -13 35 -24 40 -24 5 0 32 -16 62
-35 29 -19 56 -35 61 -35 5 0 41 -19 82 -43 40 -23 85 -48 99 -56 15 -7 38
-24 52 -37 14 -13 32 -24 39 -24 7 0 38 -14 68 -32 30 -17 70 -39 88 -49 18
-9 39 -23 47 -29 20 -17 87 -50 101 -50 7 0 15 -7 18 -15 3 -9 29 -27 58 -41
63 -30 167 -90 189 -110 8 -8 21 -14 27 -14 6 0 33 -14 59 -30 26 -17 51 -30
56 -30 4 0 25 -13 45 -29 20 -16 78 -50 127 -76 50 -26 97 -53 106 -61 8 -8
20 -14 26 -14 5 0 28 -12 49 -28 49 -33 75 -48 139 -80 28 -14 64 -35 82 -48
17 -13 38 -24 46 -24 7 0 24 -11 37 -25 13 -14 41 -30 61 -35 21 -6 51 -21 66
-34 15 -12 47 -31 71 -41 23 -11 42 -23 42 -27 0 -5 24 -20 53 -33 28 -14 61
-31 72 -38 22 -13 110 -66 184 -109 45 -27 145 -83 220 -123 20 -11 50 -29 67
-40 16 -12 40 -26 54 -33 14 -7 39 -21 55 -32 17 -11 44 -26 60 -34 17 -8 59
-33 95 -55 36 -22 92 -54 126 -70 33 -16 66 -37 73 -45 8 -9 22 -16 32 -16 10
0 24 -9 31 -20 7 -11 18 -20 25 -20 7 0 34 -14 60 -30 26 -17 50 -30 55 -30 4
0 39 -15 77 -34 49 -24 87 -35 128 -37 78 -4 179 10 194 27 6 8 20 14 30 14
11 0 19 3 19 8 0 4 13 14 29 24 32 18 122 135 161 211 14 27 33 55 43 64 9 9
17 22 17 29 0 7 11 29 24 49 14 20 32 56 42 80 9 25 21 45 26 45 5 0 16 15 24
33 8 17 26 50 39 72 14 22 41 69 60 105 62 114 85 154 93 160 7 4 36 56 81
145 8 17 30 51 48 77 18 26 33 50 33 53 0 3 71 130 110 195 5 8 20 36 34 61
14 26 39 68 56 95 16 26 30 54 30 60 0 7 6 17 13 21 6 4 24 33 40 63 15 30 40
75 57 100 50 78 100 170 100 185 0 8 9 19 19 24 10 6 29 35 42 66 12 30 31 57
41 61 10 3 18 13 18 23 0 9 7 26 15 37 8 10 15 27 15 37 0 9 9 26 19 36 20 20
38 51 71 121 12 25 41 75 66 112 24 37 44 72 44 79 0 6 11 24 25 41 14 16 25
38 25 48 0 10 6 20 13 23 6 2 28 36 46 73 19 38 43 80 54 94 10 14 25 39 32
57 7 17 34 63 59 102 25 38 46 74 46 80 0 5 6 16 13 23 7 7 18 24 25 38 12 26
14 29 68 115 17 28 46 80 64 118 18 37 37 67 42 67 5 0 22 28 39 63 16 34 40
78 52 99 50 83 87 148 87 154 0 3 11 19 25 36 14 16 25 35 25 42 0 8 8 24 19
37 10 13 33 51 51 84 18 33 43 78 56 100 13 22 36 65 51 95 23 48 88 155 103
170 3 3 20 35 38 72 19 37 42 74 53 84 10 9 19 23 19 30 0 18 59 117 76 127 8
4 14 15 14 23 0 8 14 33 30 56 17 22 30 48 30 58 0 9 11 31 25 50 14 19 25 37
25 42 0 4 16 32 35 62 19 30 35 59 35 64 0 5 7 15 15 22 8 6 28 41 45 76 18
35 35 66 40 69 5 3 20 30 34 60 14 31 39 75 56 98 17 24 38 57 48 74 9 17 37
68 62 113 57 104 69 125 103 177 15 24 27 48 27 54 0 6 10 27 22 47 12 19 27
68 34 109 11 61 11 87 -1 155 -8 45 -21 100 -29 122 -8 23 -35 109 -61 191
-25 83 -50 164 -55 181 -6 17 -10 39 -10 50 0 10 -7 28 -15 38 -8 11 -15 29
-15 40 0 22 -41 157 -97 321 -19 55 -38 116 -42 135 -7 34 -19 73 -47 155 -8
23 -14 53 -14 68 0 16 -5 38 -12 50 -19 34 -79 207 -87 252 -4 22 -15 57 -24
79 -10 21 -17 50 -17 63 0 14 -6 37 -14 51 -21 41 -57 152 -65 202 -5 25 -15
59 -24 75 -9 17 -17 38 -17 47 0 9 -4 27 -9 40 -5 13 -14 43 -21 68 -7 25 -21
68 -31 95 -10 28 -26 79 -35 115 -9 36 -24 78 -32 95 -8 16 -20 54 -27 85 -33
145 -98 345 -140 430 -18 36 -41 81 -50 100 -10 19 -61 78 -115 130 -73 72
-115 104 -172 133 -175 87 -344 117 -538 95z m355 -106 c65 -22 118 -45 150
-65 92 -57 214 -172 238 -224 6 -13 13 -23 17 -23 4 0 10 -8 14 -17 3 -10 9
-25 14 -33 27 -46 38 -74 64 -165 17 -55 37 -122 45 -150 8 -27 18 -64 22 -80
4 -17 13 -40 19 -52 7 -12 12 -32 12 -45 0 -13 7 -33 15 -44 8 -10 15 -29 15
-41 0 -12 6 -37 14 -55 14 -31 52 -156 91 -293 29 -104 47 -159 61 -193 8 -18
14 -41 14 -52 0 -11 6 -34 14 -52 17 -41 33 -89 52 -153 8 -27 19 -63 24 -80
62 -205 79 -262 91 -310 6 -22 14 -44 20 -49 5 -6 9 -21 9 -34 0 -13 6 -38 13
-55 23 -53 39 -100 47 -137 4 -19 12 -46 18 -60 5 -14 18 -52 27 -85 27 -97
75 -257 91 -300 8 -23 14 -50 14 -61 0 -11 7 -29 15 -40 8 -10 15 -29 15 -42
0 -13 5 -33 12 -45 6 -12 15 -35 19 -52 4 -16 29 -97 55 -180 39 -124 47 -163
47 -226 1 -64 -4 -83 -25 -120 -14 -24 -38 -66 -53 -94 -16 -27 -40 -68 -54
-90 -28 -44 -32 -51 -85 -148 -20 -37 -64 -112 -96 -167 -33 -54 -60 -102 -60
-106 0 -4 -6 -15 -14 -23 -12 -15 -27 -40 -96 -166 -12 -22 -30 -53 -41 -70
-10 -16 -23 -39 -29 -50 -6 -11 -23 -40 -38 -65 -15 -25 -45 -77 -66 -115 -22
-39 -75 -130 -118 -203 -43 -73 -78 -135 -78 -137 0 -2 -26 -47 -58 -102 -32
-54 -61 -105 -65 -113 -4 -8 -16 -28 -27 -45 -11 -16 -24 -39 -30 -50 -6 -11
-18 -33 -28 -50 -10 -16 -36 -61 -56 -100 -21 -38 -43 -77 -50 -85 -6 -8 -17
-26 -25 -40 -8 -14 -56 -98 -108 -188 -51 -90 -93 -166 -93 -168 0 -2 -13 -23
-30 -46 -16 -22 -30 -44 -30 -49 0 -4 -27 -53 -60 -108 -33 -56 -60 -104 -60
-106 0 -3 -12 -24 -27 -48 -38 -57 -51 -79 -60 -97 -4 -8 -26 -48 -50 -88 -24
-40 -43 -74 -43 -77 0 -2 -34 -60 -75 -128 -41 -69 -75 -130 -75 -136 0 -6 -4
-11 -9 -11 -5 0 -13 -9 -16 -21 -4 -11 -26 -53 -49 -92 -23 -40 -45 -79 -49
-87 -4 -8 -16 -28 -27 -45 -11 -16 -24 -39 -30 -50 -5 -11 -14 -27 -20 -35
-25 -40 -93 -155 -101 -174 -5 -12 -13 -28 -19 -36 -25 -39 -123 -206 -131
-225 -5 -11 -13 -27 -19 -35 -15 -22 -125 -212 -133 -230 -4 -8 -16 -28 -27
-45 -11 -16 -23 -37 -27 -45 -4 -8 -26 -46 -48 -85 -23 -38 -44 -77 -48 -85
-4 -8 -11 -22 -17 -30 -22 -35 -150 -252 -196 -334 -27 -49 -61 -110 -76 -135
-16 -25 -33 -55 -38 -66 -6 -11 -16 -29 -23 -40 -7 -11 -30 -51 -52 -90 -22
-38 -45 -79 -52 -90 -7 -11 -15 -27 -19 -35 -4 -8 -19 -33 -33 -55 -28 -43
-32 -51 -81 -140 -43 -79 -72 -113 -132 -154 -44 -29 -59 -34 -131 -38 -78 -5
-85 -3 -147 29 -36 19 -86 48 -110 64 -25 16 -54 33 -65 40 -160 89 -225 126
-307 175 -54 33 -100 59 -102 59 -3 0 -36 18 -72 41 -37 22 -77 45 -88 50 -12
5 -34 18 -51 29 -16 11 -39 24 -50 30 -11 6 -33 19 -50 30 -16 11 -37 23 -45
27 -8 4 -48 26 -88 50 -41 24 -75 43 -77 43 -3 0 -45 25 -95 55 -75 46 -210
123 -370 212 -14 8 -38 23 -55 33 -16 11 -37 23 -45 27 -8 4 -46 25 -85 48
-38 23 -101 60 -139 81 -37 21 -76 44 -85 49 -62 38 -237 138 -298 170 -23 13
-55 32 -71 44 -16 11 -40 25 -53 31 -13 5 -31 14 -39 20 -22 15 -212 125 -230
133 -8 4 -28 16 -45 27 -16 11 -37 23 -45 27 -8 3 -33 18 -55 32 -22 14 -58
35 -80 46 -71 39 -118 66 -201 116 -45 27 -86 49 -92 49 -6 0 -12 4 -14 8 -1
5 -34 26 -73 47 -159 86 -181 98 -194 108 -14 12 -47 32 -71 43 -8 4 -59 34
-113 66 -55 32 -100 58 -102 58 -2 0 -50 27 -107 61 -126 74 -110 65 -243 141
-60 34 -119 68 -130 75 -11 7 -29 17 -40 23 -11 6 -33 19 -50 30 -16 10 -55
31 -85 47 -69 35 -161 127 -179 179 -22 63 -25 132 -8 173 8 20 18 43 21 51 3
8 10 22 16 30 13 20 89 151 130 225 18 33 45 78 59 100 14 22 31 49 37 61 54
100 93 170 129 229 23 39 45 77 49 85 3 8 15 29 26 45 11 17 24 39 30 50 6 11
18 34 28 50 10 17 36 62 56 100 21 39 43 76 49 84 12 14 32 47 43 71 4 8 18
31 30 51 19 31 76 131 142 251 10 18 29 51 42 73 14 23 30 50 37 60 7 11 24
43 39 70 14 28 35 62 45 76 10 15 23 37 29 50 5 13 16 33 22 44 11 17 38 59
73 117 13 21 32 55 77 138 20 36 69 121 110 190 41 69 77 132 81 140 4 8 17
31 28 50 12 19 32 55 46 80 13 25 33 59 44 75 10 17 23 39 29 50 6 11 16 29
23 40 7 11 33 57 60 103 26 45 68 118 95 163 47 81 59 103 122 214 18 33 53
93 77 133 24 41 43 78 43 83 0 5 4 9 9 9 5 0 14 12 20 28 6 15 15 34 21 42 17
25 100 170 100 175 0 2 41 71 90 154 50 83 90 153 90 155 0 3 32 59 71 123 39
65 75 127 80 138 5 11 13 27 19 35 15 22 125 212 133 230 4 8 16 29 27 45 11
17 23 37 27 45 20 39 92 165 150 261 34 59 63 112 63 118 0 6 3 11 8 11 4 0
18 21 32 48 13 26 56 101 95 167 39 66 74 127 78 135 4 8 13 24 19 35 23 34
54 88 93 160 108 199 161 249 290 275 33 7 92 19 130 27 39 7 93 18 121 22 28
5 61 14 72 20 11 6 37 11 56 11 19 0 55 6 78 13 24 8 79 22 123 31 44 10 96
21 115 26 19 5 105 23 190 40 85 18 187 39 225 47 39 8 90 19 115 23 44 7 91
18 180 40 25 6 68 15 96 20 28 4 61 13 72 19 11 6 34 11 49 11 16 0 62 11 103
25 90 29 85 29 104 9 11 -10 16 -33 16 -67 0 -28 7 -85 15 -127 8 -41 27 -136
41 -210 14 -74 32 -164 40 -200 8 -36 19 -85 24 -110 6 -24 15 -49 20 -54 6
-6 10 -21 10 -35 1 -15 9 -44 20 -66 11 -22 19 -52 20 -67 0 -23 -4 -28 -23
-28 -33 0 -185 -80 -254 -133 -183 -141 -290 -322 -348 -584 -20 -89 -17 -260
5 -338 56 -198 84 -262 161 -367 59 -78 153 -169 229 -219 84 -55 167 -99 187
-99 11 0 24 -5 30 -11 6 -6 29 -15 50 -20 21 -4 56 -12 78 -18 72 -19 297 -13
392 10 47 11 92 24 101 28 20 10 81 37 102 45 140 57 334 249 414 410 65 132
89 232 94 399 3 129 1 160 -18 235 -40 160 -90 263 -181 378 -140 176 -423
334 -599 334 -43 0 -57 15 -71 80 -4 19 -19 73 -32 120 -22 77 -50 193 -78
325 -6 28 -17 76 -25 107 -8 32 -14 73 -14 91 0 19 -7 56 -15 83 -8 27 -15 61
-15 76 0 15 -7 46 -16 68 -9 23 -14 44 -10 47 6 7 62 17 162 32 34 5 70 14 82
20 11 6 35 11 52 11 17 0 47 7 67 15 19 8 48 15 64 15 15 0 40 5 56 11 15 6
51 15 78 19 49 9 216 44 285 61 65 15 289 3 355 -19z"/>
<path d="M7255 8546 c-17 -7 -45 -30 -63 -50 -28 -32 -32 -43 -32 -95 0 -56 2
-61 43 -103 23 -23 67 -56 97 -71 30 -16 69 -37 85 -47 17 -11 37 -23 45 -27
18 -8 158 -89 180 -103 8 -6 22 -13 30 -17 8 -4 33 -18 55 -32 106 -68 147
-76 209 -43 43 23 57 38 79 85 21 47 22 79 1 120 -18 36 -53 77 -65 77 -5 0
-41 19 -81 43 -40 24 -80 46 -88 50 -8 4 -28 16 -45 27 -16 11 -39 24 -50 30
-11 6 -42 24 -70 41 -27 16 -63 37 -80 45 -16 8 -43 23 -60 34 -79 51 -133 61
-190 36z m144 -115 c20 -10 47 -24 61 -30 14 -6 34 -16 45 -23 11 -7 61 -38
112 -70 50 -31 113 -68 140 -82 26 -14 65 -41 87 -60 34 -31 37 -38 29 -63 -5
-15 -21 -34 -35 -42 -23 -13 -30 -12 -71 7 -26 12 -51 22 -56 22 -5 0 -22 11
-38 23 -15 13 -57 38 -93 55 -36 16 -80 42 -99 56 -18 14 -46 28 -61 31 -15 3
-42 21 -60 40 -19 19 -40 35 -47 35 -19 0 -35 37 -31 73 3 31 13 38 72 46 4 0
25 -7 45 -18z"/>
<path d="M8284 7951 c-92 -51 -121 -149 -68 -227 29 -43 27 -42 139 -103 44
-24 99 -56 123 -72 24 -16 45 -29 47 -29 3 0 39 -20 81 -45 41 -25 77 -45 79
-45 3 0 250 -144 275 -160 8 -6 22 -13 30 -17 8 -4 58 -32 110 -63 52 -31 102
-59 110 -63 8 -4 29 -16 45 -27 17 -11 37 -23 45 -27 8 -4 48 -26 88 -50 40
-24 75 -43 77 -43 2 0 60 -33 127 -73 68 -41 130 -76 138 -80 8 -4 22 -11 30
-17 21 -14 162 -95 180 -103 8 -4 29 -16 45 -27 17 -11 39 -24 50 -30 11 -6
43 -24 70 -41 105 -64 135 -73 185 -60 132 35 169 191 65 276 -23 19 -45 35
-49 35 -3 0 -24 11 -46 25 -22 14 -66 39 -97 56 -32 17 -110 62 -173 99 -182
107 -304 176 -320 184 -8 3 -28 15 -45 26 -16 11 -39 24 -50 30 -11 6 -33 19
-50 29 -16 11 -48 29 -70 41 -123 67 -151 84 -165 95 -8 6 -22 15 -30 19 -8 4
-24 12 -35 19 -11 7 -98 57 -194 112 -96 55 -195 112 -220 127 -25 16 -53 31
-61 35 -8 3 -31 16 -50 28 -19 12 -66 39 -105 60 -38 20 -77 43 -85 50 -8 6
-22 15 -30 19 -8 3 -33 17 -55 31 -47 29 -97 31 -141 6z m166 -128 c19 -12 42
-23 51 -23 9 0 22 -7 29 -15 7 -9 29 -23 49 -32 20 -10 87 -48 149 -85 62 -37
122 -70 132 -73 11 -4 20 -11 20 -16 0 -5 9 -9 20 -9 10 0 24 -9 30 -20 6 -11
19 -20 30 -20 10 0 22 -5 26 -11 4 -7 44 -29 89 -50 45 -21 88 -45 94 -53 7
-8 28 -20 47 -26 19 -7 39 -20 44 -31 6 -10 19 -19 30 -19 10 0 21 -4 24 -9 3
-5 26 -18 51 -30 25 -12 45 -25 45 -31 0 -5 18 -14 40 -20 22 -6 48 -19 57
-29 10 -11 63 -42 118 -71 55 -28 107 -60 117 -71 9 -10 21 -19 26 -19 14 0
154 -74 217 -115 77 -49 187 -113 215 -123 14 -6 40 -25 58 -42 38 -39 45 -92
13 -110 -35 -18 -71 -11 -147 33 -41 23 -87 49 -103 58 -16 8 -62 35 -102 59
-41 25 -90 52 -110 61 -20 9 -40 22 -43 28 -4 6 -15 11 -24 11 -10 0 -33 13
-53 29 -19 16 -50 36 -69 45 -19 9 -51 26 -70 37 -53 33 -192 109 -198 109 -2
0 -35 20 -73 45 -37 24 -98 61 -136 81 -37 20 -79 45 -92 55 -13 11 -28 19
-34 19 -6 0 -25 11 -43 25 -18 14 -37 25 -43 25 -10 0 -93 48 -196 114 -70 45
-81 51 -162 90 -40 20 -73 40 -73 46 0 5 -6 10 -12 10 -7 0 -47 22 -89 49 -73
47 -77 51 -81 90 -5 54 12 71 61 64 20 -4 52 -17 71 -30z"/>
<path d="M6894 7909 c-46 -13 -91 -69 -99 -123 -13 -84 21 -136 124 -192 25
-13 60 -33 76 -44 17 -10 41 -25 55 -33 50 -27 198 -113 327 -189 73 -43 135
-78 138 -78 3 0 38 -20 78 -43 39 -24 79 -47 87 -51 8 -3 29 -15 45 -26 17
-11 39 -24 50 -30 11 -6 34 -19 50 -29 17 -11 51 -31 76 -44 83 -46 123 -69
254 -147 111 -66 183 -107 289 -164 12 -6 39 -23 61 -37 22 -14 47 -29 55 -32
8 -4 35 -20 60 -35 25 -15 77 -45 115 -66 39 -22 130 -75 202 -118 73 -43 135
-78 138 -78 2 0 38 -20 78 -45 41 -25 78 -45 81 -45 4 0 22 -11 39 -24 18 -14
43 -30 57 -35 14 -6 39 -20 55 -30 17 -11 50 -31 75 -44 25 -14 61 -34 80 -46
19 -11 44 -25 55 -31 11 -6 34 -19 50 -30 17 -11 37 -23 45 -27 8 -4 44 -25
80 -46 105 -64 168 -60 239 15 28 30 31 40 31 96 0 53 -4 69 -27 99 -15 19
-36 39 -47 44 -12 6 -30 15 -41 22 -11 7 -69 41 -130 75 -112 64 -119 68 -190
112 -49 30 -59 36 -160 90 -44 24 -118 67 -165 95 -47 28 -92 54 -100 58 -8 4
-37 21 -65 38 -27 16 -63 37 -80 45 -16 8 -43 23 -60 34 -16 11 -39 24 -50 30
-11 6 -33 19 -50 30 -16 11 -37 23 -45 27 -8 4 -48 26 -88 50 -40 24 -74 43
-77 43 -2 0 -57 32 -122 71 -65 39 -127 75 -138 81 -11 5 -29 14 -40 21 -11 7
-52 30 -90 52 -39 22 -79 45 -90 52 -11 7 -29 17 -40 23 -11 6 -33 19 -50 30
-16 11 -37 23 -45 27 -8 3 -31 16 -50 28 -19 12 -66 39 -105 60 -38 20 -89 50
-113 66 -24 16 -45 29 -47 29 -3 0 -33 17 -68 39 -35 21 -99 58 -143 81 -43
23 -92 50 -109 61 -16 10 -39 23 -50 29 -11 6 -33 19 -50 30 -16 11 -37 23
-45 27 -8 4 -46 26 -85 48 -38 23 -77 45 -85 49 -24 11 -57 31 -71 43 -20 16
-99 23 -135 12z m134 -119 c18 -11 39 -20 46 -20 8 0 16 -4 18 -9 2 -4 23 -18
48 -30 25 -12 72 -39 105 -61 33 -21 101 -60 150 -86 50 -25 95 -52 101 -60 6
-8 16 -14 21 -14 5 0 18 -9 28 -20 10 -11 24 -20 31 -20 20 0 178 -89 187
-106 4 -8 16 -14 27 -14 10 0 20 -3 22 -7 2 -5 28 -21 58 -36 30 -15 73 -39
95 -52 22 -13 58 -34 80 -46 22 -12 51 -30 65 -39 14 -10 53 -33 85 -51 33
-17 65 -36 72 -41 12 -10 19 -13 163 -89 47 -25 109 -62 137 -82 29 -20 59
-37 67 -37 8 0 16 -7 20 -15 3 -8 13 -15 23 -16 10 0 30 -8 45 -17 150 -95
390 -236 443 -261 11 -5 35 -21 54 -35 19 -14 41 -26 48 -26 8 0 46 -21 84
-46 39 -25 85 -52 102 -60 18 -9 50 -26 72 -39 22 -14 67 -39 100 -56 33 -17
76 -43 95 -58 19 -15 53 -35 74 -44 21 -10 59 -34 82 -54 36 -29 44 -42 44
-68 0 -36 -12 -49 -51 -59 -18 -4 -31 -1 -39 9 -7 8 -20 15 -29 15 -9 0 -51
20 -95 45 -43 25 -82 45 -86 45 -4 0 -15 9 -25 20 -10 11 -23 20 -29 20 -7 0
-43 20 -81 45 -39 25 -73 45 -78 45 -4 0 -30 16 -57 35 -27 19 -56 35 -63 35
-8 0 -26 11 -41 25 -15 14 -39 28 -54 31 -15 4 -34 12 -42 19 -17 15 -93 58
-192 110 -38 19 -68 42 -68 50 0 9 -9 15 -23 15 -13 0 -32 9 -42 20 -9 10 -38
27 -64 37 -25 9 -79 38 -119 63 -75 47 -128 76 -222 125 -30 16 -67 39 -82 51
-15 12 -52 34 -83 48 -30 15 -74 40 -99 56 -24 17 -48 30 -52 30 -5 0 -27 14
-48 30 -22 17 -47 30 -57 30 -9 0 -22 7 -29 15 -7 8 -17 15 -22 15 -9 0 -83
45 -150 91 -15 11 -34 19 -42 19 -8 0 -18 5 -21 10 -4 6 -27 22 -53 35 -26 14
-60 34 -77 45 -44 28 -118 70 -194 108 -36 19 -68 38 -71 42 -3 4 -34 23 -68
41 -69 37 -76 41 -139 82 -24 15 -61 34 -83 43 -22 9 -40 20 -40 24 0 5 -22
23 -50 41 -57 37 -65 66 -27 105 27 29 52 30 95 4z"/>
<path d="M6492 7250 c-50 -36 -72 -76 -72 -130 0 -68 35 -117 115 -160 22 -11
49 -26 60 -33 76 -46 104 -63 130 -77 105 -58 209 -117 263 -151 34 -22 73
-44 85 -49 12 -6 29 -14 37 -20 35 -23 150 -89 215 -124 39 -21 77 -45 86 -52
8 -8 19 -14 22 -14 4 0 37 -18 73 -41 37 -22 77 -45 88 -50 12 -6 30 -15 41
-22 148 -88 221 -131 320 -187 33 -18 92 -52 130 -75 39 -22 77 -44 85 -48 8
-4 29 -16 45 -27 17 -11 36 -23 44 -26 7 -4 59 -33 114 -65 91 -53 108 -59
157 -59 65 0 101 20 136 76 31 51 31 104 0 152 -28 45 -36 52 -101 87 -27 14
-63 35 -80 46 -16 10 -37 22 -45 26 -17 8 -158 89 -180 103 -8 6 -24 14 -35
19 -11 5 -37 21 -58 35 -21 14 -40 26 -42 26 -2 0 -38 20 -78 45 -41 25 -77
45 -80 45 -4 0 -50 26 -104 58 -54 32 -105 62 -113 65 -8 4 -22 11 -30 17 -8
5 -62 37 -120 70 -58 33 -112 65 -120 70 -8 6 -22 13 -30 17 -8 4 -33 18 -55
32 -43 27 -50 32 -135 78 -30 17 -105 60 -167 97 -61 36 -115 66 -119 66 -4 0
-15 6 -23 14 -14 12 -55 35 -166 95 -16 9 -37 21 -45 27 -8 6 -41 26 -72 43
-75 41 -121 41 -176 1z m169 -98 c23 -18 41 -28 132 -74 21 -10 40 -25 44 -33
3 -8 12 -15 20 -15 8 0 45 -17 81 -37 37 -20 79 -43 94 -50 15 -8 30 -18 33
-23 3 -4 26 -18 52 -31 25 -12 54 -29 62 -36 29 -26 92 -63 106 -63 8 0 17 -5
21 -11 3 -6 21 -17 38 -24 17 -8 69 -36 116 -64 47 -28 88 -51 92 -51 7 0 101
-60 133 -85 10 -8 26 -15 35 -15 9 0 27 -11 40 -25 13 -14 33 -25 44 -25 17 0
88 -41 106 -60 12 -13 111 -70 123 -70 11 0 71 -36 187 -111 35 -22 59 -36
175 -99 33 -17 84 -50 113 -71 44 -34 52 -44 52 -73 0 -43 -25 -65 -67 -59
-18 3 -38 11 -44 19 -6 8 -19 14 -29 14 -9 0 -33 11 -52 24 -20 13 -60 36 -89
51 -30 14 -68 37 -86 51 -17 13 -38 24 -46 24 -9 0 -17 4 -19 8 -3 8 -53 38
-153 93 -33 17 -73 41 -89 53 -39 26 -97 56 -112 56 -6 0 -19 9 -29 20 -10 11
-22 20 -28 20 -5 0 -35 17 -66 38 -31 21 -84 53 -118 70 -35 17 -82 44 -105
59 -67 42 -139 82 -190 105 -27 11 -48 24 -48 29 0 5 -23 21 -52 36 -49 27
-131 72 -216 120 -21 12 -44 29 -51 37 -8 9 -20 16 -27 16 -21 0 -192 98 -249
143 -44 35 -50 44 -51 79 0 25 5 42 15 48 26 15 77 11 102 -8z"/>
<path d="M5860 6152 c-19 -9 -45 -24 -56 -32 -22 -15 -69 -91 -226 -365 -35
-60 -68 -119 -75 -130 -7 -11 -17 -29 -23 -40 -6 -11 -19 -33 -30 -50 -21 -34
-31 -51 -85 -150 -20 -38 -44 -77 -51 -86 -8 -8 -14 -19 -14 -23 0 -4 -24 -47
-53 -94 -99 -159 -109 -200 -69 -277 26 -52 37 -61 161 -131 57 -32 124 -71
150 -87 25 -15 71 -41 101 -57 30 -17 62 -35 70 -40 23 -15 163 -95 180 -103
8 -4 29 -16 45 -27 17 -11 39 -24 50 -30 11 -6 29 -16 40 -23 11 -7 58 -34
105 -60 47 -27 99 -57 115 -67 17 -11 37 -23 45 -27 8 -4 47 -26 86 -50 39
-24 74 -43 78 -43 3 0 61 -33 128 -73 68 -41 130 -77 138 -80 8 -4 29 -16 45
-27 17 -11 37 -23 45 -27 8 -4 47 -25 85 -48 39 -22 77 -44 85 -48 8 -4 29
-16 45 -27 17 -11 37 -23 45 -27 8 -4 59 -33 113 -65 54 -32 100 -58 102 -58
2 0 60 -34 129 -75 69 -41 128 -75 130 -75 4 0 198 -112 226 -130 8 -6 22 -13
30 -17 8 -4 42 -23 75 -43 33 -20 92 -54 130 -74 39 -21 89 -51 113 -67 24
-16 45 -29 47 -29 3 0 26 -13 53 -30 58 -35 114 -46 169 -31 42 12 97 57 114
95 6 12 15 30 22 41 7 11 33 57 60 103 26 45 68 118 95 163 47 81 59 103 122
214 18 33 52 92 75 130 22 39 44 77 48 85 4 8 16 29 27 45 11 17 24 39 30 50
6 11 24 43 41 70 76 125 89 187 53 256 -20 41 -70 88 -101 95 -13 4 -23 10
-23 14 0 4 -12 13 -27 19 -16 6 -35 15 -43 21 -21 14 -162 95 -180 103 -8 4
-28 16 -45 27 -16 11 -37 23 -45 27 -8 4 -47 26 -86 50 -39 24 -74 43 -77 43
-3 0 -59 32 -124 71 -65 39 -127 75 -138 81 -11 5 -29 14 -40 21 -11 7 -63 37
-115 67 -52 30 -104 60 -115 67 -11 7 -29 17 -40 23 -11 6 -33 19 -50 30 -16
11 -37 23 -45 27 -8 4 -48 26 -88 50 -41 24 -75 43 -77 43 -3 0 -46 25 -97 56
-50 31 -101 60 -113 65 -11 5 -27 13 -35 19 -22 15 -212 125 -230 133 -8 4
-28 16 -45 27 -16 11 -37 23 -45 27 -8 4 -46 26 -85 48 -38 23 -77 44 -85 48
-8 4 -22 11 -30 17 -51 33 -330 195 -465 269 -16 9 -49 29 -72 44 -24 15 -45
27 -47 27 -2 0 -49 26 -103 58 -104 62 -172 93 -201 91 -9 0 -33 -8 -52 -17z
m193 -142 c53 -27 112 -61 131 -75 18 -14 39 -25 46 -25 7 0 28 -11 46 -25 18
-14 64 -42 101 -62 37 -19 79 -44 92 -54 13 -11 28 -19 34 -19 6 0 18 -6 26
-14 9 -7 62 -37 118 -65 56 -29 105 -56 108 -62 4 -5 22 -16 41 -24 19 -8 34
-19 34 -24 0 -6 6 -11 13 -11 17 0 88 -38 112 -61 11 -10 40 -25 63 -33 23 -8
47 -20 54 -26 7 -6 56 -36 108 -67 52 -31 102 -62 110 -69 8 -7 27 -16 43 -19
15 -4 31 -13 35 -19 4 -7 45 -32 92 -56 47 -23 89 -49 93 -56 4 -8 15 -14 24
-14 9 0 24 -6 32 -14 9 -8 57 -35 106 -61 50 -26 95 -53 100 -60 6 -7 48 -32
95 -55 47 -23 88 -47 91 -51 7 -12 80 -49 95 -49 6 0 17 -7 24 -16 8 -8 30
-23 49 -33 81 -41 99 -52 111 -66 7 -8 18 -15 25 -15 7 0 18 -7 25 -15 7 -8
20 -15 29 -15 10 0 28 -11 41 -25 13 -14 31 -25 39 -25 9 -1 34 -12 56 -25 22
-14 51 -30 64 -35 14 -6 31 -19 38 -29 7 -10 25 -22 39 -25 15 -4 39 -16 52
-27 14 -10 29 -19 35 -19 21 0 134 -75 175 -116 29 -30 42 -52 42 -71 0 -35
-19 -90 -45 -128 -10 -17 -37 -64 -58 -105 -21 -41 -44 -82 -51 -90 -7 -8 -17
-27 -24 -42 -6 -16 -16 -28 -21 -28 -5 0 -12 -11 -15 -24 -3 -13 -21 -50 -40
-82 -19 -33 -45 -77 -57 -99 -12 -22 -35 -56 -50 -76 -16 -20 -29 -41 -29 -47
0 -11 -118 -218 -158 -276 -15 -21 -41 -45 -59 -52 -17 -8 -34 -18 -38 -24 -4
-6 -13 -7 -23 -1 -9 4 -33 11 -53 14 -20 3 -62 22 -95 44 -84 54 -83 54 -175
101 -46 24 -91 49 -99 56 -8 6 -33 20 -55 30 -21 10 -55 30 -75 44 -43 33 -65
47 -110 68 -19 10 -44 25 -55 34 -11 10 -31 20 -45 23 -14 4 -50 22 -80 41
-142 90 -170 106 -235 141 -38 20 -77 42 -85 48 -8 7 -36 23 -62 36 -27 13
-48 27 -48 31 0 4 -13 10 -29 13 -16 4 -38 15 -48 25 -10 10 -43 32 -73 47
-30 16 -62 34 -70 41 -8 6 -52 31 -98 55 -46 23 -85 46 -88 50 -2 4 -33 21
-68 38 -36 17 -67 35 -71 40 -3 6 -33 24 -66 40 -33 16 -67 35 -75 42 -17 14
-91 55 -161 89 -23 11 -45 25 -48 29 -3 5 -36 26 -73 47 -37 20 -71 43 -75 51
-4 7 -16 13 -27 13 -10 0 -31 11 -47 23 -15 13 -39 27 -53 30 -14 3 -54 26
-90 50 -36 23 -95 58 -132 77 -38 18 -68 39 -68 47 0 7 -10 13 -23 13 -12 0
-47 16 -77 36 -30 19 -71 44 -91 54 -62 33 -100 117 -74 166 8 16 15 35 15 42
0 7 18 42 40 78 22 36 40 70 40 74 0 5 10 21 23 37 12 15 31 46 42 68 11 22
30 54 42 71 13 17 23 38 23 47 0 9 6 20 13 24 7 4 28 37 46 73 19 36 53 95 77
132 24 37 52 87 63 112 11 24 27 46 36 50 8 3 15 14 15 25 0 22 66 125 101
158 22 19 46 28 89 32 8 0 59 -21 113 -49z"/>
<path d="M5952 5761 c-33 -19 -91 -80 -106 -111 -8 -17 -19 -35 -57 -95 -14
-22 -29 -47 -33 -55 -4 -8 -21 -37 -37 -65 -16 -27 -45 -82 -64 -121 -19 -39
-41 -77 -50 -84 -8 -7 -15 -20 -15 -29 0 -9 -9 -33 -20 -54 -44 -82 -9 -162
106 -238 38 -26 80 -50 94 -54 14 -4 36 -18 50 -30 14 -13 61 -42 105 -65 44
-23 87 -48 96 -56 8 -8 23 -14 33 -14 9 0 29 -11 44 -25 14 -13 60 -41 102
-61 41 -20 94 -50 117 -65 23 -16 46 -29 52 -29 12 0 98 -57 106 -71 4 -5 14
-9 24 -9 10 0 25 -7 32 -16 7 -9 37 -27 66 -40 29 -12 56 -30 59 -39 3 -8 14
-15 24 -15 9 0 37 -13 61 -30 24 -16 49 -30 55 -30 7 0 14 -6 17 -13 3 -7 22
-19 43 -25 22 -7 57 -26 79 -42 22 -16 59 -38 81 -49 23 -11 45 -24 48 -30 4
-6 14 -11 23 -11 9 0 25 -7 35 -17 23 -20 46 -34 125 -73 34 -17 67 -38 74
-46 6 -8 19 -14 29 -14 9 0 34 -13 55 -30 21 -16 44 -30 52 -30 7 0 16 -6 19
-14 3 -8 25 -21 49 -30 24 -10 49 -24 55 -32 7 -7 20 -14 30 -14 10 0 23 -7
30 -15 7 -8 35 -26 64 -39 28 -13 80 -43 116 -65 36 -23 84 -50 108 -61 23
-11 42 -23 42 -28 0 -5 15 -15 33 -22 17 -6 48 -20 68 -31 47 -24 149 -50 163
-42 48 30 170 187 198 256 4 9 26 44 48 77 22 32 40 64 40 71 0 6 14 34 30 61
17 26 30 52 30 57 0 4 9 16 20 26 11 10 20 25 20 34 0 9 7 26 15 39 9 12 18
43 22 70 5 44 3 51 -36 100 -23 28 -58 61 -79 72 -20 12 -66 37 -102 56 -36
20 -72 42 -81 50 -8 8 -20 14 -25 14 -5 0 -20 8 -34 18 -30 21 -122 75 -175
102 -22 11 -53 29 -70 40 -16 11 -48 29 -70 41 -22 12 -62 36 -90 54 -27 18
-77 47 -109 64 -131 71 -282 155 -305 170 -13 9 -36 24 -50 33 -14 10 -45 27
-68 38 -24 10 -43 23 -43 27 0 4 -21 16 -46 27 -25 10 -53 26 -62 36 -10 9
-29 20 -43 23 -14 4 -37 17 -50 29 -14 13 -49 34 -79 48 -30 14 -66 35 -81 47
-14 12 -71 43 -125 69 -55 26 -103 53 -107 60 -4 7 -27 23 -50 34 -56 28 -97
51 -167 94 -32 20 -62 36 -68 36 -5 0 -27 13 -48 28 -21 15 -57 36 -79 46 -22
11 -42 22 -45 26 -3 4 -21 15 -40 24 -19 9 -63 32 -98 51 -79 44 -135 52 -180
26z m119 -80 c71 -46 141 -89 184 -111 11 -6 34 -19 50 -29 17 -11 62 -36 100
-57 39 -20 77 -43 86 -50 8 -8 18 -14 22 -14 3 0 51 -27 105 -60 55 -33 104
-60 110 -60 6 0 12 -4 14 -8 2 -4 39 -28 83 -52 44 -24 89 -48 100 -55 11 -6
38 -22 60 -36 22 -14 47 -29 55 -33 8 -4 24 -12 35 -19 11 -7 51 -30 90 -52
38 -22 79 -45 90 -52 11 -7 27 -15 35 -19 8 -4 33 -19 55 -33 54 -34 67 -42
117 -70 113 -62 158 -87 223 -126 39 -23 77 -45 85 -49 8 -3 29 -15 45 -26 17
-11 37 -23 45 -27 8 -4 47 -26 85 -48 39 -23 77 -44 85 -48 8 -4 29 -16 45
-27 17 -11 39 -24 50 -30 11 -6 40 -23 65 -38 25 -15 77 -44 115 -66 39 -21
102 -58 141 -81 39 -23 92 -52 117 -63 26 -12 47 -25 47 -31 0 -5 -25 -47 -56
-93 -31 -45 -63 -96 -71 -113 -7 -16 -22 -43 -33 -60 -11 -16 -23 -37 -27 -45
-4 -8 -25 -46 -48 -85 -22 -38 -44 -77 -48 -85 -4 -8 -21 -37 -38 -65 -16 -27
-35 -62 -40 -78 -19 -49 -44 -53 -97 -14 -40 30 -97 63 -264 155 -18 10 -51
29 -73 43 -22 14 -47 28 -55 32 -8 4 -22 11 -30 17 -31 21 -220 130 -225 130
-3 0 -24 12 -48 27 -69 45 -78 50 -201 117 -38 21 -112 64 -165 95 -53 32
-103 61 -111 65 -8 4 -24 12 -35 19 -11 7 -51 30 -90 52 -38 22 -79 45 -90 52
-11 7 -29 17 -40 23 -11 6 -33 19 -50 30 -16 11 -37 23 -45 27 -8 4 -47 26
-86 50 -39 24 -74 43 -77 43 -3 0 -74 41 -156 90 -83 50 -153 90 -156 90 -2 0
-37 19 -77 43 -40 24 -80 46 -88 50 -8 4 -28 16 -45 27 -16 11 -39 24 -50 30
-11 6 -36 20 -55 31 -81 49 -195 110 -217 115 -33 9 -29 33 16 100 21 33 53
86 71 119 18 33 61 108 96 166 35 59 64 112 64 118 0 6 4 11 8 11 5 0 28 40
51 89 43 91 49 101 61 101 4 0 40 -22 81 -49z"/>
<path d="M9026 5813 c-87 -47 -121 -145 -76 -218 18 -29 80 -85 94 -85 3 0 27
-13 54 -29 26 -15 70 -41 98 -56 46 -26 153 -90 212 -127 78 -49 160 -46 216
8 90 87 63 210 -60 274 -26 14 -80 43 -118 66 -39 22 -78 43 -86 47 -8 4 -28
16 -45 27 -16 11 -39 24 -50 30 -11 6 -33 19 -50 30 -80 52 -137 62 -189 33z
m136 -106 c7 -7 30 -22 50 -33 117 -61 184 -97 188 -103 12 -15 71 -51 84 -51
33 0 86 -90 72 -125 -13 -34 -150 -7 -201 41 -14 13 -49 34 -77 46 -63 27
-165 94 -195 128 -13 14 -26 35 -29 48 -12 44 74 83 108 49z"/>
<path d="M9574 10089 c-28 -10 -69 -35 -91 -54 -23 -19 -46 -35 -51 -35 -5 0
-17 -10 -25 -22 -9 -13 -33 -42 -54 -65 -21 -23 -46 -59 -57 -80 -10 -21 -29
-59 -42 -84 -13 -26 -24 -55 -24 -66 0 -10 -5 -24 -12 -31 -18 -18 -18 -336 0
-353 6 -7 12 -24 12 -37 0 -28 67 -169 92 -194 10 -10 18 -22 18 -26 0 -8 71
-82 122 -127 38 -33 203 -113 259 -125 112 -24 182 -28 268 -13 85 14 179 42
203 60 7 5 33 19 57 31 64 31 164 123 215 200 52 77 83 177 73 233 -12 62 -83
109 -224 148 -23 6 -48 17 -55 24 -7 7 -32 25 -56 40 -86 56 -216 203 -274
309 -10 17 -22 36 -28 42 -5 5 -10 16 -10 23 0 7 -16 33 -35 59 -19 25 -38 56
-41 69 -3 13 -25 40 -49 60 -37 30 -51 35 -92 34 -26 0 -71 -9 -99 -20z m150
-51 c9 -12 16 -29 16 -36 0 -8 6 -28 14 -45 8 -18 17 -39 20 -47 3 -8 15 -28
26 -45 11 -16 24 -39 29 -50 20 -45 111 -174 167 -238 65 -74 186 -169 250
-197 58 -25 159 -50 204 -50 23 0 40 -5 43 -14 6 -16 -2 -56 -12 -56 -3 0 -17
-24 -31 -52 -70 -151 -200 -268 -360 -323 -167 -57 -394 -28 -535 69 -202 138
-310 381 -272 612 32 190 172 375 354 469 59 30 68 31 87 3z"/>
<path d="M10171 10071 c-16 -10 -5 -23 74 -85 102 -80 225 -231 225 -276 0
-11 5 -20 10 -20 34 0 21 121 -19 180 -37 55 -139 160 -155 160 -8 0 -19 6
-25 14 -6 8 -24 16 -39 18 -15 3 -34 8 -42 11 -8 4 -21 3 -29 -2z"/>
<path d="M10100 9993 c0 -84 106 -241 204 -304 53 -33 136 -42 136 -14 0 9 -8
19 -17 22 -57 22 -156 111 -199 179 -10 16 -38 49 -61 74 -24 25 -43 51 -43
58 0 6 -4 12 -10 12 -5 0 -10 -12 -10 -27z"/>
</g>
</svg>
