<?xml version="1.0" standalone="no"?>
<!DOCTYPE svg PUBLIC "-//W3C//DTD SVG 20010904//EN"
 "http://www.w3.org/TR/2001/REC-SVG-20010904/DTD/svg10.dtd">
<svg version="1.0" xmlns="http://www.w3.org/2000/svg"
 width="1536.000000pt" height="1536.000000pt" viewBox="0 0 1536.000000 1536.000000"
 preserveAspectRatio="xMidYMid meet">
<metadata>
Created by potrace 1.10, written by Peter Selinger 2001-2011
</metadata>
<g transform="translate(0.000000,1536.000000) scale(0.100000,-0.100000)"
fill="#a6a6a6" stroke="none">
<path d="M5780 15320 c-9 -6 -45 -8 -90 -5 -95 7 -223 -26 -309 -79 -33 -20
-62 -36 -66 -36 -13 0 -120 -88 -167 -136 -26 -27 -66 -74 -88 -104 -50 -66
-120 -204 -120 -234 0 -12 -5 -27 -12 -34 -13 -13 -27 -85 -36 -195 l-7 -78
-2130 -2 -2130 -2 -47 -27 c-25 -15 -61 -47 -80 -70 l-33 -42 0 -5676 0 -5676
33 -42 c19 -23 55 -55 80 -70 l47 -27 383 -1 384 0 1 -396 2 -396 41 -48 c22
-27 61 -59 85 -71 l44 -23 5650 3 c5002 2 5653 4 5675 17 49 30 71 49 98 87
l27 38 3 5610 c2 3086 0 5642 -3 5681 -6 66 -10 75 -51 122 -29 34 -54 52 -68
52 -12 0 -28 6 -35 13 -9 9 -102 12 -392 12 l-381 0 -1 391 c-2 358 -4 394
-19 411 -10 11 -18 24 -18 29 0 15 -50 59 -90 80 -34 18 -117 19 -2625 19
-1715 0 -2592 3 -2597 10 -4 6 -8 35 -8 65 -1 62 -20 164 -38 197 -7 12 -12
30 -13 40 0 10 -11 38 -24 63 -13 25 -34 68 -48 95 -22 43 -57 89 -136 180
-10 11 -47 44 -84 74 -141 115 -320 185 -460 179 -39 -2 -85 0 -102 5 -17 4
-36 3 -45 -3z m89 -60 c20 -11 59 -28 86 -39 214 -82 292 -123 387 -202 57
-49 144 -161 183 -239 34 -68 75 -193 75 -231 0 -73 62 -180 134 -232 l31 -22
2561 -5 c2543 -5 2562 -5 2584 -25 53 -48 55 -57 61 -405 3 -226 9 -334 18
-355 13 -32 83 -109 116 -128 13 -7 136 -13 362 -17 325 -5 344 -7 370 -26 15
-12 35 -34 43 -50 13 -26 15 -669 15 -5614 0 -5451 0 -5586 -19 -5623 -10 -21
-33 -46 -50 -55 -29 -16 -371 -17 -5621 -17 -5250 0 -5592 1 -5621 17 -65 35
-68 57 -74 418 l-5 325 -27 45 c-37 62 -86 106 -133 119 -25 7 -158 11 -348
11 -332 0 -336 1 -387 55 l-25 27 0 5596 c0 4956 2 5600 15 5626 8 16 28 39
43 50 l28 21 2087 5 2087 5 37 23 c75 47 118 118 133 222 24 161 117 341 235
454 94 89 182 139 390 220 36 14 83 34 105 45 51 26 78 26 124 1z"/>
<path d="M5685 14991 c-93 -24 -116 -34 -184 -80 -116 -79 -213 -210 -251
-341 -28 -93 -19 -136 41 -203 65 -75 79 -77 524 -77 447 0 450 0 516 83 58
73 61 86 44 170 -19 93 -63 175 -138 260 -93 105 -194 166 -320 193 -88 18
-145 17 -232 -5z m215 -115 c96 -20 169 -60 238 -130 55 -55 122 -164 122
-197 0 -7 8 -36 17 -65 9 -30 14 -56 11 -60 -8 -7 -947 -8 -955 -1 -10 10 28
147 53 190 13 23 27 49 30 57 12 25 163 170 178 170 8 0 27 6 43 14 64 33 170
42 263 22z"/>
<path d="M950 14065 c-38 -13 -90 -60 -126 -114 l-29 -45 -3 -4470 c-1 -2459
1 -4851 5 -5316 l8 -845 34 -47 c19 -26 52 -60 74 -75 l40 -28 211 3 c116 1
2497 4 5291 7 2794 2 5095 7 5113 10 18 3 36 13 39 21 3 7 13 14 23 14 26 0
66 58 87 126 17 57 18 254 18 5314 0 5108 -1 5256 -19 5302 -11 28 -38 65 -65
90 -46 43 -46 43 -141 49 -126 9 -5939 9 -6054 0 -56 -4 -91 -11 -94 -19 -2
-6 -18 -19 -36 -27 -18 -9 -44 -30 -57 -48 l-24 -32 -3 -478 c-2 -288 1 -500
7 -532 14 -76 75 -201 129 -264 63 -74 148 -139 203 -155 26 -8 62 -22 80 -32
27 -14 58 -18 149 -18 99 0 121 3 157 22 23 12 50 22 59 22 30 0 143 80 196
139 27 31 64 85 80 121 17 36 39 82 49 102 10 20 23 69 29 108 6 39 14 79 19
88 32 59 118 90 164 59 14 -9 34 -35 47 -59 19 -36 22 -53 17 -108 -21 -238
-177 -492 -378 -615 -65 -40 -149 -78 -202 -91 -34 -9 -70 -20 -79 -25 -25
-14 -231 -13 -308 0 -36 7 -87 21 -115 32 -101 41 -185 82 -185 90 0 4 -20 19
-44 33 -58 34 -168 155 -211 232 -51 90 -91 192 -103 265 -7 39 -11 244 -12
533 -1 449 -2 471 -20 502 -11 17 -20 38 -20 46 0 8 -22 35 -49 60 l-50 46
-133 6 c-238 11 -3736 12 -3768 1z m3933 -647 c2 -486 4 -539 21 -603 10 -38
23 -74 27 -79 5 -6 9 -19 9 -29 0 -33 89 -188 153 -267 109 -133 270 -247 407
-286 30 -9 64 -21 75 -27 21 -11 175 -30 235 -30 67 1 215 20 235 30 11 6 47
19 80 29 33 10 82 31 108 46 26 15 51 28 56 28 16 0 168 129 212 181 85 99
179 262 179 309 0 11 7 31 14 43 8 12 23 77 33 144 15 104 15 130 5 170 -17
63 -48 107 -97 140 -55 37 -161 44 -227 15 -58 -25 -114 -94 -121 -147 -21
-163 -31 -204 -62 -269 -49 -104 -138 -188 -233 -221 -26 -9 -56 -21 -66 -27
-35 -18 -205 -11 -264 11 -159 59 -277 190 -310 341 -8 37 -12 212 -13 543
l-2 487 3147 0 3146 1 0 -5347 c0 -2941 -2 -5349 -3 -5351 -2 -2 -2412 -3
-5355 -3 l-5352 0 0 5347 c0 2942 0 5350 0 5353 0 3 891 4 1981 3 l1980 -2 2
-533z"/>
<path d="M1403 13843 c-10 -38 -10 -10438 0 -10485 4 -21 12 -38 16 -38 12 0
37 66 46 119 4 25 7 2009 6 4410 0 2401 0 4524 0 4716 2 375 2 469 -1 920 -2
242 -5 297 -18 334 -20 53 -39 62 -49 24z"/>
<path d="M2949 10681 c-58 -12 -103 -46 -134 -103 -65 -118 -22 -263 93 -320
l47 -23 1115 0 1115 0 48 32 c26 17 60 48 74 70 24 34 27 48 27 124 0 76 -3
91 -25 125 -15 22 -46 53 -69 69 l-43 30 -1106 1 c-608 1 -1122 -1 -1142 -5z
m2210 -118 c27 -13 40 -28 50 -59 25 -72 -7 -126 -92 -151 -65 -19 -2084 -19
-2131 1 -71 30 -97 107 -57 172 18 29 48 45 106 57 11 2 485 2 1054 1 967 -3
1035 -4 1070 -21z"/>
<path d="M5967 10679 c-47 -11 -80 -36 -121 -91 -29 -39 -31 -49 -31 -123 0
-74 3 -85 33 -132 24 -37 47 -59 80 -75 l47 -23 880 0 880 0 47 23 c78 38 118
109 118 207 0 105 -66 194 -158 214 -65 14 -1717 14 -1775 0z m948 -95 c396
-1 741 -5 766 -8 39 -5 51 -12 73 -44 31 -45 33 -85 6 -129 -36 -60 2 -58
-830 -63 -747 -5 -875 -2 -934 22 -33 13 -71 87 -62 121 8 33 56 87 77 87 10
0 21 5 24 10 4 6 23 7 45 4 21 -4 46 -1 56 5 11 6 28 8 39 4 11 -3 344 -7 740
-9z"/>
<path d="M8527 10679 c-139 -33 -201 -221 -114 -352 27 -41 77 -75 130 -87 24
-5 254 -10 528 -10 551 0 561 1 628 70 29 30 43 56 54 103 15 59 15 68 0 123
-22 76 -79 136 -145 152 -56 14 -1021 15 -1081 1z m1032 -109 c98 -31 109
-158 18 -207 -29 -17 -72 -18 -507 -18 -435 0 -478 2 -512 18 -48 23 -68 52
-68 98 0 41 40 99 68 99 10 0 24 6 34 13 25 19 905 16 967 -3z"/>
<path d="M2895 9265 c-92 -57 -134 -169 -100 -269 23 -68 49 -100 105 -130
l48 -26 417 0 417 0 48 26 c61 33 86 68 107 147 16 59 16 66 -1 116 -22 69
-50 106 -102 136 l-43 25 -428 0 -428 -1 -40 -24z m823 -91 c77 -10 113 -60
103 -141 -3 -19 -42 -57 -74 -71 -30 -13 -695 -18 -757 -6 -45 10 -91 74 -83
117 12 67 57 103 138 109 72 6 619 0 673 -8z"/>
<path d="M4519 9261 c-25 -16 -54 -41 -64 -57 -29 -44 -42 -130 -30 -189 17
-83 41 -115 117 -155 36 -19 62 -20 919 -20 l881 0 50 27 c74 41 108 104 108
203 0 65 -4 81 -29 121 -17 27 -48 57 -74 73 l-46 26 -893 0 -893 0 -46 -29z
m1769 -92 c83 -19 111 -73 81 -157 -21 -62 -19 -62 -908 -62 -439 0 -814 5
-835 10 -55 12 -78 39 -83 97 -6 67 23 102 99 117 80 16 1573 11 1646 -5z"/>
<path d="M7562 9273 c-87 -43 -137 -162 -111 -267 16 -64 49 -108 104 -141
l44 -25 1001 0 c963 0 1002 1 1038 19 60 30 90 68 112 139 19 62 20 67 3 126
-19 72 -39 101 -96 138 l-42 28 -1010 0 c-912 0 -1013 -2 -1043 -17z m1963
-98 c66 -11 72 -14 98 -48 23 -31 24 -36 13 -79 -6 -25 -17 -52 -24 -60 -29
-36 -84 -38 -1025 -38 -997 0 -979 -1 -1004 52 -31 64 -19 134 28 158 11 6 57
14 102 18 109 9 1761 7 1812 -3z"/>
<path d="M2947 7885 c-102 -28 -161 -110 -161 -220 1 -89 42 -159 115 -196
l54 -29 636 0 c672 0 673 0 736 47 56 43 76 88 76 178 1 70 -3 86 -26 127 -64
107 -66 107 -787 107 -459 -1 -606 -4 -643 -14z m1268 -118 c38 -22 85 -78 85
-102 0 -24 -79 -102 -110 -108 -16 -4 -286 -7 -600 -7 -547 -1 -571 0 -614 19
-35 15 -49 28 -61 58 -9 21 -13 48 -10 60 9 37 57 84 95 93 19 4 292 8 605 9
l570 1 40 -23z"/>
<path d="M5510 7886 c-87 -21 -137 -76 -159 -171 -20 -84 20 -192 83 -230 77
-47 19 -45 1306 -45 1287 0 1229 -2 1306 45 66 40 101 144 79 236 -22 97 -70
146 -163 167 -74 17 -2386 15 -2452 -2z m2430 -111 c7 -8 21 -15 31 -15 34 0
50 -99 24 -149 -30 -58 25 -56 -1260 -56 -1171 0 -1180 0 -1215 20 -40 24 -57
70 -46 129 6 30 15 40 54 61 l47 24 1177 0 c1022 0 1178 -2 1188 -14z"/>
<path d="M8769 7886 c-118 -29 -183 -139 -158 -269 13 -72 51 -122 115 -152
l53 -25 397 0 c285 0 408 3 438 12 62 19 119 81 139 154 16 56 16 63 0 119
-28 100 -64 136 -159 161 -70 18 -752 18 -825 0z m801 -115 c52 -28 70 -53 70
-95 0 -54 -33 -101 -83 -116 -43 -13 -682 -17 -732 -4 -45 11 -69 30 -93 72
l-21 38 20 42 c22 43 50 67 90 75 13 3 182 4 374 3 276 -1 355 -4 375 -15z"/>
<path d="M2935 6493 c-22 -6 -83 -49 -103 -73 -20 -25 -40 -76 -47 -122 -13
-83 41 -188 116 -227 38 -20 55 -21 464 -21 409 0 426 1 464 21 50 26 85 71
107 139 17 51 17 58 1 117 -19 74 -36 99 -92 139 l-40 29 -425 2 c-234 0 -434
-1 -445 -4z m795 -112 c63 -13 101 -56 93 -108 -7 -52 -27 -79 -71 -101 -34
-18 -66 -19 -357 -21 -194 0 -341 3 -373 10 -66 13 -100 42 -112 94 -8 35 -6
45 17 77 19 28 36 40 67 47 52 11 676 13 736 2z"/>
<path d="M4544 6483 c-48 -28 -68 -45 -94 -83 -21 -30 -24 -45 -25 -125 0 -78
3 -95 24 -129 13 -21 45 -51 70 -67 l45 -29 547 0 547 0 48 33 c63 42 99 109
99 187 0 75 -40 154 -97 195 l-43 30 -545 3 c-506 2 -547 1 -576 -15z m1045
-103 c61 -11 105 -60 97 -108 -7 -48 -30 -79 -76 -102 -38 -19 -58 -20 -484
-20 -382 0 -452 2 -493 16 -73 25 -92 47 -91 108 0 31 7 58 17 70 38 44 52 45
531 45 250 0 475 -4 499 -9z"/>
<path d="M6895 6493 c-32 -8 -84 -48 -111 -84 -80 -109 -42 -279 76 -339 39
-20 61 -20 1395 -20 l1356 0 43 25 c54 32 78 66 99 141 17 59 17 63 -3 127
-16 53 -29 73 -65 105 -28 25 -59 42 -82 46 -45 7 -2679 6 -2708 -1z m2706
-139 c23 -23 33 -44 36 -77 5 -41 2 -49 -24 -75 -19 -20 -47 -33 -82 -41 -38
-8 -403 -11 -1301 -11 -1210 1 -1248 1 -1285 20 -64 33 -75 48 -75 105 0 59
18 82 79 102 26 8 375 11 1328 10 l1293 -2 31 -31z"/>
<path d="M12152 13111 c-46 -6 -59 -13 -98 -54 -25 -25 -49 -61 -55 -79 -5
-20 -9 -1939 -9 -4999 0 -4360 -2 -4971 -15 -5002 -8 -19 -29 -46 -47 -59
l-33 -23 -4985 -5 c-4817 -5 -4986 -6 -5025 -23 -22 -11 -53 -31 -68 -45 -53
-50 -59 -73 -64 -251 -6 -200 1 -238 61 -297 36 -36 50 -43 101 -50 33 -5
2162 -9 4730 -9 5388 0 5855 1 5893 17 49 21 92 69 92 102 0 17 8 45 18 61 16
28 17 306 17 5280 0 4984 -1 5251 -17 5275 -10 13 -18 38 -18 54 0 34 -54 90
-97 100 -43 10 -321 15 -381 7z m408 -5437 c0 -2948 0 -5363 0 -5368 0 -5 -18
-6 -40 -2 -50 8 -10607 8 -10636 0 -12 -3 -25 0 -29 7 -12 19 -12 469 0 469 6
0 2271 0 5035 0 4848 0 5026 1 5065 19 49 22 96 68 119 115 15 32 16 401 16
5073 0 2771 0 5040 0 5043 0 3 106 4 235 4 l235 -1 0 -5359z"/>
</g>
</svg>
