<?xml version="1.0" standalone="no"?>
<!DOCTYPE svg PUBLIC "-//W3C//DTD SVG 20010904//EN"
 "http://www.w3.org/TR/2001/REC-SVG-20010904/DTD/svg10.dtd">
<svg version="1.0" xmlns="http://www.w3.org/2000/svg"
 width="1500.000000pt" height="1500.000000pt" viewBox="0 0 1500.000000 1500.000000"
 preserveAspectRatio="xMidYMid meet">
<metadata>
Created by potrace 1.10, written by Peter Selinger 2001-2011
</metadata>
<g transform="translate(0.000000,1500.000000) scale(0.100000,-0.100000)"
fill="#d6d6d6" stroke="none">
<path d="M9780 13844 c-15 -7 -30 -20 -34 -30 -4 -11 -6 -248 -5 -529 l2 -510
-509 -2 c-280 -1 -516 -2 -524 -3 -9 0 -24 -16 -34 -35 -18 -33 -19 -50 -10
-323 11 -353 12 -2469 1 -2497 -7 -19 -17 -20 -140 -20 l-132 0 -1 957 c-1
864 -3 958 -18 979 -9 13 -16 38 -16 55 0 17 -7 37 -15 44 -8 7 -15 23 -15 35
0 13 -4 25 -8 27 -5 2 -28 37 -53 78 -57 97 -218 261 -329 335 -79 52 -85 55
-102 61 -10 4 -18 10 -18 15 0 5 -15 15 -32 24 -37 16 -111 57 -130 72 -7 5
-33 18 -58 28 -25 11 -51 25 -58 32 -7 7 -22 13 -32 13 -10 0 -21 4 -24 9 -4
5 -24 12 -46 16 -22 4 -50 15 -64 26 -13 10 -29 19 -36 19 -20 0 -110 32 -116
41 -3 5 -17 9 -32 9 -15 0 -36 7 -46 15 -11 8 -32 15 -47 15 -14 0 -32 7 -39
15 -7 8 -24 15 -39 15 -15 0 -35 6 -46 14 -11 7 -36 16 -55 19 -72 11 -131 27
-160 42 -17 9 -40 13 -51 10 -11 -4 -30 0 -44 9 -13 9 -41 16 -62 16 -21 0
-46 7 -56 15 -12 8 -31 11 -51 8 -18 -3 -54 2 -80 11 -27 9 -56 14 -65 11 -9
-3 -41 3 -70 14 -33 12 -68 17 -92 14 -23 -4 -49 1 -70 11 -18 9 -57 16 -89
16 -32 0 -77 7 -100 15 -23 8 -75 15 -114 15 -39 0 -87 5 -106 11 -19 6 -105
14 -190 20 -85 5 -193 13 -240 18 -112 13 -955 13 -1045 1 -38 -6 -142 -14
-230 -19 -88 -5 -173 -14 -188 -20 -16 -6 -58 -11 -95 -11 -37 0 -85 -7 -107
-15 -22 -8 -70 -14 -106 -15 -40 0 -79 -6 -98 -16 -21 -11 -45 -14 -68 -11
-25 4 -50 0 -80 -14 -33 -15 -55 -19 -83 -14 -28 5 -47 1 -75 -14 -29 -15 -43
-17 -63 -10 -19 7 -34 5 -65 -12 -25 -12 -51 -19 -66 -16 -15 3 -35 -1 -45 -9
-11 -8 -39 -14 -62 -14 -24 0 -45 -4 -48 -9 -3 -5 -26 -12 -51 -15 -24 -4 -47
-11 -50 -17 -4 -5 -23 -9 -44 -9 -22 0 -44 -6 -51 -15 -7 -8 -27 -15 -44 -15
-17 0 -40 -7 -50 -15 -11 -8 -29 -15 -40 -15 -12 0 -30 -7 -40 -15 -11 -8 -29
-15 -40 -15 -12 0 -30 -7 -40 -15 -11 -8 -30 -15 -42 -15 -13 0 -26 -4 -29
-10 -3 -5 -17 -10 -29 -10 -13 0 -35 -9 -49 -20 -14 -11 -32 -20 -40 -20 -35
0 -149 -52 -285 -130 -9 -6 -24 -13 -32 -17 -14 -6 -101 -60 -145 -90 -11 -7
-38 -25 -60 -40 -70 -46 -211 -173 -251 -225 -21 -28 -43 -56 -49 -62 -28 -30
-65 -86 -65 -99 0 -8 -7 -20 -15 -27 -9 -7 -14 -18 -12 -24 3 -6 -1 -22 -8
-36 -21 -39 -48 -139 -42 -153 3 -8 0 -36 -5 -63 -13 -64 -19 -3249 -6 -3319
5 -27 9 -70 9 -94 0 -24 6 -56 14 -72 8 -15 15 -36 15 -47 0 -10 11 -42 25
-70 14 -29 25 -54 25 -56 0 -9 63 -100 109 -159 41 -51 178 -175 242 -217 12
-8 36 -26 53 -40 36 -29 59 -44 101 -65 17 -8 57 -30 90 -50 33 -19 67 -38 75
-41 25 -10 122 -54 185 -85 33 -16 67 -29 76 -29 9 0 22 -7 29 -15 7 -8 23
-15 35 -15 13 0 36 -6 52 -14 43 -22 134 -56 150 -56 7 0 25 -7 38 -16 13 -9
32 -13 43 -10 10 3 27 -1 38 -9 10 -8 35 -15 54 -15 19 0 48 -7 64 -15 15 -8
40 -15 55 -15 15 0 35 -6 46 -14 11 -7 38 -16 60 -19 22 -3 60 -10 85 -17 85
-22 135 -33 180 -40 25 -4 58 -12 73 -19 16 -6 46 -11 67 -11 21 0 84 -10 141
-22 57 -12 138 -22 181 -23 42 0 79 -3 83 -7 4 -3 8 -316 11 -695 2 -378 8
-702 13 -720 7 -23 6 -37 -4 -50 -19 -26 -37 -5 -46 54 -5 27 -15 86 -23 133
-9 47 -19 119 -22 160 -4 41 -13 84 -20 95 -8 11 -14 38 -14 60 -1 22 -7 51
-15 65 -8 14 -14 37 -15 53 0 15 -13 55 -29 90 -16 34 -37 80 -46 102 -10 22
-21 42 -25 45 -4 3 -20 30 -35 60 -37 74 -186 244 -249 285 -28 18 -60 42 -70
54 -11 11 -23 21 -28 21 -5 0 -27 12 -51 27 -82 54 -79 52 -147 79 -19 8 -48
21 -63 29 -16 8 -33 12 -38 9 -6 -3 -21 1 -34 10 -13 9 -44 16 -67 16 -24 0
-56 7 -72 15 -33 17 -58 19 -72 5 -7 -7 -46 -6 -118 1 -93 9 -110 9 -131 -5
-13 -9 -34 -16 -46 -16 -33 0 -153 -85 -203 -143 -53 -63 -96 -141 -96 -176 0
-14 -7 -35 -15 -45 -20 -27 -20 -171 0 -206 8 -14 14 -34 15 -46 0 -24 45
-114 87 -175 56 -80 173 -266 202 -319 32 -60 41 -81 41 -103 0 -13 7 -30 15
-37 10 -8 15 -31 15 -66 0 -29 5 -65 11 -81 6 -15 11 -54 11 -86 -1 -32 4 -71
10 -85 6 -15 12 -65 13 -112 1 -47 10 -121 19 -164 9 -44 14 -92 11 -107 -4
-15 1 -48 10 -75 9 -26 15 -68 14 -93 0 -25 4 -64 10 -86 6 -22 11 -58 11 -80
0 -22 7 -49 15 -59 8 -11 15 -34 15 -51 0 -17 7 -40 15 -51 8 -10 15 -31 15
-46 0 -15 4 -29 9 -32 5 -4 19 -27 32 -54 12 -26 34 -65 48 -87 14 -22 34 -55
44 -74 10 -18 22 -38 28 -45 5 -6 38 -47 73 -91 35 -44 146 -161 246 -260 100
-99 187 -189 193 -200 9 -14 12 -155 12 -503 l0 -484 28 -24 28 -24 1599 0
c1484 0 1600 1 1628 17 28 16 30 20 35 102 3 47 4 272 3 500 -2 289 1 421 8
435 17 32 49 79 64 95 29 30 152 201 152 211 0 6 6 13 14 16 13 5 106 135 106
149 0 4 13 24 28 44 16 20 39 63 51 96 13 33 29 73 37 88 8 16 14 41 14 55 0
15 7 36 15 46 8 11 15 38 15 61 0 23 6 47 13 53 9 10 13 290 15 1315 3 1193 4
1303 19 1319 9 11 23 16 30 14 8 -3 30 3 51 14 20 11 49 20 64 20 15 0 29 4
32 9 3 5 20 12 38 15 18 3 42 8 53 10 22 4 211 82 235 97 8 5 22 12 30 15 8 3
22 9 30 14 8 5 58 30 110 56 84 41 189 106 330 205 80 56 290 282 290 312 0 3
13 26 29 49 16 24 33 56 36 71 4 15 11 30 16 33 5 3 9 16 9 30 0 14 7 39 17
57 14 29 16 93 17 614 1 320 4 584 8 588 7 7 20 7 124 -1 50 -4 88 -2 100 4
47 25 46 54 43 -984 -1 -538 -3 -1177 -3 -1419 l-1 -439 35 -24 c26 -17 43
-22 65 -17 17 3 243 9 503 12 394 4 472 3 473 -8 0 -8 0 -242 -1 -521 -1 -500
-1 -507 19 -527 l21 -21 1266 2 1267 3 19 25 c18 24 18 69 18 1268 0 751 -4
1250 -9 1261 -19 34 -152 56 -179 29 -9 -9 -15 -9 -24 0 -16 16 -249 17 -266
0 -9 -9 -17 -9 -36 1 -18 10 -63 11 -197 6 -194 -9 -215 -9 -277 1 -28 4 -47
2 -58 -6 -11 -10 -19 -10 -37 -1 -16 9 -59 11 -143 7 -65 -2 -126 -4 -134 -4
-8 0 -96 2 -194 4 -117 3 -183 1 -190 -6 -12 -12 -49 -13 -60 -2 -4 4 -179 7
-389 7 -369 0 -383 -1 -400 -20 -16 -19 -17 -58 -16 -530 0 -280 0 -517 0
-525 -1 -13 -40 -15 -303 -13 -165 1 -307 4 -314 7 -11 4 -14 218 -14 1205 0
659 2 1205 5 1213 5 12 48 14 281 10 203 -3 283 -1 305 8 16 7 32 10 36 7 3
-4 5 -238 4 -521 -2 -338 1 -521 8 -534 19 -37 62 -45 198 -38 71 3 155 11
188 17 95 18 1144 22 1645 6 234 -7 450 -11 479 -8 99 11 91 -114 91 1304 l0
1237 -21 21 -21 21 -1266 -1 c-1253 -1 -1266 -2 -1284 -21 -18 -19 -19 -46
-18 -528 1 -279 1 -511 1 -517 -1 -11 -603 -11 -620 0 -7 4 -11 402 -11 1210
l0 1204 303 3 c167 2 310 2 318 0 12 -2 14 -80 11 -517 l-3 -515 26 -24 27
-25 1240 0 c1333 -1 1280 -3 1308 48 6 13 10 440 10 1267 0 1108 -1 1249 -15
1270 -9 13 -23 24 -33 24 -1338 6 -2499 3 -2522 -6z m2500 -91 c0 -16 -6 -46
-13 -68 -9 -27 -12 -82 -10 -170 2 -71 3 -161 1 -200 -1 -38 -1 -122 0 -185 0
-63 1 -151 0 -195 0 -44 0 -138 0 -210 0 -71 0 -164 0 -205 -1 -41 0 -131 0
-200 1 -69 1 -156 0 -195 -1 -116 0 -337 2 -390 2 -27 -1 -100 -5 -161 -6 -89
-4 -123 9 -178 22 -88 15 -97 -58 -72 -47 16 -72 18 -193 11 -76 -4 -158 -6
-183 -4 -39 2 -217 3 -405 1 -33 0 -130 0 -215 0 -85 0 -182 0 -215 0 -33 0
-132 0 -220 0 -88 0 -185 0 -215 0 -30 -1 -118 -1 -195 0 -77 0 -171 0 -210
-1 -59 -1 -235 3 -312 8 -21 1 -23 6 -23 55 0 48 3 57 28 74 15 10 34 22 42
25 12 4 12 6 -2 6 -29 2 -51 58 -43 110 3 25 6 114 5 196 0 83 0 173 0 200 1
28 1 75 1 105 0 30 0 94 0 142 1 152 -23 182 -136 172 -132 -11 -232 -23 -256
-29 -16 -4 -36 -2 -50 6 -26 14 -328 22 -350 9 -21 -13 -33 -111 -32 -250 1
-74 2 -164 1 -200 0 -80 0 -301 1 -395 0 -63 0 -163 -1 -410 0 -44 0 -137 0
-207 0 -135 1 -203 0 -400 0 -68 1 -148 1 -178 1 -30 0 -164 -2 -297 -2 -133
0 -248 4 -255 7 -10 145 -28 214 -28 71 1 267 11 288 15 15 2 51 0 79 -6 59
-13 188 3 227 28 21 13 23 19 16 57 -4 22 -8 61 -7 86 0 25 1 115 1 200 0 232
0 244 1 395 1 77 -1 177 -5 223 -4 53 -2 82 5 83 25 3 235 10 280 9 91 -2 324
-3 385 -2 33 1 130 1 215 0 85 -1 184 -1 220 0 36 1 142 1 235 1 94 -1 193 -1
220 0 28 1 100 -2 160 -5 66 -4 146 -1 201 6 64 9 97 9 111 2 10 -6 75 -12
144 -13 115 -3 128 -1 156 19 30 21 103 31 103 15 0 -5 -7 -29 -14 -55 -11
-34 -13 -77 -9 -160 3 -62 5 -140 3 -173 -1 -33 -2 -127 -1 -210 0 -82 0 -181
-1 -220 -1 -38 -1 -121 -1 -182 1 -62 1 -149 1 -193 0 -44 0 -142 0 -217 0
-76 0 -172 0 -213 -1 -41 0 -129 0 -195 1 -66 1 -149 0 -185 -2 -260 0 -341 6
-382 8 -41 6 -47 -13 -57 -16 -9 -31 -8 -67 4 -40 13 -180 15 -1197 13 l-1152
-3 -3 57 c-3 51 0 59 21 73 13 8 32 12 41 9 14 -5 17 -2 14 17 -2 16 -10 24
-23 24 -31 0 -49 74 -38 160 5 39 8 162 6 275 -2 113 -4 253 -3 312 1 94 -1
109 -19 127 -28 28 -89 34 -211 20 -58 -6 -123 -10 -145 -10 -346 12 -361 12
-397 -4 -57 -23 -60 -37 -54 -208 4 -84 6 -177 5 -207 0 -30 -1 -116 0 -190 0
-74 0 -164 -1 -200 0 -36 0 -128 0 -205 1 -77 1 -169 0 -205 0 -36 0 -123 0
-195 0 -71 0 -161 0 -200 -1 -164 -1 -344 1 -395 1 -45 -2 -196 -12 -528 0
-20 7 -40 19 -52 20 -20 8 -19 307 -21 390 -2 478 3 498 28 8 8 12 39 10 76
-2 74 -2 75 0 537 1 201 -1 374 -4 385 -13 40 5 47 114 51 57 1 120 3 139 2
19 -1 206 -1 415 0 209 0 399 0 423 0 45 0 371 0 425 1 17 0 109 -2 202 -5
148 -5 174 -3 202 12 30 16 34 16 57 0 21 -13 54 -16 185 -16 150 0 161 1 171
20 14 26 69 28 71 3 5 -51 10 -297 8 -358 -2 -63 -2 -166 -1 -365 1 -66 1
-307 0 -435 0 -38 0 -124 0 -190 0 -66 0 -154 0 -195 0 -41 0 -138 0 -215 1
-77 1 -171 0 -210 -3 -172 -1 -305 6 -365 4 -36 3 -71 -2 -78 -6 -9 -260 -13
-1215 -15 -664 -1 -1207 -1 -1207 -1 0 1 -4 25 -10 54 -9 49 -8 53 17 81 20
20 30 25 40 18 26 -22 44 18 23 51 -8 13 -11 12 -23 -4 -13 -18 -15 -17 -23
20 -5 21 -10 165 -11 319 -5 464 -7 510 -21 527 -11 14 -74 16 -540 15 l-527
-1 -8 53 c-5 41 -3 65 9 97 12 33 15 60 10 111 -4 37 -6 82 -5 98 2 24 2 284
1 390 -2 85 -2 166 0 205 1 35 1 415 1 803 0 20 -1 71 -1 112 0 41 0 90 1 108
0 60 0 551 -1 709 -1 152 -2 158 -24 171 -34 22 -395 24 -423 3 -22 -16 -20
69 -25 -911 l-2 -360 -50 -95 c-80 -151 -176 -270 -282 -350 -50 -38 -104 -80
-121 -93 -50 -40 -184 -117 -295 -171 -58 -28 -119 -61 -137 -73 -17 -13 -43
-23 -57 -23 -23 0 -44 -7 -131 -45 -42 -19 -306 -105 -320 -105 -7 0 -20 -9
-30 -20 -15 -16 -17 -29 -11 -72 4 -29 9 -323 10 -653 2 -330 4 -613 4 -630 3
-342 -10 -1213 -19 -1260 -6 -33 -15 -85 -19 -115 -4 -31 -22 -85 -39 -121
-17 -36 -31 -69 -31 -73 0 -38 -225 -386 -319 -495 -78 -90 -98 -125 -107
-191 -4 -36 -8 -126 -7 -200 1 -74 2 -162 1 -195 0 -55 0 -242 2 -443 1 -123
3 -121 -143 -123 -67 -1 -144 -1 -172 0 -27 2 -122 3 -210 2 -175 0 -200 0
-415 0 -80 1 -170 0 -200 0 -30 0 -224 0 -430 1 -206 0 -400 0 -430 0 -30 -1
-127 -1 -215 -1 -181 1 -216 0 -440 -1 -88 0 -180 0 -205 0 -25 1 -92 1 -149
0 -64 0 -108 4 -117 11 -17 14 -19 110 -2 127 7 7 24 12 39 12 35 0 42 11 33
55 -6 35 -24 39 -24 5 0 -24 -17 -35 -34 -21 -21 18 -38 88 -26 110 6 12 10
142 11 340 1 286 -1 324 -16 347 -24 36 -301 314 -314 314 -6 0 -21 15 -34 34
-12 19 -63 78 -112 132 -50 53 -101 117 -114 143 -13 25 -33 64 -44 86 -11 22
-24 42 -27 45 -17 12 -40 72 -40 101 0 31 -12 79 -51 203 -11 33 -19 89 -20
125 0 91 -22 241 -38 270 -9 17 -11 44 -7 95 4 41 2 92 -4 121 -6 28 -15 93
-19 145 -9 99 -41 238 -64 274 -7 12 -19 41 -26 66 -16 58 -67 165 -100 210
-14 19 -30 43 -36 52 -5 9 -32 49 -59 89 -27 40 -58 93 -69 118 -11 25 -29 58
-40 72 -17 24 -19 40 -15 135 3 91 8 117 28 158 39 77 122 161 193 194 57 27
74 30 207 35 124 4 151 3 185 -12 68 -30 198 -74 235 -79 24 -3 51 -20 85 -51
28 -25 77 -64 110 -86 33 -22 108 -89 168 -150 103 -106 110 -116 182 -260 50
-100 75 -162 75 -185 1 -58 20 -124 41 -140 18 -14 19 -22 11 -71 -5 -31 -4
-67 1 -84 14 -50 38 -157 46 -216 5 -30 14 -65 20 -77 7 -12 14 -52 17 -90 10
-133 22 -162 65 -162 30 0 77 58 94 115 17 60 22 224 7 251 -7 14 -6 40 4 89
11 52 14 101 9 190 -3 66 -5 143 -4 170 3 74 3 334 0 380 -2 22 1 110 6 195 6
96 6 160 0 167 -11 16 -13 71 -3 148 6 45 5 69 -7 96 -14 35 -18 37 -87 49
-55 9 -78 9 -100 0 -22 -9 -33 -9 -51 1 -31 16 -174 48 -217 49 -18 0 -42 4
-52 10 -10 5 -51 13 -92 16 -40 4 -78 10 -83 15 -17 13 -98 28 -169 32 -36 2
-73 10 -82 18 -19 16 -157 54 -254 70 -36 6 -72 17 -80 24 -15 13 -79 38 -165
65 -22 7 -71 27 -110 45 -38 19 -86 39 -105 47 -60 23 -233 110 -289 145 -29
19 -78 45 -107 58 -30 13 -54 28 -54 33 0 16 -71 80 -108 98 -43 20 -110 86
-104 103 2 7 -17 39 -42 71 -25 32 -46 62 -46 66 0 4 -14 29 -31 56 -16 28
-29 60 -27 73 1 12 -4 30 -12 40 -10 12 -16 47 -19 104 -2 51 -9 94 -17 106
-17 24 -18 87 -1 123 17 38 15 267 -3 309 -12 27 -12 42 -2 85 17 73 18 264 1
305 -11 26 -11 42 -1 85 15 66 17 293 3 331 -13 34 -14 82 -2 105 16 31 20
233 5 271 -17 40 -18 85 -3 113 6 11 13 78 15 149 4 103 1 135 -11 158 -18 35
-19 78 -4 118 17 46 17 232 0 271 -13 27 -13 43 -3 100 17 92 18 282 2 321 -7
19 -10 46 -5 73 14 90 17 291 5 334 -11 39 -10 46 13 91 31 57 61 125 75 171
18 55 168 223 259 290 35 25 63 49 63 54 0 4 4 8 10 8 14 0 79 46 105 75 13
13 36 27 52 30 40 9 57 18 153 80 47 30 101 58 120 61 19 4 59 18 89 31 60 26
265 98 378 132 39 12 74 28 77 36 4 11 22 15 64 15 33 0 72 4 88 9 89 27 146
42 209 55 39 8 106 22 150 31 44 9 96 23 115 32 21 9 75 17 135 19 55 2 116 8
135 14 19 5 55 10 80 10 25 1 81 11 124 24 63 18 86 21 116 14 26 -7 85 -5
191 6 85 9 202 16 261 16 59 0 117 4 130 9 14 5 47 5 78 0 40 -6 71 -5 114 6
43 11 68 13 95 5 20 -5 104 -9 186 -9 220 2 228 1 370 -10 72 -6 160 -8 196
-4 50 4 73 1 97 -11 17 -9 55 -16 84 -16 29 0 80 -5 113 -10 39 -6 72 -6 97 1
30 8 44 6 69 -7 43 -22 254 -55 305 -48 29 4 55 0 90 -14 27 -11 74 -26 104
-32 30 -7 73 -17 95 -23 22 -5 60 -14 85 -17 25 -4 81 -18 125 -30 44 -13 107
-25 140 -27 33 -2 69 -8 80 -13 11 -5 50 -22 86 -39 36 -16 79 -33 95 -37 43
-10 277 -104 347 -140 16 -8 41 -14 56 -14 19 0 43 -14 75 -44 25 -25 61 -48
79 -51 50 -11 100 -40 148 -85 24 -23 67 -57 94 -76 112 -77 137 -98 160 -133
13 -20 55 -69 93 -109 72 -75 77 -87 107 -219 14 -61 17 -160 20 -610 2 -296
3 -545 3 -553 -4 -147 -10 -639 -9 -709 1 -148 -10 -141 234 -141 l203 0 22
30 c25 33 30 123 11 178 -8 24 -7 47 3 94 8 35 12 74 8 88 -3 14 -4 113 -2
221 3 141 1 202 -7 218 -10 17 -10 26 -1 37 9 9 10 36 6 86 -4 40 -6 91 -5
113 2 35 3 687 1 790 0 22 0 162 1 310 0 149 0 281 -1 295 -1 14 1 47 4 73 3
27 1 67 -6 90 -8 29 -8 56 -2 87 6 25 7 69 3 98 -4 29 -4 55 0 58 8 5 423 4
584 -1 67 -2 113 2 140 11 51 17 74 17 116 0 23 -9 62 -12 119 -10 114 5 120
12 121 148 1 94 0 270 -2 376 0 25 0 115 0 200 1 85 -1 192 -5 236 -4 56 -2
89 6 104 12 22 16 23 103 16 69 -5 104 -2 150 11 54 15 62 15 111 0 66 -21
220 -21 303 0 58 15 66 15 106 -1 55 -21 220 -21 324 0 57 11 78 11 100 2 40
-17 255 -19 333 -3 54 11 70 11 97 0 45 -19 259 -18 334 1 48 12 63 12 105 0
54 -16 244 -26 244 -13 0 12 61 36 93 37 23 0 27 -4 27 -27z"/>
<path d="M12110 13665 c-9 -11 -33 -15 -89 -14 -42 0 -87 -1 -101 -1 -14 -1
-52 0 -85 1 -33 1 -71 1 -85 1 -14 -1 -49 1 -77 4 -44 5 -53 3 -53 -10 0 -31
35 -36 216 -31 99 3 190 5 204 6 14 1 44 -5 68 -12 52 -16 66 -4 49 42 -13 32
-28 37 -47 14z"/>
<path d="M10028 13650 c-61 -6 -81 -16 -58 -31 13 -8 80 -8 350 1 14 0 94 -2
178 -6 156 -6 192 0 164 28 -12 12 -517 18 -634 8z"/>
<path d="M10762 13641 c-3 -7 1 -17 9 -22 12 -8 273 -12 623 -9 125 1 157 10
134 37 -9 12 -24 13 -63 8 -59 -9 -78 -9 -429 -4 -219 3 -270 2 -274 -10z"/>
<path d="M11118 13508 c-7 -5 -65 -8 -128 -7 -63 1 -130 -3 -148 -9 -25 -8
-44 -8 -75 2 -54 16 -263 14 -296 -3 -17 -10 -20 -16 -12 -24 17 -17 756 -18
779 -1 15 11 15 13 2 17 -89 29 -110 33 -122 25z"/>
<path d="M10210 13499 c-105 -18 -86 -28 83 -45 46 -4 77 -2 99 7 l31 13 -49
17 c-55 19 -84 21 -164 8z"/>
<path d="M11304 13489 c-30 -33 24 -39 321 -34 154 2 291 8 305 13 l25 10 -30
12 c-18 7 -86 11 -175 10 -80 0 -209 1 -288 2 -122 3 -146 1 -158 -13z"/>
<path d="M11964 13393 c-5 -38 -8 -448 -8 -913 l0 -845 -915 0 c-710 1 -915 3
-919 13 -5 16 -22 15 -22 -1 0 -20 41 -53 75 -62 42 -11 75 -9 110 4 52 21
134 -19 170 -83 9 -16 27 -19 138 -21 70 -2 127 0 127 4 0 11 -31 37 -52 44
-11 4 -18 17 -18 31 0 21 6 26 34 32 42 7 90 -2 107 -22 6 -8 19 -14 29 -14
25 0 43 -25 35 -50 -6 -19 -3 -20 84 -20 49 0 93 5 96 10 4 6 -15 10 -50 10
-65 0 -95 13 -95 40 0 17 7 20 43 20 23 0 58 3 77 6 32 5 37 3 48 -21 9 -19 9
-31 2 -40 -13 -15 7 -25 51 -25 35 0 37 9 4 40 -19 18 -22 27 -14 41 8 15 21
19 62 19 44 0 57 -5 85 -31 17 -16 32 -33 32 -37 0 -23 51 -34 176 -37 74 -1
134 0 134 3 0 3 -17 20 -37 38 -32 27 -36 35 -27 51 17 27 107 23 138 -6 12
-12 28 -21 34 -21 6 0 14 -11 18 -25 7 -29 35 -48 58 -39 22 8 20 15 -11 40
-24 19 -26 24 -14 38 10 11 30 17 60 17 110 0 150 11 178 48 14 19 26 97 25
158 -1 31 2 41 12 37 7 -3 18 2 25 10 11 13 9 21 -12 46 -14 16 -31 45 -37 65
-10 31 -9 41 9 76 16 30 19 45 11 59 -5 10 -10 43 -10 73 0 46 3 55 20 60 26
7 26 37 0 70 -27 34 -51 103 -43 125 3 9 17 29 31 44 24 26 24 29 9 46 -23 25
-23 119 -1 143 14 16 14 20 -2 51 -44 84 -37 144 18 151 l33 3 -32 8 c-36 9
-38 17 -23 80 5 25 5 46 -1 57 -7 14 -4 23 13 38 19 19 20 22 6 38 -8 10 -23
40 -33 67 -18 48 -18 48 6 93 23 42 23 45 6 54 -15 9 -17 18 -12 53 7 44 -9
126 -25 126 -4 0 -12 -30 -16 -67z m-1356 -1842 c34 -29 28 -41 -14 -29 -20 5
-51 7 -68 4 -37 -7 -61 6 -53 28 9 24 105 21 135 -3z m868 2 c7 -10 14 -21 14
-25 0 -13 -38 -9 -42 4 -3 9 -13 8 -37 -4 -48 -23 -91 -8 -77 27 8 23 125 21
142 -2z"/>
<path d="M10095 13427 c-14 -23 -16 -32 -7 -52 7 -14 16 -25 22 -25 15 0 23
46 13 77 l-10 28 -18 -28z"/>
<path d="M12115 13278 c-4 -21 -4 -46 0 -55 6 -17 7 -17 17 0 6 12 6 31 0 55
l-9 37 -8 -37z"/>
<path d="M10089 13278 c-7 -13 -11 -58 -10 -113 1 -49 2 -99 1 -110 0 -11 -1
-32 -2 -47 0 -15 7 -40 17 -55 l18 -27 13 34 c15 42 18 277 4 314 -12 32 -26
33 -41 4z"/>
<path d="M11539 13085 c-14 -14 -376 -18 -944 -11 l-80 1 1 -45 c0 -25 3 -67
5 -95 2 -27 0 -81 -4 -120 -4 -38 -4 -75 0 -82 6 -9 32 -10 102 -3 105 10 128
21 82 39 -16 7 -38 22 -48 33 -10 11 -29 24 -42 29 -19 8 -21 12 -11 24 19 22
5 48 -19 36 -10 -6 -21 -7 -25 -4 -11 11 -6 73 8 108 14 33 18 35 60 35 25 0
48 -5 51 -11 4 -6 35 -8 83 -4 62 4 84 2 110 -12 30 -17 35 -17 81 0 56 20
102 22 119 5 8 -8 15 -8 26 2 12 9 29 10 77 1 45 -8 65 -7 79 1 15 10 26 9 53
-4 35 -17 91 -13 134 10 12 7 35 12 52 12 29 0 31 -3 31 -35 0 -39 -24 -95
-46 -108 -19 -11 -18 -27 1 -27 18 0 18 -5 5 -30 -8 -16 -20 -17 -97 -14 -49
2 -102 6 -120 10 l-32 6 6 -38 c3 -22 8 -42 12 -46 3 -3 68 -9 144 -12 76 -4
144 -9 151 -12 27 -10 39 24 33 99 -3 39 -2 110 2 156 5 64 3 87 -7 98 -14 13
-25 16 -33 8z"/>
<path d="M4477 12939 c-31 -18 -122 -28 -166 -18 -36 8 -48 6 -93 -17 -71 -36
-49 -45 92 -37 124 6 177 18 194 45 14 23 -3 40 -27 27z"/>
<path d="M4891 12939 c-14 -5 -65 -8 -115 -7 -96 3 -168 -14 -147 -35 14 -14
268 -10 293 4 20 11 25 49 6 48 -7 0 -24 -5 -37 -10z"/>
<path d="M5101 12926 c-41 -15 -52 -36 -19 -36 13 0 75 -1 139 -2 119 -1 142
3 133 26 -4 10 -29 13 -92 13 -48 0 -96 3 -107 6 -11 3 -35 0 -54 -7z"/>
<path d="M5471 12897 c-23 -28 -3 -35 97 -37 53 0 117 -2 142 -3 34 -2 45 2
45 13 0 17 -40 26 -175 36 -81 5 -97 4 -109 -9z"/>
<path d="M4008 12895 c-3 -3 -55 -7 -115 -8 -79 -2 -115 -6 -128 -17 -10 -9
-42 -15 -79 -16 -55 -2 -95 -7 -135 -20 -11 -4 -11 -7 0 -21 12 -13 29 -15
125 -9 66 3 127 13 150 22 27 11 67 16 136 15 l98 -1 0 30 c0 25 -4 30 -23 30
-13 0 -26 -2 -29 -5z"/>
<path d="M5885 12868 c-30 -17 -31 -18 -15 -28 8 -6 59 -10 113 -10 65 0 107
-5 126 -14 15 -8 74 -20 132 -26 57 -6 128 -16 158 -21 30 -5 57 -7 60 -4 12
12 -21 28 -75 36 -62 9 -135 22 -219 39 -27 6 -88 15 -135 20 -47 4 -94 11
-105 14 -11 3 -29 1 -40 -6z"/>
<path d="M10088 12839 c-22 -25 -25 -35 -18 -55 5 -13 7 -37 4 -53 -3 -16 -1
-53 5 -82 10 -45 9 -54 -4 -61 -24 -14 -18 -37 12 -44 45 -12 53 13 53 162 0
126 -4 164 -19 164 -3 -1 -18 -14 -33 -31z"/>
<path d="M3410 12820 c-8 -5 -42 -10 -75 -10 -73 0 -126 -14 -149 -39 -16 -17
-15 -19 14 -31 24 -10 43 -10 83 -2 29 6 74 14 101 18 49 7 91 35 83 57 -5 16
-38 20 -57 7z"/>
<path d="M10796 12793 c8 -43 18 -53 54 -53 14 0 80 -2 148 -3 149 -4 166 3
121 51 -19 20 -37 31 -46 28 -39 -15 -65 -17 -78 -6 -10 8 -35 10 -84 5 -46
-4 -71 -3 -75 4 -4 6 -16 11 -27 11 -18 0 -19 -4 -13 -37z"/>
<path d="M4468 12792 c-38 -3 -59 -29 -36 -44 7 -4 33 -8 58 -9 147 -5 248 -3
268 3 19 7 21 10 10 27 -10 17 -24 19 -130 19 -64 0 -121 2 -125 4 -5 2 -24 2
-45 0z"/>
<path d="M4856 12775 c-7 -24 9 -35 54 -35 19 0 86 -2 148 -4 127 -3 163 8
119 36 -19 13 -57 17 -170 20 -138 3 -146 2 -151 -17z"/>
<path d="M4262 12779 c-13 -5 -73 -10 -134 -11 -87 -1 -111 -4 -116 -16 -3 -8
3 -21 14 -29 15 -12 43 -14 144 -9 138 6 162 16 138 55 -14 23 -14 23 -46 10z"/>
<path d="M5303 12774 c-20 -9 -15 -22 14 -41 19 -13 59 -20 147 -25 67 -4 134
-9 150 -10 16 -2 31 2 33 9 7 19 -90 63 -134 62 -21 -1 -74 1 -118 4 -44 4
-86 4 -92 1z"/>
<path d="M6590 12762 c0 -12 58 -37 67 -28 10 9 -8 24 -39 31 -17 4 -28 3 -28
-3z"/>
<path d="M2996 12735 c-16 -9 -61 -21 -100 -27 -57 -9 -77 -17 -100 -41 -26
-26 -33 -28 -75 -22 -25 4 -54 11 -64 17 -14 7 -24 4 -41 -14 -22 -22 -46 -60
-46 -72 0 -10 59 -6 65 4 3 6 19 10 34 10 15 0 36 7 47 15 10 8 32 15 47 15
15 0 42 6 60 14 18 7 54 16 79 20 26 4 50 11 53 17 4 5 28 9 54 9 62 0 82 19
50 49 -27 25 -26 25 -63 6z"/>
<path d="M3815 12741 c-11 -5 -51 -11 -89 -15 -85 -8 -113 -21 -95 -43 10 -11
24 -13 53 -9 23 4 85 9 139 12 73 5 100 10 104 21 3 8 2 18 -3 22 -14 13 -87
20 -109 12z"/>
<path d="M5730 12735 c-30 -36 2 -50 150 -65 41 -4 115 -15 163 -24 49 -10
117 -21 150 -26 34 -5 76 -12 92 -15 23 -5 37 -1 55 13 14 11 22 24 17 28 -14
14 -121 24 -154 13 -25 -8 -40 -7 -65 5 -65 30 -132 48 -212 56 -44 4 -84 6
-87 4 -4 -2 -23 3 -43 11 -44 19 -51 19 -66 0z"/>
<path d="M6772 12705 c11 -11 95 -40 141 -49 46 -9 49 7 5 30 -32 17 -159 33
-146 19z"/>
<path d="M3459 12695 c-6 -6 -235 -54 -309 -65 -100 -14 -170 -39 -170 -60 0
-16 69 -12 170 11 132 29 158 35 215 50 28 7 81 14 119 15 79 2 99 14 65 38
-22 15 -80 22 -90 11z"/>
<path d="M9860 12628 c-18 -35 -39 -67 -47 -71 -25 -15 -2 -27 53 -27 l54 0 0
64 c0 115 -14 123 -60 34z"/>
<path d="M7065 12619 c28 -11 66 -18 85 -17 34 3 33 4 -22 21 -31 9 -69 17
-85 17 -24 -1 -21 -4 22 -21z"/>
<path d="M6395 12620 c-11 -17 32 -48 75 -55 19 -3 55 -12 80 -20 67 -20 137
-25 157 -10 17 13 17 14 -1 34 -12 13 -31 21 -53 21 -19 0 -46 6 -61 14 -39
20 -187 32 -197 16z"/>
<path d="M9057 12590 c-97 -4 -130 -9 -137 -20 -5 -8 -6 -18 -4 -22 3 -4 73
-8 155 -8 115 0 157 4 179 15 31 16 39 34 18 37 -27 3 -88 3 -211 -2z"/>
<path d="M9400 12586 c-11 -5 -20 -17 -20 -28 0 -17 9 -18 153 -16 l152 3 0
25 0 25 -132 0 c-73 0 -142 -4 -153 -9z"/>
<path d="M2382 12578 c-7 -7 -12 -18 -12 -25 0 -8 -13 -16 -30 -19 -16 -4 -35
-13 -41 -20 -6 -8 -23 -14 -38 -14 -14 0 -35 -7 -45 -15 -11 -8 -30 -15 -43
-15 -13 0 -23 -4 -23 -10 0 -5 -18 -10 -40 -10 -25 0 -39 -4 -37 -11 2 -14
-106 -59 -140 -59 -18 0 -23 -6 -23 -25 0 -31 36 -70 53 -57 7 5 46 27 87 48
41 21 87 51 102 66 19 20 36 28 62 28 87 0 214 81 216 138 0 15 -32 16 -48 0z"/>
<path d="M2740 12535 c-36 -12 -96 -30 -134 -39 -38 -9 -99 -29 -135 -45 -36
-17 -77 -33 -91 -36 -79 -19 -134 -65 -79 -65 24 0 232 66 269 85 23 12 122
42 224 66 38 10 69 36 60 51 -8 13 -46 8 -114 -17z"/>
<path d="M6795 12533 c-56 -14 -36 -49 33 -59 26 -3 101 -26 166 -50 66 -24
125 -44 132 -44 7 0 25 -6 41 -14 15 -7 44 -20 63 -29 19 -8 51 -22 72 -31 41
-18 78 -21 78 -6 0 5 -24 21 -52 36 -29 14 -67 41 -85 60 -20 21 -43 35 -60
36 -15 1 -37 3 -48 4 -11 1 -32 2 -47 3 -14 1 -39 12 -55 25 -15 13 -65 35
-110 50 -83 26 -92 28 -128 19z"/>
<path d="M10110 12475 c0 -11 -9 -34 -19 -51 -25 -42 -35 -104 -22 -150 8 -29
7 -44 -3 -65 -13 -25 -12 -30 8 -48 32 -30 44 -26 57 17 14 49 8 269 -8 297
-12 20 -12 20 -13 0z"/>
<path d="M12060 12448 c0 -12 62 -68 74 -68 14 0 4 19 -12 24 -11 4 -25 18
-32 31 -14 27 -30 33 -30 13z"/>
<path d="M10515 12347 c-3 -12 -2 -66 3 -120 6 -59 6 -117 0 -148 -5 -28 -7
-53 -4 -56 3 -3 825 -6 1058 -3 12 0 8 317 -5 333 -10 13 -28 14 -111 8 -54
-4 -119 -6 -145 -4 -61 6 -90 -13 -70 -46 13 -20 20 -22 67 -18 60 6 102 -5
102 -27 0 -10 13 -14 50 -13 59 2 73 -11 66 -61 -14 -98 -174 -179 -226 -115
-17 21 -19 21 -75 7 -62 -16 -108 -8 -119 22 -3 8 -10 14 -15 14 -6 0 -8 -6
-5 -14 6 -17 -27 -30 -55 -21 -10 3 -24 -1 -31 -10 -18 -21 -67 -19 -107 6
-32 20 -35 20 -47 4 -10 -14 -20 -16 -47 -11 -19 4 -54 10 -79 12 -25 3 -50
12 -57 21 -10 13 -16 13 -47 -2 -62 -30 -80 -2 -56 87 16 57 52 79 119 76 l56
-3 3 32 c3 28 -1 34 -30 46 -18 8 -68 17 -110 20 -75 6 -78 6 -83 -16z"/>
<path d="M4486 12350 c-31 -4 -53 -13 -62 -25 -25 -34 -11 -40 75 -37 76 3 83
2 88 -17 5 -20 5 -20 22 -1 14 17 22 18 71 9 30 -6 67 -18 82 -27 15 -9 29
-14 32 -11 2 2 -1 25 -7 51 -10 41 -16 50 -44 59 -32 10 -166 10 -257 -1z"/>
<path d="M4863 12353 c-23 -9 -14 -24 25 -40 20 -8 43 -20 51 -26 15 -13 56
-17 140 -16 32 0 60 -5 70 -14 17 -15 84 -31 93 -22 3 3 0 21 -6 39 -15 49
-57 66 -190 77 -121 9 -164 10 -183 2z"/>
<path d="M10825 12353 c-35 -9 -39 -22 -9 -29 16 -3 41 -17 55 -31 23 -21 29
-22 53 -12 19 9 32 9 49 1 12 -6 56 -10 99 -10 l76 0 5 32 c3 17 1 35 -4 40
-9 10 -291 18 -324 9z"/>
<path d="M4042 12324 c-27 -18 -27 -22 -2 -53 17 -20 24 -22 49 -13 23 8 32 7
42 -4 15 -18 58 -18 83 1 26 20 56 19 71 -2 10 -14 16 -15 28 -5 8 7 21 10 30
6 8 -3 25 -1 36 5 20 11 19 13 -18 46 l-38 35 -129 0 c-101 0 -134 -3 -152
-16z"/>
<path d="M5305 12329 c-8 -13 19 -39 41 -39 7 0 24 -15 38 -32 17 -22 29 -29
34 -22 12 19 84 23 140 7 61 -17 105 -11 96 12 -4 8 -1 22 6 30 7 9 11 17 9
19 -6 6 -192 27 -280 33 -55 4 -79 1 -84 -8z"/>
<path d="M2140 12315 c-14 -8 -43 -23 -66 -34 -138 -68 -261 -146 -375 -238
-52 -42 -133 -145 -175 -222 -48 -89 -70 -242 -41 -286 29 -43 57 -128 50
-153 -6 -24 -4 -25 27 -19 20 4 38 2 47 -5 10 -8 17 -8 25 0 7 7 0 28 -27 73
-71 115 -85 153 -85 224 0 68 13 100 88 220 71 112 294 284 482 370 89 41 123
61 122 70 -2 16 -45 16 -72 0z"/>
<path d="M3770 12305 c-25 -8 -64 -15 -87 -15 -72 0 -94 -17 -48 -38 23 -11
25 -16 19 -47 -7 -39 6 -47 28 -17 23 32 105 65 141 57 18 -3 53 -9 78 -12
l46 -5 6 38 c4 21 5 40 3 41 -12 13 -147 11 -186 -2z"/>
<path d="M5724 12289 c-8 -13 14 -39 33 -39 8 0 27 -14 42 -31 l28 -30 46 25
c55 31 62 32 112 6 23 -12 50 -18 62 -15 12 3 25 1 28 -5 3 -5 28 -10 55 -10
37 0 54 -5 69 -21 15 -17 23 -19 39 -10 12 6 31 11 44 11 13 0 33 7 44 15 18
15 18 15 0 29 -10 8 -44 18 -75 22 -31 3 -87 12 -126 19 -38 8 -72 12 -76 9
-4 -2 -28 3 -55 10 -62 18 -261 29 -270 15z"/>
<path d="M7450 12293 c-8 -2 -21 -7 -29 -9 -11 -4 -11 -8 3 -23 22 -24 137
-81 164 -81 18 0 19 3 9 35 -7 23 -17 35 -28 35 -10 0 -31 11 -47 25 -30 25
-43 28 -72 18z"/>
<path d="M1770 12272 c0 -9 -7 -26 -15 -36 -14 -18 -21 -66 -10 -66 13 0 85
43 101 61 21 23 13 33 -38 47 -33 9 -38 8 -38 -6z"/>
<path d="M8814 12254 c-4 -22 -2 -40 5 -47 8 -8 11 1 11 36 0 56 -7 61 -16 11z"/>
<path d="M11180 12270 c0 -5 11 -10 25 -10 14 0 25 5 25 10 0 6 -11 10 -25 10
-14 0 -25 -4 -25 -10z"/>
<path d="M3425 12261 c-11 -5 -39 -10 -62 -10 -23 -1 -52 -5 -65 -10 -13 -5
-59 -16 -103 -25 -125 -27 -187 -45 -232 -68 -39 -20 -41 -24 -27 -39 14 -16
14 -18 -5 -29 -12 -6 -21 -15 -21 -20 0 -17 30 -11 57 10 14 11 31 20 38 20 7
0 18 7 25 15 7 8 27 15 44 15 17 0 56 9 86 20 30 11 61 18 70 15 16 -5 115 37
141 61 21 19 66 9 82 -17 8 -13 15 -15 24 -7 8 7 22 7 40 0 31 -10 73 3 73 23
0 7 -9 20 -20 30 -23 21 -113 30 -145 16z"/>
<path d="M6402 12192 c-8 -5 -12 -20 -10 -33 2 -20 10 -25 46 -30 23 -3 50
-12 58 -21 11 -11 28 -14 58 -11 31 4 47 1 58 -11 9 -9 30 -16 47 -16 24 0 31
-4 31 -19 0 -16 6 -18 38 -14 29 4 45 -1 77 -22 34 -24 44 -26 67 -17 22 8 35
7 62 -6 59 -30 125 -86 142 -122 9 -19 23 -39 30 -43 8 -4 14 -15 14 -23 0 -8
13 -17 30 -21 17 -3 35 -14 40 -24 14 -26 12 -72 -4 -94 -8 -12 -11 -34 -8
-62 4 -39 3 -43 -17 -43 -19 0 -22 -5 -19 -32 2 -26 -1 -32 -13 -30 -9 1 -21
-9 -27 -23 -6 -14 -16 -25 -22 -25 -6 0 -15 -11 -20 -25 -6 -15 -20 -27 -37
-31 -15 -4 -36 -15 -46 -25 -10 -11 -23 -19 -28 -19 -6 0 -22 -9 -36 -20 -15
-12 -41 -20 -63 -20 -21 0 -43 -7 -50 -15 -25 -30 -120 -77 -144 -71 -24 6
-112 -7 -123 -18 -3 -3 1 -14 9 -23 9 -10 13 -23 11 -30 -2 -6 0 -14 6 -17 11
-7 105 16 181 45 30 11 68 25 84 29 40 13 161 75 226 117 64 41 174 154 188
192 48 134 49 144 26 198 -49 112 -94 170 -180 234 -107 79 -284 155 -340 146
-26 -4 -39 -1 -52 13 -21 23 -56 37 -152 62 -105 27 -123 30 -138 20z"/>
<path d="M7658 12163 c-29 -7 -8 -33 91 -112 102 -81 187 -175 215 -239 15
-33 24 -42 40 -40 38 5 33 52 -13 113 -32 43 -40 61 -36 82 3 16 2 22 -1 16
-8 -18 -34 -16 -34 2 0 8 -7 15 -15 15 -9 0 -21 11 -27 25 -6 14 -20 25 -31
25 -10 0 -21 9 -24 20 -3 12 -14 20 -26 20 -21 0 -42 21 -57 58 -9 22 -37 27
-82 15z"/>
<path d="M9894 12100 c3 -57 16 -62 16 -7 0 26 -4 47 -9 47 -5 0 -8 -18 -7
-40z"/>
<path d="M2720 12093 c-111 -49 -189 -89 -217 -109 -17 -13 -36 -24 -42 -24
-18 0 -129 -120 -155 -167 -35 -62 -50 -144 -36 -191 35 -114 132 -242 184
-242 16 0 26 6 26 14 0 23 -34 76 -52 82 -10 3 -18 15 -18 26 0 11 -11 29 -24
39 -20 15 -26 32 -31 85 -7 59 -5 71 20 120 15 30 32 54 39 54 6 0 27 14 46
30 34 30 35 30 15 46 -20 15 -20 15 4 35 16 13 27 16 36 9 13 -11 35 6 35 27
0 7 9 13 20 13 11 0 23 7 27 15 3 9 22 24 43 35 32 16 42 17 69 7 27 -10 33
-9 51 11 12 12 25 22 30 22 6 0 10 9 10 21 0 11 10 29 23 40 l22 18 -45 0
c-25 0 -61 -7 -80 -16z"/>
<path d="M4622 12079 c-70 -35 -123 -34 -142 1 -11 21 -40 26 -56 10 -14 -14
-141 -23 -149 -10 -9 15 -36 12 -75 -9 -29 -15 -54 -18 -137 -16 -63 1 -108 7
-117 14 -20 17 -41 4 -25 -15 6 -7 9 -21 5 -29 -4 -11 3 -19 20 -25 38 -15
219 -11 294 5 97 21 1003 21 1074 0 57 -17 228 -20 257 -4 16 8 18 13 8 25
-10 12 -8 17 7 29 18 13 18 14 -9 24 -16 6 -34 8 -40 4 -7 -4 -19 -6 -28 -5
-9 2 -29 -3 -45 -9 -29 -12 -71 -12 -89 0 -5 3 -56 6 -112 6 -89 0 -104 2
-116 19 -14 18 -16 19 -39 4 -37 -24 -102 -31 -157 -17 -37 9 -53 10 -63 1
-15 -12 -166 3 -182 19 -13 12 -13 12 -84 -22z"/>
<path d="M10091 12083 c-9 -19 -13 -73 -12 -170 1 -154 5 -176 29 -171 24 5
33 73 30 215 -2 95 -6 126 -19 138 -14 14 -17 13 -28 -12z"/>
<path d="M1557 12073 c-18 -3 -31 -13 -37 -28 -5 -13 -21 -31 -35 -41 -28 -18
-33 -45 -11 -64 12 -9 18 -7 33 11 21 25 38 42 82 83 25 22 29 31 19 37 -7 5
-15 8 -18 7 -3 0 -18 -3 -33 -5z"/>
<path d="M3725 12042 c-16 -8 -59 -18 -95 -21 -61 -6 -65 -8 -68 -32 -3 -23 2
-28 37 -36 29 -8 55 -7 98 3 32 8 81 14 110 14 28 0 55 5 58 11 13 19 -5 59
-28 63 -65 13 -84 13 -112 -2z"/>
<path d="M5637 12053 c-13 -13 -7 -40 14 -59 15 -13 43 -21 97 -26 95 -8 230
-25 263 -32 36 -9 54 6 40 33 -25 46 -83 59 -293 64 -38 1 -72 7 -80 15 -13
13 -31 16 -41 5z"/>
<path d="M3370 11980 c-30 -11 -80 -19 -111 -19 -50 -1 -57 -4 -78 -32 -22
-30 -26 -31 -75 -25 -28 3 -66 9 -83 12 -28 5 -33 3 -33 -13 0 -16 -14 -22
-77 -37 -43 -9 -96 -26 -118 -36 -22 -11 -52 -22 -68 -26 -15 -3 -32 -14 -37
-24 -5 -9 -22 -20 -37 -23 -64 -13 -111 -147 -54 -155 21 -3 23 -1 17 21 -3
14 -3 33 0 42 6 14 137 85 158 85 5 0 22 6 39 14 91 39 112 46 267 86 66 17
177 40 240 50 58 8 145 27 169 36 11 3 7 12 -14 34 -33 34 -31 34 -105 10z"/>
<path d="M6134 11986 c-16 -41 18 -70 101 -88 22 -5 69 -15 105 -23 36 -7 90
-20 120 -29 30 -8 75 -20 100 -26 25 -7 59 -16 75 -22 118 -40 167 -46 137
-16 -7 7 -12 20 -12 30 0 22 -37 38 -89 38 -21 0 -44 6 -50 14 -6 7 -22 11
-36 8 -32 -6 -102 22 -124 50 -15 17 -28 21 -79 20 -37 -1 -77 6 -100 15 -20
9 -49 15 -63 14 -15 -1 -33 5 -42 13 -19 20 -36 20 -43 2z"/>
<path d="M1365 11819 c-4 -31 -10 -47 -15 -39 -13 21 -32 0 -27 -30 3 -15 2
-31 -3 -36 -13 -13 -17 -72 -5 -75 6 -2 14 11 19 27 13 44 28 74 64 129 40 61
40 75 3 75 -27 0 -30 -3 -36 -51z"/>
<path d="M8823 11805 c0 -22 2 -30 4 -17 2 12 2 30 0 40 -3 9 -5 -1 -4 -23z"/>
<path d="M6823 11753 c-22 -8 -14 -19 31 -41 51 -26 63 -38 68 -72 2 -17 10
-26 26 -28 42 -6 25 47 -36 111 -34 34 -58 43 -89 30z"/>
<path d="M8014 11679 c-3 -6 -6 -29 -6 -52 1 -23 -9 -64 -21 -92 -62 -144
-196 -276 -432 -422 -25 -15 -123 -63 -190 -93 -27 -12 -62 -28 -77 -36 -14
-8 -31 -14 -38 -14 -21 0 -80 -52 -72 -64 4 -6 7 -24 7 -41 0 -24 5 -31 23
-33 20 -3 23 0 17 17 -4 15 -1 23 10 27 9 4 21 17 25 30 8 21 13 22 36 14 28
-11 64 -5 64 11 0 5 10 14 23 19 12 6 40 24 62 40 45 33 79 38 91 13 6 -15 8
-13 13 11 4 22 14 32 35 37 16 5 41 19 55 33 14 13 35 26 46 28 12 2 21 13 23
28 8 53 49 75 101 54 39 -16 63 -8 36 13 -18 12 -17 15 18 50 131 132 157 164
157 191 0 15 7 38 16 50 9 13 13 31 9 42 -4 11 -2 20 4 20 6 0 11 -4 11 -10 0
-5 9 -10 20 -10 25 0 25 9 -1 87 -16 46 -27 63 -40 63 -10 0 -21 -5 -25 -11z"/>
<path d="M6785 11559 c-38 -16 -74 -29 -80 -29 -5 0 -41 -16 -78 -35 -38 -19
-83 -35 -100 -35 -48 -1 -120 -19 -138 -36 -13 -12 -29 -14 -62 -9 -26 4 -53
2 -65 -4 -21 -11 -97 -26 -209 -41 -73 -9 -131 -32 -138 -53 -2 -7 -6 -29 -9
-50 l-5 -39 23 25 c34 37 124 61 203 54 35 -2 66 -1 69 4 8 14 163 89 183 89
10 0 30 -9 45 -21 26 -20 28 -20 46 -4 11 10 26 15 33 12 8 -3 29 8 48 25 29
27 37 29 60 21 19 -7 33 -6 53 4 15 8 49 17 76 20 29 3 56 13 66 24 10 11 25
19 35 19 22 0 25 5 34 53 9 45 4 46 -90 6z"/>
<path d="M12141 11553 c-1 -23 4 -45 9 -48 12 -7 12 29 0 65 -7 21 -8 19 -9
-17z"/>
<path d="M2692 11559 c2 -8 25 -27 49 -44 40 -26 73 -51 127 -96 10 -8 17 -8
25 0 6 6 31 11 54 11 34 0 50 -6 69 -25 14 -14 31 -25 37 -24 21 4 91 -12 140
-32 32 -12 55 -16 65 -10 10 5 36 12 60 16 23 4 42 10 42 15 0 12 -89 42 -139
47 -25 3 -64 11 -86 18 -22 7 -69 21 -105 30 -71 19 -144 42 -175 56 -42 18
-111 41 -139 46 -21 4 -27 2 -24 -8z"/>
<path d="M10252 11534 c-8 -14 -24 -19 -67 -21 -63 -2 -97 -19 -43 -21 18 0
61 -4 94 -7 74 -9 89 4 51 42 -23 24 -25 24 -35 7z"/>
<path d="M1293 11495 c0 -27 2 -38 4 -22 2 15 2 37 0 50 -2 12 -4 0 -4 -28z"/>
<path d="M11814 11508 c-7 -11 8 -15 82 -22 80 -8 111 -1 93 20 -8 10 -33 13
-91 11 -44 -1 -82 -5 -84 -9z"/>
<path d="M8818 11455 c-3 -27 -3 -56 2 -64 10 -19 17 33 10 79 -6 34 -6 34
-12 -15z"/>
<path d="M3420 11359 c-33 -13 -32 -12 -14 -48 15 -30 17 -31 34 -16 21 19 51
9 70 -23 9 -16 11 -16 20 1 13 21 48 22 77 2 19 -14 24 -13 53 15 45 42 30 55
-68 64 -42 4 -93 9 -112 11 -19 3 -46 0 -60 -6z"/>
<path d="M2514 11345 c-4 -8 -4 -22 -1 -29 9 -23 188 -106 292 -136 17 -5 57
-18 90 -30 67 -24 145 -36 170 -26 14 5 13 9 -6 36 -18 24 -30 30 -61 30 -21
0 -38 4 -38 10 0 16 -39 32 -56 22 -28 -15 -96 6 -126 38 -21 22 -37 30 -63
30 -20 0 -61 14 -99 35 -71 38 -94 43 -102 20z"/>
<path d="M1286 11334 c-9 -25 -7 -72 4 -79 6 -4 10 13 10 44 0 53 -4 62 -14
35z"/>
<path d="M1650 11290 c0 -33 4 -42 28 -54 16 -8 34 -22 41 -30 8 -10 22 -14
36 -10 33 8 82 -21 148 -87 32 -33 62 -59 67 -59 18 0 41 -33 35 -51 -7 -22
-4 -23 27 -8 28 12 78 -3 78 -25 0 -17 24 -27 46 -19 10 4 20 0 26 -10 5 -11
22 -17 42 -17 19 0 39 -7 46 -15 7 -8 18 -15 26 -15 7 0 17 -8 23 -17 8 -15
13 -16 30 -5 12 6 32 12 46 12 46 0 27 29 -38 60 -35 17 -70 30 -76 30 -7 0
-25 6 -39 13 -15 8 -76 38 -137 67 -122 58 -251 140 -335 211 -96 81 -120 87
-120 29z"/>
<path d="M3778 11310 c-16 -12 -28 -30 -28 -40 0 -16 11 -19 88 -24 139 -9
168 -12 181 -20 13 -9 84 57 74 68 -4 3 -37 6 -75 6 -38 0 -78 4 -88 10 -10 5
-42 12 -71 16 -46 5 -58 3 -81 -16z"/>
<path d="M5630 11318 c-19 -6 -64 -13 -100 -15 -70 -5 -90 -15 -90 -44 0 -26
30 -31 118 -19 77 10 112 7 112 -11 0 -5 5 -9 11 -9 6 0 8 9 4 20 -6 17 -2 20
29 20 23 0 45 9 66 27 29 24 31 28 14 34 -27 11 -123 9 -164 -3z"/>
<path d="M5299 11295 c-6 -5 -111 -13 -195 -14 -71 -1 -106 -19 -85 -45 9 -10
29 -16 58 -16 25 0 42 -4 38 -9 -10 -17 16 -23 33 -8 22 19 72 28 95 16 10 -6
44 -7 77 -3 60 7 60 7 60 39 0 21 -6 35 -16 39 -18 7 -59 8 -65 1z"/>
<path d="M4172 11282 c-8 -5 -12 -22 -10 -38 l3 -29 135 -1 c74 0 145 -4 158
-8 14 -5 29 -3 37 4 18 15 20 70 3 70 -7 0 -80 3 -163 5 -82 3 -156 1 -163 -3z"/>
<path d="M4623 11278 c-15 -4 -34 -15 -40 -25 -27 -36 -17 -40 85 -36 58 3
115 0 142 -7 25 -7 64 -14 86 -17 40 -5 42 -4 47 29 9 56 -5 62 -157 63 -74 0
-148 -3 -163 -7z"/>
<path d="M4035 11200 c3 -5 13 -10 21 -10 8 0 12 5 9 10 -3 6 -13 10 -21 10
-8 0 -12 -4 -9 -10z"/>
<path d="M6400 11170 c-80 -33 -128 -43 -173 -38 -43 5 -45 4 -49 -24 -7 -45
12 -54 90 -40 37 7 94 17 127 23 73 12 90 30 69 70 -8 16 -16 29 -17 28 -1 -1
-22 -9 -47 -19z"/>
<path d="M3177 11173 c-4 -3 -7 -19 -7 -34 0 -38 54 -66 156 -80 42 -6 87 -15
101 -20 13 -5 45 -9 71 -9 26 0 62 -4 80 -9 18 -6 74 -13 125 -16 50 -3 95 -9
100 -12 6 -3 69 -11 141 -16 236 -18 291 -11 251 33 -14 16 -31 20 -76 20 -32
0 -61 5 -64 10 -3 6 -40 10 -80 10 -62 0 -73 2 -69 15 4 9 0 15 -9 15 -8 0
-17 -5 -19 -10 -2 -6 -29 -14 -61 -17 -43 -4 -62 -2 -75 9 -17 15 -37 15 -128
2 -36 -5 -53 0 -118 34 -53 28 -76 36 -76 26 0 -16 -65 -20 -74 -5 -3 5 -27
12 -53 16 -26 4 -58 15 -71 26 -27 20 -35 23 -45 12z"/>
<path d="M5960 11093 c-43 -20 -235 -42 -297 -35 -24 2 -54 0 -66 -6 -23 -11
-112 -20 -255 -27 -80 -3 -84 -2 -116 26 -39 33 -46 35 -46 13 0 -9 -12 -27
-26 -41 -14 -13 -24 -31 -22 -41 3 -15 18 -17 143 -17 173 1 408 14 457 26 20
5 69 11 108 14 39 2 79 9 90 15 10 5 52 10 93 10 74 0 108 14 93 39 -5 8 -106
43 -118 40 -1 0 -19 -8 -38 -16z"/>
<path d="M4312 11079 c2 -7 10 -15 17 -17 8 -3 12 1 9 9 -2 7 -10 15 -17 17
-8 3 -12 -1 -9 -9z"/>
<path d="M1552 11038 c-16 -16 -15 -28 2 -28 8 0 28 -13 44 -30 17 -16 37 -30
46 -30 13 0 14 4 4 28 -13 29 -56 71 -73 72 -6 0 -16 -5 -23 -12z"/>
<path d="M4343 11033 c-9 -14 -15 -16 -29 -7 -16 9 -23 7 -41 -13 -28 -29 -28
-29 -5 -38 81 -32 679 -49 746 -21 45 19 53 34 28 58 -17 18 -22 18 -43 7 -17
-10 -60 -13 -151 -12 -80 1 -128 -2 -128 -8 0 -14 -66 -40 -83 -33 -8 3 -19
16 -25 30 -11 23 -14 24 -93 18 -69 -4 -86 -2 -120 15 -47 25 -42 25 -56 4z"/>
<path d="M7900 11010 c-37 -35 -42 -36 -75 -14 -24 16 -25 16 -25 -8 0 -30
-28 -58 -58 -58 -11 0 -24 -4 -27 -10 -3 -5 -13 -10 -22 -10 -14 0 -65 -39
-119 -89 -25 -25 -69 -42 -87 -35 -25 9 -64 -14 -72 -43 -3 -15 -11 -34 -17
-40 -13 -16 -67 -17 -104 -2 -24 9 -30 7 -45 -12 -9 -12 -22 -19 -30 -17 -8 3
-25 -1 -39 -8 -62 -33 -161 -74 -178 -74 -10 0 -29 11 -42 25 -30 32 -44 32
-36 0 6 -22 3 -26 -23 -31 -16 -4 -32 -12 -34 -19 -7 -16 -104 -71 -143 -79
-27 -6 -35 -3 -53 21 l-21 28 -21 -27 c-13 -18 -30 -28 -47 -28 -35 0 -160
-25 -194 -38 -23 -9 -29 -8 -37 5 -8 15 -13 14 -50 -10 -41 -27 -94 -36 -106
-17 -7 11 -45 13 -69 4 -10 -4 -16 -18 -16 -40 0 -49 27 -57 131 -37 46 8 102
18 124 22 22 4 52 15 67 25 19 12 37 16 54 12 26 -7 130 13 209 40 23 8 53 14
68 14 15 0 67 13 115 29 48 16 105 32 126 36 22 4 60 17 85 29 44 22 69 31
205 73 32 10 64 26 70 36 6 9 23 17 37 17 51 0 186 66 398 194 87 52 171 127
171 152 0 24 -36 16 -70 -16z"/>
<path d="M1487 10993 c-3 -5 -8 -48 -12 -98 -4 -49 -11 -97 -15 -105 -5 -8 -4
-23 2 -33 5 -10 16 -42 23 -70 16 -62 5 -102 -25 -94 -11 3 -20 4 -20 3 0 -1
9 -19 20 -41 11 -22 20 -55 20 -75 0 -23 7 -41 20 -53 11 -9 20 -25 20 -34 0
-10 7 -27 15 -37 8 -11 15 -27 15 -36 0 -9 9 -25 20 -35 11 -10 20 -26 20 -35
0 -24 21 -40 52 -40 16 0 42 -7 58 -15 23 -12 30 -22 30 -46 0 -17 -5 -39 -10
-49 -10 -18 -8 -19 20 -13 31 6 39 1 92 -54 12 -13 33 -23 47 -23 39 0 53 -13
46 -42 -6 -25 -6 -26 37 -21 35 4 56 -1 96 -21 35 -18 50 -31 46 -40 -4 -10 0
-13 14 -10 13 4 24 -3 36 -20 19 -31 80 -37 90 -10 4 11 13 13 28 8 32 -9 35
-14 15 -25 -30 -17 -20 -32 18 -25 28 6 42 2 68 -18 26 -20 43 -24 89 -23 51
2 58 -1 78 -26 12 -15 24 -26 27 -24 2 3 29 -4 58 -14 30 -10 62 -19 72 -19 9
0 27 -9 39 -21 l22 -21 41 28 c39 25 40 28 22 40 -10 8 -45 20 -78 28 -55 14
-175 52 -255 82 -21 8 -55 20 -75 28 -21 7 -54 19 -73 26 -41 15 -65 16 -104
5 -25 -7 -27 -5 -22 11 4 14 -3 24 -27 38 -117 69 -152 86 -172 86 -13 0 -44
19 -71 43 -27 24 -76 61 -109 82 -98 63 -236 209 -275 290 l-34 70 -2 200 c-1
249 -13 338 -37 298z"/>
<path d="M1693 10943 c-13 -2 -23 -8 -23 -12 0 -14 44 -48 104 -81 32 -17 79
-44 105 -59 64 -38 290 -144 326 -154 11 -3 45 -15 75 -27 110 -43 193 -59
205 -41 19 32 -115 102 -155 81 -17 -9 -29 -7 -60 9 -72 37 -119 70 -130 91
-9 17 -14 19 -26 9 -12 -10 -20 -7 -42 14 -19 18 -39 27 -60 27 -40 0 -112 35
-112 54 0 8 -15 17 -35 20 -20 4 -41 17 -50 30 -25 38 -63 50 -122 39z"/>
<path d="M1287 10907 c-6 -16 1 -259 8 -265 3 -3 5 58 5 136 0 78 -2 142 -4
142 -2 0 -6 -6 -9 -13z"/>
<path d="M6985 10871 c-49 -15 -99 -32 -110 -38 -11 -6 -42 -15 -70 -21 -47
-9 -131 -30 -217 -53 -21 -5 -38 -13 -38 -17 0 -10 82 -52 101 -52 9 0 22 7
29 15 7 8 22 15 33 15 11 0 29 7 39 17 15 13 23 14 44 5 35 -17 41 -15 48 13
4 14 17 32 30 40 22 15 28 14 86 -9 34 -14 66 -24 70 -21 4 2 5 15 3 28 -6 28
40 87 67 87 10 0 22 5 25 10 11 18 -47 10 -140 -19z"/>
<path d="M2456 10871 c-9 -14 31 -58 59 -65 14 -4 25 -13 25 -21 0 -8 5 -15
10 -15 6 0 10 5 10 10 0 6 11 15 24 22 27 12 67 -2 136 -47 19 -12 55 -26 80
-29 24 -4 51 -13 60 -20 8 -7 36 -16 63 -19 26 -4 65 -16 87 -27 41 -21 80
-26 80 -11 0 45 -54 101 -98 101 -23 0 -203 45 -277 69 -193 63 -246 74 -259
52z"/>
<path d="M8015 10869 c-12 -18 -18 -242 -8 -279 l9 -35 28 47 c24 41 31 47 52
42 18 -5 24 -2 24 10 0 10 -9 16 -24 16 -22 0 -24 4 -24 50 -1 27 3 52 9 55
16 11 10 71 -9 88 -21 19 -48 22 -57 6z"/>
<path d="M12084 10796 c-11 -29 1 -50 34 -60 43 -12 58 2 45 41 -7 22 -17 29
-41 31 -22 2 -34 -2 -38 -12z"/>
<path d="M10198 10794 c-4 -3 -50 -5 -105 -5 -105 1 -127 -6 -117 -32 4 -12
19 -17 53 -18 142 -2 223 -1 227 4 3 2 -1 16 -7 31 -11 24 -37 34 -51 20z"/>
<path d="M10384 10785 c-4 -9 0 -23 10 -33 13 -13 39 -16 137 -17 66 0 126 3
132 7 8 5 5 13 -8 28 -17 19 -29 21 -105 19 -47 -1 -102 2 -122 6 -31 6 -39 4
-44 -10z"/>
<path d="M10800 10791 c-22 -15 -1 -44 36 -52 39 -8 264 2 264 11 0 4 -8 18
-18 30 -14 17 -22 20 -42 12 -27 -10 -110 -9 -180 2 -26 4 -51 2 -60 -3z"/>
<path d="M11229 10789 c-11 -7 -10 -12 6 -28 18 -18 36 -20 162 -22 79 -2 145
0 149 3 3 4 1 15 -4 25 -9 16 -23 18 -124 16 -62 -1 -127 2 -144 7 -17 4 -38
4 -45 -1z"/>
<path d="M11673 10793 c-21 -8 -15 -41 9 -49 27 -8 266 -11 279 -3 5 3 -1 15
-14 27 -20 19 -33 21 -112 20 -50 -1 -103 1 -120 4 -16 4 -36 4 -42 1z"/>
<path d="M6380 10710 c-8 -5 -36 -10 -61 -10 -26 0 -65 -7 -89 -15 -23 -8 -85
-18 -138 -21 -54 -4 -109 -13 -123 -20 -14 -7 -42 -10 -65 -7 -23 3 -57 -2
-84 -11 -27 -9 -79 -16 -130 -16 -108 0 -157 -22 -152 -66 5 -52 10 -55 37
-28 23 23 32 25 66 20 23 -4 46 -2 57 5 15 9 27 8 56 -6 36 -17 38 -17 59 2
12 11 45 33 74 48 58 31 101 29 110 -5 6 -24 21 -25 44 -4 20 18 73 32 157 41
46 5 52 3 46 -11 -9 -24 13 -20 82 16 l62 32 34 -18 c28 -15 38 -17 57 -7 14
8 20 18 17 28 -3 8 -6 26 -6 39 0 22 -4 24 -47 24 -27 0 -55 -5 -63 -10z"/>
<path d="M3180 10690 c-12 -7 -9 -12 17 -20 18 -7 35 -20 38 -29 10 -31 47
-44 91 -32 56 16 95 14 116 -6 10 -9 26 -18 36 -19 158 -25 271 -24 293 2 8
10 3 17 -22 30 -25 12 -48 15 -94 11 -46 -5 -70 -2 -102 13 -22 10 -80 21
-129 25 -48 4 -103 14 -121 21 -37 16 -101 18 -123 4z"/>
<path d="M8816 10657 c-5 -9 -5 -29 0 -45 7 -25 8 -26 11 -4 3 12 3 32 0 45
-3 19 -4 20 -11 4z"/>
<path d="M11575 10649 c-4 -5 -21 -9 -38 -7 -24 2 -32 -1 -35 -16 -8 -38 23
-46 172 -46 176 0 251 19 217 53 -8 8 -19 8 -40 1 -16 -6 -35 -8 -43 -3 -8 4
-36 1 -66 -7 -49 -15 -52 -14 -99 10 -54 29 -59 30 -68 15z"/>
<path d="M10268 10637 c-33 -13 -36 -32 -7 -48 23 -12 312 -10 324 3 4 3 4 15
1 26 -9 27 -62 34 -101 14 -37 -19 -89 -18 -118 3 -24 17 -59 18 -99 2z"/>
<path d="M10666 10629 c-27 -21 -28 -23 -10 -36 14 -10 56 -13 168 -12 140 1
206 10 206 29 0 19 -31 25 -145 25 -66 1 -136 4 -155 9 -29 6 -41 3 -64 -15z"/>
<path d="M11143 10641 c-65 -8 -87 -26 -58 -47 16 -13 51 -15 187 -12 117 2
171 7 180 16 23 23 -8 35 -99 37 -48 2 -104 5 -123 8 -19 3 -59 2 -87 -2z"/>
<path d="M3838 10598 c-14 -12 -14 -17 -1 -47 12 -28 18 -32 36 -26 30 9 114
9 159 0 37 -7 158 21 158 37 0 14 -67 25 -117 21 -30 -3 -72 1 -106 11 -66 19
-108 20 -129 4z"/>
<path d="M5295 10579 c-38 -5 -86 -10 -105 -12 -36 -4 -110 -25 -110 -32 0 -2
5 -15 11 -29 10 -21 15 -23 37 -15 14 6 35 9 46 8 12 -1 38 3 60 9 35 10 58 9
123 -4 15 -3 24 2 28 15 3 12 23 23 52 32 36 10 42 14 27 19 -38 14 -101 18
-169 9z"/>
<path d="M2567 10562 c-15 -9 -26 -21 -24 -27 2 -5 32 -18 68 -29 35 -10 78
-25 96 -32 44 -20 133 -19 133 1 0 8 -5 15 -10 15 -6 0 -15 12 -20 26 -9 24
-14 26 -46 21 -20 -3 -43 -2 -52 2 -41 21 -94 41 -105 41 -7 0 -24 -8 -40 -18z"/>
<path d="M10100 10565 c0 -8 5 -15 10 -15 6 0 10 7 10 15 0 8 -4 15 -10 15 -5
0 -10 -7 -10 -15z"/>
<path d="M4255 10557 c-8 -4 -15 -19 -15 -32 0 -18 7 -25 30 -30 16 -4 35 -3
42 1 16 10 76 14 101 7 9 -2 17 -11 17 -18 0 -26 20 -27 49 -2 16 13 51 30 77
36 43 11 46 13 31 28 -13 13 -43 16 -167 17 -83 1 -157 -2 -165 -7z"/>
<path d="M11963 10533 c-8 -37 -10 -1397 -3 -1638 l3 -120 -169 0 c-188 0
-222 -8 -152 -35 25 -9 55 -27 67 -39 18 -18 25 -20 37 -10 9 7 29 9 53 5 23
-3 42 -2 46 4 3 5 28 10 56 10 35 0 49 4 49 14 0 7 14 30 30 51 25 31 29 44
24 71 -5 26 -2 35 10 40 18 7 22 39 6 49 -19 12 -10 35 18 47 39 17 39 17 10
41 -50 43 -73 145 -42 192 13 20 14 31 6 55 -6 17 -8 52 -5 79 5 41 10 50 29
55 23 6 34 26 14 26 -19 0 -60 109 -53 140 3 17 10 30 15 30 5 0 5 7 0 18 -14
26 4 164 23 174 19 11 19 32 1 47 -8 7 -22 37 -31 66 -17 53 -17 55 3 90 16
25 19 41 13 58 -5 12 -12 45 -16 74 -6 48 -5 53 19 68 33 22 33 36 0 85 -28
42 -29 48 -20 174 5 75 -3 116 -24 116 -5 0 -13 -17 -17 -37z"/>
<path d="M4685 10548 c-29 -16 -29 -16 -16 -32 9 -11 8 -15 -4 -20 -18 -7 -20
-46 -2 -46 7 0 31 9 53 19 48 24 148 43 180 35 31 -8 84 3 109 22 17 13 18 16
5 24 -21 14 -300 12 -325 -2z"/>
<path d="M1287 10523 c-9 -32 -7 -92 3 -98 6 -4 10 18 10 54 0 61 -5 76 -13
44z"/>
<path d="M8038 10477 c-21 -12 -57 -49 -82 -83 -56 -77 -66 -97 -66 -126 0
-32 -18 -48 -55 -48 -22 0 -40 -9 -61 -31 -16 -17 -51 -46 -79 -64 -27 -19
-76 -52 -107 -74 -32 -23 -62 -41 -67 -41 -22 0 -119 -50 -125 -65 -8 -23 -10
-21 24 -35 27 -11 33 -10 53 7 12 11 54 35 94 53 39 18 82 43 94 56 12 13 29
24 36 24 8 0 16 7 19 15 4 8 12 15 19 15 7 0 28 13 46 30 19 16 37 30 42 30
15 0 123 117 142 154 11 22 28 49 39 60 24 28 86 125 86 137 0 13 -10 10 -52
-14z"/>
<path d="M2897 10473 c-26 -8 -45 -18 -42 -23 10 -17 145 -52 174 -45 16 3 45
-1 67 -9 56 -21 156 -44 254 -57 47 -6 100 -14 118 -16 20 -3 32 -1 32 6 0 6
-5 11 -10 11 -6 0 -18 16 -27 35 -16 33 -19 34 -69 34 -29 -1 -59 3 -66 7 -7
5 -47 12 -88 16 -115 11 -164 19 -174 29 -6 5 -20 9 -32 9 -13 0 -26 5 -29 10
-8 14 -50 11 -108 -7z"/>
<path d="M10086 10469 c-18 -17 -18 -25 -9 -81 7 -38 8 -99 4 -153 -6 -77 -5
-93 10 -113 l18 -23 12 23 c8 15 12 77 13 180 1 128 -2 160 -14 172 -13 12
-17 11 -34 -5z"/>
<path d="M3574 10405 c16 -12 17 -18 8 -27 -23 -23 -12 -43 36 -66 29 -14 66
-22 96 -22 28 0 78 -7 112 -16 74 -18 118 -16 122 7 7 37 -134 77 -308 88 -12
0 -25 12 -30 26 -6 17 -17 25 -32 25 -22 -1 -23 -1 -4 -15z"/>
<path d="M3790 10380 c0 -5 7 -10 15 -10 8 0 15 5 15 10 0 6 -7 10 -15 10 -8
0 -15 -4 -15 -10z"/>
<path d="M5698 10377 c6 -6 12 -28 14 -47 l3 -35 95 1 c110 2 222 13 233 23 4
4 4 22 1 39 -6 28 -10 32 -39 32 -18 0 -44 -6 -57 -12 -33 -18 -230 -17 -236
0 -2 6 -8 12 -14 12 -7 0 -7 -4 0 -13z"/>
<path d="M1284 10345 c-3 -8 -2 -32 4 -52 l10 -38 1 53 c1 52 -5 65 -15 37z"/>
<path d="M4034 10325 c-11 -27 5 -64 29 -69 39 -9 336 -13 348 -5 15 9 3 29
-17 29 -8 0 -35 9 -60 20 -24 12 -49 18 -55 14 -19 -12 -146 -4 -189 11 -52
18 -49 18 -56 0z"/>
<path d="M5496 10329 c-12 -7 -42 -9 -82 -5 -60 6 -63 5 -66 -16 -4 -27 -23
-32 -95 -23 -34 4 -62 14 -74 26 -14 14 -24 17 -32 11 -17 -13 -125 -30 -177
-27 -29 1 -58 -5 -80 -17 -34 -18 -38 -19 -80 -3 -31 12 -87 18 -182 21 -127
4 -137 3 -142 -14 -10 -31 4 -51 40 -58 48 -9 520 3 634 15 52 6 179 13 282
16 227 5 281 22 181 57 -72 24 -106 29 -127 17z"/>
<path d="M8823 10245 c0 -33 2 -45 4 -27 2 18 2 45 0 60 -2 15 -4 0 -4 -33z"/>
<path d="M10513 10203 c-3 -7 -1 -39 5 -70 6 -37 7 -93 1 -153 -5 -52 -7 -100
-5 -107 4 -8 134 -11 503 -11 275 0 508 -2 519 -5 37 -12 49 6 37 58 -7 33 -8
83 0 167 5 69 6 122 1 127 -11 9 -469 -1 -479 -10 -3 -4 -3 -23 0 -42 7 -33 8
-34 41 -27 19 5 80 7 137 5 94 -3 105 -1 139 21 21 13 44 24 52 24 25 0 39
-28 32 -67 -9 -50 -9 -73 -1 -104 5 -18 1 -36 -11 -54 -16 -25 -21 -26 -73
-21 -31 3 -67 6 -80 7 -13 0 -32 11 -42 22 -15 18 -20 20 -31 9 -11 -11 -10
-15 5 -23 9 -6 17 -19 17 -29 0 -45 -125 -37 -173 11 -26 26 -31 28 -46 16
-25 -22 -143 -29 -170 -11 -28 20 -48 12 -61 -22 -10 -24 -14 -26 -53 -22 -57
7 -177 64 -177 85 0 9 8 22 18 29 15 12 15 15 2 24 -8 5 -25 10 -37 10 -13 0
-24 8 -28 20 -7 22 3 88 15 95 4 3 27 -2 50 -10 29 -10 47 -12 60 -5 27 15
169 4 190 -15 15 -14 23 -13 83 15 63 30 90 56 64 65 -6 2 -122 5 -256 7 -188
2 -245 0 -248 -9z"/>
<path d="M1286 10123 c-8 -78 -6 -132 5 -139 5 -3 9 38 9 95 0 56 -2 101 -4
101 -2 0 -7 -26 -10 -57z"/>
<path d="M10092 10055 c-7 -15 -12 -77 -12 -149 0 -103 -3 -125 -16 -130 -24
-9 -13 -49 15 -56 13 -3 28 -14 32 -25 7 -18 8 -17 7 5 0 14 4 38 11 53 14 36
14 254 0 296 -13 38 -22 39 -37 6z"/>
<path d="M12117 10044 c-15 -16 -6 -71 14 -90 l22 -19 -7 44 c-8 50 -19 75
-29 65z"/>
<path d="M4145 10013 c-33 -8 -77 -20 -99 -26 -68 -19 -109 -67 -57 -67 10 0
24 -7 31 -15 15 -18 25 -19 42 -2 34 31 51 39 108 47 72 10 110 0 110 -30 0
-11 5 -20 10 -20 6 0 10 13 10 28 0 29 16 52 35 52 9 0 166 -111 194 -136 3
-3 -1 -10 -7 -16 -10 -10 -8 -16 10 -30 18 -13 21 -19 11 -29 -7 -7 -13 -18
-13 -23 0 -7 3 -8 8 -1 16 22 62 38 91 32 36 -8 35 -9 16 31 -35 70 -206 192
-269 192 -14 0 -35 4 -48 9 -46 17 -123 19 -183 4z"/>
<path d="M7960 9973 c-8 -3 -19 -12 -23 -19 -4 -8 -17 -14 -28 -14 -11 0 -22
-8 -26 -17 -3 -10 -13 -26 -21 -35 -13 -15 -13 -18 0 -23 23 -9 69 13 75 36 3
11 19 27 35 35 39 20 29 52 -12 37z"/>
<path d="M1583 9953 c-19 -7 -16 -15 15 -48 29 -31 193 -147 233 -165 13 -6
42 -22 64 -35 62 -38 124 -28 83 13 -9 9 -7 16 7 32 14 15 16 23 7 32 -8 8
-15 8 -24 0 -10 -8 -34 -1 -96 29 -45 22 -82 44 -82 49 0 4 -12 15 -26 25 -21
14 -28 14 -34 4 -7 -10 -17 -6 -44 14 -19 15 -40 27 -47 27 -7 0 -20 6 -28 14
-9 7 -22 11 -28 9z"/>
<path d="M1497 9934 c-4 -4 -7 -28 -7 -53 -1 -25 -7 -57 -15 -71 -10 -19 -12
-47 -8 -111 3 -50 2 -93 -4 -104 -8 -13 -4 -34 15 -82 23 -57 24 -68 13 -99
-11 -29 -10 -39 2 -58 8 -12 13 -33 10 -47 -4 -23 -1 -25 36 -26 52 -2 53 11
8 98 -26 49 -32 70 -26 92 9 32 2 388 -9 435 -4 19 -10 30 -15 26z"/>
<path d="M3895 9898 c-30 -17 -59 -49 -73 -81 -14 -34 -11 -43 22 -51 18 -4
33 3 67 33 36 33 41 42 30 55 -7 8 -10 24 -6 36 7 23 -8 26 -40 8z"/>
<path d="M7265 9897 c-92 -32 -193 -72 -210 -84 -11 -7 -30 -13 -42 -13 -19 0
-77 -22 -262 -97 -10 -5 -7 -11 10 -24 21 -16 22 -18 6 -24 -9 -4 -17 -13 -17
-21 0 -21 38 -17 50 6 6 11 18 20 27 20 9 0 24 6 32 13 9 8 44 24 79 36 53 19
66 20 79 9 13 -11 18 -9 31 10 8 12 23 22 33 22 10 0 21 5 24 10 11 17 101 59
132 62 16 1 34 -2 42 -6 19 -12 61 32 61 66 0 31 -19 35 -75 15z"/>
<path d="M1292 9860 c0 -19 2 -27 5 -17 2 9 2 25 0 35 -3 9 -5 1 -5 -18z"/>
<path d="M8011 9858 c-12 -33 -5 -98 10 -98 5 0 9 6 9 14 0 7 9 25 20 39 14
18 19 34 14 51 -9 37 -39 34 -53 -6z"/>
<path d="M8811 9825 c-27 -88 -39 -100 -117 -114 -34 -7 -58 -5 -87 5 -54 19
-81 18 -103 -7 -16 -17 -16 -22 -4 -29 8 -5 33 -10 55 -10 22 0 76 -3 121 -6
l80 -5 38 45 c40 49 53 96 38 136 -9 24 -9 23 -21 -15z"/>
<path d="M7716 9831 c-10 -11 -30 -21 -45 -23 -20 -2 -27 -9 -29 -30 -2 -14
-10 -32 -18 -38 -45 -39 36 -33 98 7 21 12 41 23 45 23 21 1 65 49 60 64 -10
24 -89 22 -111 -3z"/>
<path d="M9881 9813 c-18 -48 -54 -92 -94 -112 -54 -28 -46 -41 27 -43 36 -1
74 -2 84 -2 15 -1 17 10 19 74 2 120 -12 152 -36 83z"/>
<path d="M3751 9683 c-23 -46 -31 -75 -27 -94 7 -35 -8 -39 -114 -32 -88 6
-107 -7 -42 -28 20 -7 46 -18 58 -26 25 -16 46 -10 95 29 20 15 44 28 53 28
12 0 14 7 10 28 -5 23 -1 30 20 40 20 9 26 19 26 44 -1 28 -28 78 -43 78 -2 0
-18 -30 -36 -67z"/>
<path d="M4231 9721 l-22 -31 32 0 c53 0 116 -38 153 -94 42 -64 71 -90 90
-83 13 5 13 11 0 52 -18 52 -50 87 -127 138 -79 52 -100 55 -126 18z"/>
<path d="M4645 9688 c-15 -47 -15 -52 -1 -60 20 -11 46 -61 46 -88 0 -23 57
-100 73 -100 6 0 18 -7 28 -16 16 -14 18 -14 29 5 15 29 4 43 -30 36 -27 -6
-29 -4 -34 27 -5 35 -12 75 -24 148 -9 50 -37 100 -57 100 -7 0 -20 -23 -30
-52z"/>
<path d="M9225 9720 c-8 -13 -1 -24 14 -19 6 3 7 10 2 18 -6 10 -10 10 -16 1z"/>
<path d="M9378 9721 c-96 -30 -68 -44 86 -43 70 1 135 4 146 7 22 7 28 35 8
36 -66 3 -231 3 -240 0z"/>
<path d="M1284 9694 c-4 -14 -2 -30 5 -37 8 -8 11 -1 11 26 0 43 -7 48 -16 11z"/>
<path d="M7545 9700 c-8 -12 20 -24 35 -15 5 3 10 10 10 16 0 12 -37 12 -45
-1z"/>
<path d="M8013 9687 c-4 -7 -8 -68 -9 -137 -1 -163 -15 -202 -111 -316 -81
-96 -91 -124 -43 -124 23 0 33 6 40 24 4 13 19 32 32 42 29 23 48 65 48 105 0
17 6 32 15 35 8 3 31 33 51 66 29 47 35 65 30 91 -5 28 2 90 20 167 5 22 0 28
-30 41 -26 12 -38 13 -43 6z"/>
<path d="M2053 9683 c-49 -5 -52 -11 -20 -39 39 -34 84 -54 122 -54 23 0 62
-14 108 -39 62 -34 203 -86 302 -111 17 -5 55 -18 85 -29 30 -12 80 -26 110
-31 30 -5 74 -14 98 -22 54 -16 78 -4 74 38 -5 40 -15 47 -46 33 -21 -10 -31
-10 -52 1 -20 11 -29 12 -44 2 -29 -18 -45 -15 -98 18 -27 17 -53 30 -57 30
-4 0 -18 9 -32 20 -14 11 -39 20 -54 20 -16 0 -29 5 -29 10 0 6 -22 10 -50 10
-53 0 -67 15 -25 26 14 3 25 12 25 20 0 17 0 17 -43 -1 -47 -20 -72 -19 -93 3
-10 9 -27 18 -38 19 -50 4 -98 23 -131 52 -20 17 -43 30 -53 29 -9 -1 -36 -3
-59 -5z"/>
<path d="M6550 9676 c-30 -7 -62 -15 -70 -18 -30 -11 -202 -46 -285 -57 -117
-16 -131 -30 -62 -61 45 -21 82 -25 91 -11 3 4 27 11 52 15 26 3 56 13 65 22
14 12 31 15 69 12 27 -3 50 -2 50 2 0 4 26 10 57 14 88 10 97 14 121 56 l23
40 -28 -1 c-15 -1 -53 -7 -83 -13z"/>
<path d="M7408 9668 c-23 -18 -30 -19 -43 -8 -8 7 -19 9 -23 5 -4 -4 -1 -10 5
-12 9 -3 8 -11 -3 -29 -9 -13 -14 -30 -11 -38 14 -36 187 52 187 94 0 19 -84
10 -112 -12z"/>
<path d="M2897 9672 c-3 -4 -3 -19 0 -35 5 -24 9 -27 47 -27 23 0 46 -4 52 -9
5 -5 36 -11 70 -13 46 -3 71 -11 106 -35 43 -29 45 -29 57 -11 9 14 16 16 31
8 10 -5 38 -10 61 -10 29 0 57 -9 91 -31 28 -16 51 -29 53 -27 1 2 6 22 10 44
4 29 3 44 -6 49 -6 5 -53 14 -103 21 -93 14 -131 21 -246 49 -133 32 -214 42
-223 27z"/>
<path d="M4045 9672 c-5 -4 -17 -20 -26 -37 -11 -22 -22 -29 -38 -27 l-23 2
21 -36 c22 -37 29 -118 11 -129 -6 -4 -8 -38 -4 -89 6 -69 4 -88 -10 -107 -19
-28 -21 -57 -3 -78 15 -18 37 -88 37 -119 0 -12 -10 -30 -21 -41 -21 -19 -21
-24 -10 -81 11 -54 10 -65 -4 -87 -16 -23 -15 -28 6 -76 26 -61 31 -136 9
-162 -10 -12 -14 -38 -12 -89 2 -39 -2 -86 -7 -105 -9 -28 -8 -36 5 -46 11 -7
18 -33 21 -77 5 -61 4 -67 -18 -78 -20 -11 -21 -14 -7 -24 23 -17 21 -125 -3
-149 -19 -17 -18 -19 6 -67 25 -50 35 -143 16 -154 -17 -11 -20 -110 -3 -138
15 -26 15 -29 -7 -52 l-24 -25 23 -57 c32 -77 33 -136 3 -149 -26 -11 -28 -18
-11 -48 13 -25 11 -136 -3 -153 -6 -8 -3 -23 10 -45 29 -52 37 -116 16 -139
-14 -15 -16 -29 -11 -60 3 -22 1 -70 -4 -108 -9 -55 -8 -75 5 -111 23 -66 20
-125 -7 -143 -18 -12 -20 -18 -11 -29 8 -10 10 -44 8 -99 -3 -61 0 -97 11
-127 11 -28 14 -58 10 -95 -3 -29 -8 -108 -12 -175 -5 -99 -3 -130 11 -172 18
-56 13 -106 -12 -115 -10 -4 -13 -12 -8 -24 3 -9 8 -44 11 -76 3 -45 1 -63
-12 -77 -15 -17 -15 -23 11 -84 29 -67 38 -77 49 -49 3 9 6 928 6 2042 0 2003
0 2028 20 2080 11 29 20 61 20 72 0 20 -17 26 -35 12z"/>
<path d="M8907 9633 c-11 -10 -8 -71 3 -78 6 -4 10 12 10 39 0 47 -2 51 -13
39z"/>
<path d="M10093 9608 c-33 -63 -42 -99 -31 -127 6 -14 10 -55 9 -90 -1 -53 3
-68 22 -91 l24 -28 12 50 c17 75 15 292 -3 307 -12 10 -18 6 -33 -21z"/>
<path d="M8172 9599 c-7 -12 -11 -23 -8 -26 8 -9 36 17 36 33 0 20 -13 17 -28
-7z"/>
<path d="M7206 9595 c-11 -8 -30 -15 -43 -15 -40 0 -128 -45 -140 -72 -6 -14
-9 -29 -6 -32 11 -11 67 -6 94 8 14 7 43 16 63 20 62 12 106 37 106 61 0 42
-38 57 -74 30z"/>
<path d="M5985 9569 c-11 -4 -46 -8 -78 -8 -32 -1 -74 -8 -94 -16 -19 -8 -50
-15 -67 -16 -17 0 -40 -4 -50 -8 -16 -6 -14 -10 20 -30 34 -20 42 -22 75 -11
23 8 73 11 132 8 79 -3 94 -1 89 10 -3 8 2 19 11 24 37 20 3 64 -38 47z"/>
<path d="M1287 9540 c-4 -16 -2 -40 3 -52 7 -18 9 -12 9 30 1 58 -4 67 -12 22z"/>
<path d="M5550 9510 c-30 -3 -87 -5 -127 -4 -92 3 -112 -9 -92 -54 14 -32 34
-35 66 -10 7 5 41 6 82 2 90 -8 141 1 141 25 0 11 7 21 15 25 8 3 15 10 15 16
0 11 -16 11 -100 0z"/>
<path d="M6836 9475 c-14 -15 -37 -25 -71 -29 -94 -11 -102 -13 -126 -29 -15
-11 -43 -17 -81 -17 -45 0 -58 -3 -58 -15 0 -8 -7 -15 -15 -15 -8 0 -15 7 -15
15 0 23 -9 19 -57 -26 -41 -37 -47 -40 -96 -37 -48 3 -52 5 -55 31 -3 24 -22
40 -22 18 0 -11 -55 -31 -85 -31 -13 0 -36 -7 -51 -15 -16 -8 -53 -15 -82 -15
-37 0 -62 -6 -81 -19 -15 -11 -39 -23 -54 -26 -60 -16 -59 -61 2 -51 20 3 69
10 109 15 40 6 77 13 82 16 5 3 43 10 86 15 43 6 85 17 94 25 12 11 41 15 108
15 50 0 94 5 97 10 3 6 16 10 28 10 28 0 151 29 197 46 19 7 81 23 137 35 93
21 156 49 142 63 -3 4 -30 13 -59 20 -51 13 -54 13 -74 -9z"/>
<path d="M10516 9482 c-3 -9 -2 -58 3 -109 5 -53 4 -116 -1 -149 -5 -32 -7
-63 -4 -71 6 -16 111 -18 150 -3 32 12 33 32 5 77 -22 36 -42 40 -91 19 -42
-18 -33 109 9 130 13 6 32 19 43 29 17 16 39 18 170 18 109 0 154 -4 165 -13
13 -11 23 -11 49 -2 38 14 88 16 102 3 16 -15 79 -1 93 21 11 17 10 23 -2 36
-12 11 -47 15 -169 16 -84 1 -174 -2 -200 -8 -33 -6 -64 -6 -100 2 -29 6 -90
14 -135 16 -71 5 -83 3 -87 -12z"/>
<path d="M11440 9493 c-52 -2 -105 -5 -117 -8 -26 -6 -31 -40 -8 -49 8 -3 15
-15 15 -26 0 -25 28 -27 45 -3 8 11 18 14 31 8 10 -5 40 -7 66 -6 43 3 48 1
54 -23 6 -27 -11 -92 -27 -102 -6 -3 -14 -16 -19 -29 -14 -36 -119 -53 -260
-43 -31 3 -35 0 -38 -24 -4 -36 2 -37 218 -40 l175 -3 2 169 c3 169 -1 190
-32 184 -5 -1 -53 -3 -105 -5z"/>
<path d="M4921 9476 c-9 -11 -8 -22 6 -50 19 -39 30 -44 39 -21 8 19 31 19 41
0 7 -13 14 -12 51 6 33 17 48 19 70 11 15 -5 51 -7 80 -4 42 4 52 8 52 23 0
37 -49 49 -193 49 -103 0 -137 -3 -146 -14z"/>
<path d="M6475 9450 c-3 -5 -1 -18 4 -27 9 -16 10 -14 11 10 0 28 -5 34 -15
17z"/>
<path d="M4427 9415 c-15 -14 -16 -29 -11 -93 3 -43 7 -197 8 -344 1 -180 5
-271 12 -278 6 -6 22 -8 38 -4 31 7 35 43 11 102 -10 22 -13 47 -9 62 3 14 6
124 5 245 -2 183 0 225 13 250 20 38 20 46 1 39 -9 -4 -23 3 -33 16 -17 21
-19 21 -35 5z"/>
<path d="M8180 9405 c0 -8 5 -15 10 -15 6 0 10 7 10 15 0 8 -4 15 -10 15 -5 0
-10 -7 -10 -15z"/>
<path d="M3005 9368 c-23 -24 -26 -31 -14 -39 8 -5 24 -9 37 -9 13 0 32 -5 42
-10 11 -6 55 -15 99 -21 90 -12 121 -3 121 35 0 13 7 29 15 36 8 7 12 16 9 21
-8 14 -44 10 -44 -5 0 -16 -50 -28 -65 -16 -16 12 -76 28 -126 33 -42 4 -50 1
-74 -25z"/>
<path d="M1286 9307 c-5 -9 -5 -43 0 -75 8 -52 9 -54 12 -19 2 20 2 54 0 75
-3 28 -6 33 -12 19z"/>
<path d="M3378 9302 c-75 -24 -69 -30 65 -57 42 -9 82 -13 87 -10 5 3 27 1 49
-4 52 -11 77 4 67 42 -6 26 -8 27 -86 27 -43 0 -82 5 -85 10 -8 13 -39 11 -97
-8z"/>
<path d="M5720 9270 c-8 -5 -63 -10 -121 -10 -97 0 -110 -2 -143 -25 -46 -31
-108 -34 -128 -6 -11 16 -21 17 -78 10 -42 -5 -84 -4 -118 3 -45 10 -54 9 -65
-5 -30 -40 -136 -51 -160 -17 -13 18 -16 19 -27 5 -14 -17 -67 -20 -72 -4 -2
6 -11 2 -21 -9 -17 -19 -17 -20 24 -41 61 -32 247 -33 331 -1 44 16 62 19 77
11 33 -18 249 -15 306 4 34 12 65 15 102 11 28 -3 75 -1 102 5 44 9 51 14 51
34 0 14 -9 29 -19 35 -24 12 -22 12 -41 0z"/>
<path d="M9896 9273 c-9 -9 -7 -41 3 -47 5 -3 11 6 14 19 4 25 -4 40 -17 28z"/>
<path d="M11045 9243 c-11 -3 -28 -12 -37 -20 -26 -24 -110 -29 -140 -9 -21
14 -27 14 -44 2 -16 -13 -21 -12 -36 1 -21 19 -38 9 -38 -21 0 -44 23 -51 165
-53 174 -2 197 3 206 45 6 28 3 33 -24 47 -16 8 -31 14 -31 14 -1 -1 -10 -4
-21 -6z"/>
<path d="M1600 9200 c0 -37 4 -42 65 -87 36 -27 65 -56 65 -66 0 -11 17 -25
48 -39 26 -13 74 -42 106 -66 51 -38 64 -43 94 -38 19 3 37 7 39 10 12 11 -20
44 -59 61 -64 28 -195 127 -264 201 -72 76 -94 82 -94 24z"/>
<path d="M10090 9193 c-22 -42 -25 -57 -21 -138 3 -84 20 -145 40 -145 20 0
31 59 31 174 0 82 -4 128 -12 139 -12 15 -16 12 -38 -30z"/>
<path d="M3705 9173 c-11 -61 -15 -217 -6 -232 14 -23 35 -6 55 44 16 39 17
51 7 67 -10 16 -10 27 -1 49 10 23 9 35 -6 68 -22 51 -40 52 -49 4z"/>
<path d="M8814 9176 c-3 -8 -1 -23 5 -33 9 -15 10 -13 11 15 0 34 -7 42 -16
18z"/>
<path d="M12120 9161 c0 -5 7 -14 15 -21 13 -10 15 -9 15 9 0 12 -6 21 -15 21
-8 0 -15 -4 -15 -9z"/>
<path d="M4706 9138 c-12 -38 -15 -100 -5 -121 9 -19 7 -41 -5 -94 -12 -54
-14 -97 -9 -194 7 -120 7 -175 1 -278 -4 -65 13 -85 45 -53 21 21 22 31 22
170 0 81 -1 161 -2 177 -1 17 0 91 3 165 3 93 1 150 -8 184 -13 49 -34 71 -42
44z"/>
<path d="M7734 9076 c-18 -8 -49 -29 -70 -48 -35 -30 -140 -86 -355 -187 -36
-17 -69 -31 -73 -31 -5 0 -22 -6 -39 -14 -18 -7 -52 -21 -77 -30 -25 -10 -65
-27 -88 -39 -40 -19 -42 -22 -26 -34 24 -18 98 -17 113 1 7 8 36 18 65 21 48
6 55 10 77 47 23 39 25 40 69 34 25 -4 47 -11 48 -16 6 -17 20 -11 18 8 -1 11
15 25 47 40 26 12 47 26 47 31 0 11 116 101 129 101 5 0 12 7 15 16 5 12 15
15 39 11 19 -3 47 2 69 11 34 15 38 21 38 55 0 41 -2 42 -46 23z"/>
<path d="M1287 9061 c-2 -10 -1 -25 4 -32 6 -10 9 -4 9 19 0 36 -5 42 -13 13z"/>
<path d="M8816 9047 c-3 -13 -1 -36 3 -52 8 -27 9 -24 10 23 1 56 -3 66 -13
29z"/>
<path d="M3892 9041 c4 -13 18 -16 19 -4 0 4 -5 9 -11 12 -7 2 -11 -2 -8 -8z"/>
<path d="M9890 9026 c0 -8 5 -18 10 -21 6 -3 10 3 10 14 0 12 -4 21 -10 21 -5
0 -10 -6 -10 -14z"/>
<path d="M8177 9017 c-11 -29 -9 -53 4 -40 6 6 9 21 7 34 -3 21 -4 22 -11 6z"/>
<path d="M1286 8914 c-9 -23 -7 -67 4 -84 7 -11 10 2 10 43 0 59 -3 69 -14 41z"/>
<path d="M2060 8880 c0 -11 14 -29 30 -42 17 -12 30 -31 30 -42 1 -20 2 -20
14 -3 22 28 53 20 147 -38 49 -30 100 -55 114 -55 31 0 105 -29 105 -41 0 -5
8 -9 19 -9 10 0 24 -7 32 -16 8 -10 22 -14 41 -10 17 3 33 0 43 -10 22 -22 69
-14 73 12 2 17 -9 27 -60 51 -35 17 -97 41 -138 54 -41 13 -84 29 -95 36 -11
7 -29 13 -40 13 -12 0 -25 4 -30 9 -6 5 -35 19 -65 31 -30 13 -82 36 -116 51
-73 35 -104 37 -104 9z"/>
<path d="M10097 8863 c-4 -3 -7 -23 -7 -43 0 -29 8 -44 45 -80 41 -40 49 -44
95 -44 39 0 50 -3 48 -14 -7 -34 -115 -62 -146 -39 -7 6 -15 7 -19 3 -14 -14
13 -21 85 -23 43 -1 99 -5 126 -9 59 -8 60 8 3 45 -36 24 -44 42 -31 75 9 23
43 20 106 -9 63 -29 84 -48 93 -87 5 -18 14 -28 26 -28 23 0 24 13 4 43 -9 14
-11 27 -5 37 7 12 14 11 45 -6 31 -16 37 -17 45 -4 8 13 11 13 22 1 10 -11 10
-14 1 -18 -25 -9 -13 -22 15 -17 19 4 32 1 41 -10 19 -22 61 -21 61 2 0 9 -9
23 -20 30 -27 17 -44 60 -30 77 8 10 7 15 -2 21 -7 5 -138 8 -290 7 l-278 -2
0 34 c0 53 -14 78 -33 58z"/>
<path d="M1592 8842 c6 -34 173 -152 213 -152 9 0 23 -7 31 -15 9 -8 22 -15
30 -15 8 0 14 7 14 15 0 9 -9 15 -23 15 -31 0 -107 70 -107 98 0 15 -6 22 -20
22 -11 0 -28 8 -38 18 -11 11 -38 21 -61 25 -35 4 -42 3 -39 -11z"/>
<path d="M3711 8851 c-21 -13 -25 -283 -5 -308 13 -17 16 -16 37 10 21 25 23
36 20 120 -1 53 3 106 10 125 10 30 9 35 -8 48 -22 16 -34 17 -54 5z"/>
<path d="M8026 8838 c-18 -28 -31 -237 -18 -288 l9 -35 11 28 c6 15 15 27 20
27 14 0 33 50 25 63 -4 7 -8 48 -9 92 -2 123 -3 135 -14 135 -5 0 -16 -10 -24
-22z"/>
<path d="M7833 8820 c-23 -16 -45 -25 -48 -20 -9 14 -42 -6 -50 -29 -6 -19
-78 -61 -103 -61 -7 0 -12 -4 -12 -10 0 -13 -88 -63 -99 -55 -6 3 -35 -11 -65
-31 -52 -34 -91 -42 -91 -17 0 24 -15 25 -24 1 -10 -26 -67 -68 -92 -68 -8 0
-19 -9 -24 -21 -9 -18 -33 -35 -83 -58 -23 -10 -18 -26 10 -29 15 -2 44 4 65
13 52 23 91 40 133 58 98 40 372 183 391 203 13 14 22 35 21 54 0 16 4 30 9
30 5 0 9 -9 9 -21 0 -18 4 -20 26 -15 28 7 81 42 101 66 38 46 -12 53 -74 10z"/>
<path d="M1483 8814 c-7 -17 -11 -105 -11 -218 0 -165 -2 -191 -16 -202 -16
-11 -15 -15 5 -50 11 -22 24 -43 28 -49 4 -5 14 -30 21 -55 8 -25 22 -50 31
-57 11 -8 15 -21 12 -38 -4 -18 -1 -25 10 -25 25 0 67 19 67 30 0 5 -15 33
-34 62 -71 113 -78 139 -71 275 8 141 -2 315 -19 339 -11 15 -14 13 -23 -12z"/>
<path d="M12117 8794 c-8 -13 4 -64 14 -64 11 0 11 41 0 59 -5 7 -11 9 -14 5z"/>
<path d="M10785 8772 c-48 -8 -49 -14 -5 -34 75 -34 98 -55 102 -91 4 -46 29
-42 34 7 4 51 9 54 42 25 15 -14 39 -33 54 -42 29 -18 78 -23 78 -8 0 15 -30
41 -47 41 -20 0 -11 24 12 28 11 3 31 -11 54 -37 23 -26 48 -43 69 -47 41 -8
41 4 -3 46 -42 41 -45 67 -8 81 31 12 64 1 123 -42 26 -19 40 -37 42 -56 2
-17 10 -29 21 -31 15 -3 17 2 11 36 -7 46 2 56 37 38 17 -8 24 -20 24 -39 -1
-19 4 -27 16 -27 12 0 16 6 12 18 -2 10 5 26 16 36 20 18 21 18 65 -18 42 -34
86 -48 86 -26 0 5 -11 17 -25 26 -14 9 -25 25 -25 35 0 10 -4 21 -10 24 -16
10 -11 35 7 35 13 0 14 3 5 12 -8 8 -113 12 -389 13 -208 0 -387 -1 -398 -3z"/>
<path d="M8090 8741 c0 -11 5 -23 10 -26 6 -4 10 5 10 19 0 14 -4 26 -10 26
-5 0 -10 -9 -10 -19z"/>
<path d="M1287 8717 c-3 -8 -1 -20 4 -28 6 -10 9 -7 9 14 0 29 -5 35 -13 14z"/>
<path d="M1940 8663 c-12 -35 -12 -38 16 -60 16 -13 40 -26 54 -30 14 -3 54
-21 90 -39 83 -41 244 -104 268 -104 27 0 31 8 19 40 -10 26 -8 32 8 45 19 14
19 14 -5 15 -14 0 -31 -4 -38 -8 -13 -9 -116 19 -165 44 -16 8 -37 14 -47 14
-10 0 -20 7 -24 15 -3 8 -17 15 -32 15 -25 0 -64 24 -108 67 l-22 22 -14 -36z"/>
<path d="M6870 8680 c-19 -4 -60 -15 -90 -24 -123 -36 -246 -66 -272 -66 -15
0 -30 -4 -33 -10 -3 -5 -21 -10 -38 -10 -46 0 -59 -12 -55 -51 2 -27 8 -35 27
-37 14 -2 30 3 35 11 6 7 25 17 41 20 17 3 46 10 65 16 124 37 121 36 129 22
9 -14 51 -7 51 9 0 5 19 19 43 30 31 16 53 20 87 15 51 -6 58 -3 82 41 25 45
10 52 -72 34z"/>
<path d="M11895 8651 c-3 -11 -16 -22 -28 -24 -12 -2 -3 -5 21 -6 24 0 53 4
64 10 21 11 21 12 3 25 -27 20 -53 17 -60 -5z"/>
<path d="M11997 8646 c-3 -7 0 -19 6 -25 14 -14 77 -15 77 -1 0 6 -2 10 -4 10
-2 0 -19 7 -39 15 -29 12 -36 12 -40 1z"/>
<path d="M1292 8610 c0 -19 2 -27 5 -17 2 9 2 25 0 35 -3 9 -5 1 -5 -18z"/>
<path d="M2788 8633 c-24 -6 -23 -36 2 -58 11 -10 20 -24 20 -32 0 -18 10 -17
65 7 62 27 81 25 113 -9 24 -26 36 -29 112 -35 61 -5 93 -12 112 -26 l27 -20
27 25 c15 14 31 25 35 25 5 0 9 4 9 9 0 12 -58 31 -85 29 -11 -1 -41 3 -65 10
-91 23 -296 71 -325 75 -16 3 -38 3 -47 0z"/>
<path d="M8815 8599 c-4 -18 -3 -35 4 -42 8 -8 11 0 11 31 0 50 -6 54 -15 11z"/>
<path d="M4423 8608 c-10 -16 -4 -288 7 -308 5 -9 23 -15 43 -15 22 0 32 4 27
10 -4 6 -11 45 -15 88 -6 68 -4 81 11 99 18 19 18 20 1 29 -10 6 -15 15 -11
20 9 15 -26 89 -42 89 -7 0 -16 -6 -21 -12z"/>
<path d="M1286 8513 c-3 -16 -2 -53 3 -83 l9 -55 1 83 c1 84 -3 103 -13 55z"/>
<path d="M6180 8524 c-25 -7 -65 -13 -90 -13 -25 -1 -63 -6 -85 -12 -22 -6
-62 -16 -90 -23 -34 -9 -49 -18 -46 -27 2 -8 6 -26 9 -41 l4 -27 44 22 c38 18
48 19 65 9 23 -15 41 -8 33 12 -4 11 9 14 67 12 53 -1 77 3 93 14 24 19 93 56
119 64 31 10 8 26 -36 25 -23 -1 -62 -7 -87 -15z"/>
<path d="M6630 8531 c0 -12 28 -22 35 -12 3 5 -2 12 -11 15 -21 8 -24 8 -24
-3z"/>
<path d="M3370 8500 c-12 -8 -12 -11 3 -28 9 -10 17 -23 17 -29 0 -9 16 -12
121 -16 31 -1 63 -8 73 -16 15 -13 20 -10 46 20 32 38 35 35 -59 63 -58 17
-177 21 -201 6z"/>
<path d="M7015 8481 c-7 -24 -68 -61 -98 -61 -13 0 -32 -7 -44 -15 -12 -9 -48
-20 -80 -26 -32 -5 -77 -17 -100 -26 -25 -9 -55 -13 -73 -10 -26 6 -32 2 -46
-24 -8 -17 -13 -34 -10 -37 25 -24 285 26 326 63 10 9 36 15 65 15 78 0 150
58 94 75 -17 6 -20 13 -15 36 6 32 -9 40 -19 10z"/>
<path d="M8143 8443 c-13 -19 -23 -38 -23 -43 0 -4 -9 -10 -21 -13 -19 -5 -20
-3 -15 29 7 36 3 41 -44 46 -24 3 -25 0 -31 -62 -10 -91 -50 -169 -133 -259
-80 -86 -121 -119 -256 -209 -93 -62 -307 -172 -334 -172 -8 0 -37 -16 -66
-35 -29 -19 -61 -35 -71 -35 -28 0 -23 -17 6 -24 31 -8 31 -14 -4 -52 -28 -31
-84 -58 -95 -47 -14 14 -4 46 19 68 16 14 22 26 16 30 -13 8 -79 -4 -87 -16
-3 -5 -17 -9 -32 -9 -15 0 -40 -7 -57 -16 -16 -9 -54 -22 -83 -30 -29 -8 -63
-21 -77 -30 -27 -18 -44 -12 -105 38 -49 38 -109 68 -140 68 -14 0 -34 7 -44
15 -29 22 -92 19 -117 -6 -20 -20 -20 -22 -3 -40 12 -14 30 -19 64 -19 30 0
52 -6 60 -15 7 -8 23 -15 36 -15 14 0 24 -6 24 -14 0 -19 27 -28 48 -17 12 6
24 4 37 -5 10 -8 27 -14 36 -14 10 0 22 -8 28 -17 6 -11 23 -17 50 -18 62 -2
73 -20 34 -56 -34 -30 -45 -63 -18 -53 8 4 15 12 15 19 0 17 37 41 79 50 24 5
31 11 28 23 -3 10 -9 26 -12 38 -8 25 20 58 42 50 8 -3 23 -6 34 -6 11 0 23
-8 26 -17 14 -39 66 -45 106 -13 14 11 34 20 46 20 26 0 75 19 211 83 30 14
65 28 78 32 12 3 22 11 22 16 0 5 13 9 29 9 16 0 36 7 45 15 8 8 20 15 27 15
7 0 27 13 44 29 16 16 54 42 83 58 108 56 103 53 92 73 -6 10 -15 22 -20 25
-15 9 19 55 40 55 10 0 32 -8 50 -17 30 -17 32 -17 45 1 8 11 15 28 15 38 0
10 6 18 13 18 6 0 23 19 37 41 23 38 142 162 184 192 16 12 18 22 13 65 -5 45
-3 55 24 92 17 23 29 49 27 59 -2 14 -8 10 -25 -16z"/>
<path d="M2480 8447 c-59 -20 -51 -43 25 -66 37 -12 81 -21 99 -21 17 0 65
-13 106 -29 74 -29 128 -44 205 -61 22 -4 56 -13 75 -18 72 -21 126 -24 140
-7 13 16 12 17 -44 30 -16 3 -43 17 -61 31 -18 13 -45 24 -62 24 -17 0 -36 7
-43 15 -7 8 -25 15 -41 15 -29 0 -56 5 -179 35 -119 29 -129 33 -145 49 -19
19 -28 19 -75 3z"/>
<path d="M5645 8450 c-49 -4 -124 -13 -165 -20 -41 -7 -88 -13 -105 -12 -148
5 -504 -13 -537 -26 -29 -12 -39 -42 -15 -42 8 0 22 -9 32 -20 15 -16 21 -18
33 -8 15 13 55 18 187 21 44 1 91 8 104 16 26 14 70 9 114 -14 18 -9 34 -11
45 -6 61 31 74 33 129 27 45 -5 63 -3 80 9 18 12 44 15 118 13 95 -3 96 -3
112 24 10 15 15 29 13 31 -12 10 -63 13 -145 7z"/>
<path d="M6190 8291 c0 -6 5 -13 10 -16 18 -11 10 -43 -15 -59 -14 -9 -23 -22
-19 -27 7 -12 43 -8 149 15 39 8 87 15 107 16 21 0 52 9 70 20 l32 19 -48 21
c-57 24 -73 25 -92 5 -9 -8 -28 -15 -43 -15 -16 0 -42 -3 -59 -6 -23 -5 -34
-1 -48 15 -19 22 -44 28 -44 12z"/>
<path d="M3195 8254 c-22 -34 -9 -48 48 -51 98 -6 193 -19 207 -28 21 -13 253
-35 264 -25 18 18 -16 38 -81 50 -36 6 -78 17 -93 25 -14 7 -71 16 -126 20
-116 7 -162 14 -170 26 -10 17 -32 9 -49 -17z"/>
<path d="M8818 8218 c-3 -29 -1 -57 4 -62 4 -6 8 18 8 52 0 76 -7 81 -12 10z"/>
<path d="M6015 8242 c-27 -22 -121 -42 -230 -48 -170 -9 -178 -9 -197 0 -14 6
-18 4 -18 -10 0 -9 -8 -26 -17 -37 -18 -19 -16 -19 117 -13 74 3 151 8 170 10
19 2 87 7 150 12 73 4 123 13 138 22 12 8 20 17 18 20 -4 3 -115 51 -121 52
-1 0 -5 -4 -10 -8z"/>
<path d="M4427 8203 c-11 -10 -8 -283 3 -303 15 -29 60 -7 60 30 0 14 5 31 12
38 9 9 8 16 -5 30 -22 24 -23 88 -2 96 20 7 10 53 -16 79 -11 10 -19 22 -19
27 0 11 -23 13 -33 3z"/>
<path d="M4526 8193 c-12 -12 -6 -33 9 -33 8 0 15 6 15 14 0 17 -14 28 -24 19z"/>
<path d="M4887 8120 c-14 -11 -36 -20 -49 -20 -27 0 -88 -51 -88 -73 0 -8 -6
-17 -13 -20 -23 -9 -46 -106 -40 -172 5 -71 5 -71 -3 -249 -4 -97 -3 -155 6
-191 10 -43 10 -56 -2 -81 -9 -16 -18 -48 -22 -72 -5 -37 -3 -46 15 -61 19
-15 21 -21 11 -52 -13 -38 -16 -127 -6 -176 4 -20 0 -49 -11 -77 -14 -37 -15
-50 -5 -80 6 -20 21 -42 32 -50 20 -14 20 -14 0 -25 -27 -14 -35 -83 -15 -127
15 -30 15 -38 -1 -98 -10 -36 -15 -73 -12 -82 3 -9 6 -57 7 -108 0 -50 5 -108
11 -128 8 -29 7 -47 -5 -85 -17 -55 -16 -250 2 -295 11 -29 1 -107 -20 -160
-9 -23 -8 -32 12 -59 18 -26 20 -33 8 -39 -12 -7 -13 -31 -7 -131 3 -68 3
-130 -1 -137 -4 -8 -6 -35 -3 -61 3 -39 -1 -55 -22 -89 -29 -47 -36 -49 -71
-26 -20 13 -28 14 -40 4 -18 -15 -35 -5 -35 20 0 10 -7 23 -16 28 -8 5 -18 27
-21 50 -4 33 -2 43 11 48 9 3 16 15 16 26 0 14 -5 18 -15 14 -12 -4 -15 3 -15
32 -1 44 -22 77 -45 68 -13 -5 -15 -29 -13 -183 l3 -178 165 -7 c177 -7 186
-5 174 42 -4 14 -8 390 -9 835 -2 446 -3 825 -3 843 0 17 0 105 1 195 0 89 0
180 -1 202 -1 22 1 211 3 420 3 209 5 387 5 396 0 25 83 107 116 114 73 15
109 32 112 53 3 19 -1 22 -36 22 -24 0 -49 -8 -65 -20z"/>
<path d="M1654 8060 c1 -39 5 -52 19 -56 9 -3 18 -10 18 -15 1 -5 2 -13 3 -18
2 -20 17 -24 40 -11 14 7 35 10 48 7 31 -8 141 -94 150 -116 3 -10 22 -28 42
-39 20 -12 36 -26 36 -32 0 -5 11 -10 25 -10 29 0 85 -37 85 -57 0 -7 7 -13
15 -13 8 0 15 7 15 15 0 19 19 19 26 0 4 -8 25 -18 47 -22 27 -4 50 -16 68
-36 27 -30 28 -30 62 -13 19 9 43 16 52 16 9 0 15 5 13 12 -4 12 -10 16 -73
43 -22 10 -52 24 -67 32 -14 7 -32 13 -40 13 -19 0 -236 111 -305 157 -32 21
-65 41 -73 44 -8 4 -47 34 -86 67 -63 53 -104 82 -117 82 -2 0 -3 -23 -3 -50z"/>
<path d="M5060 8066 c0 -8 16 -38 35 -67 33 -51 35 -58 36 -149 1 -52 0 -149
-2 -215 -2 -66 -3 -136 -2 -155 4 -140 7 -1927 4 -2235 -1 -60 -4 -129 -8
-153 -9 -71 30 -97 106 -71 38 13 36 30 -4 41 -15 4 -32 13 -36 20 -13 19 -11
55 4 70 15 16 14 270 -2 311 -13 32 -15 100 -3 111 4 4 7 33 8 64 0 32 4 87 9
124 5 47 4 72 -3 81 -7 8 -18 33 -26 55 -14 39 -14 45 5 77 14 23 26 32 37 29
16 -5 16 -5 0 8 -18 15 -25 124 -13 184 5 21 1 42 -9 62 -18 36 -21 98 -5 108
8 4 9 27 5 68 -3 33 -1 89 4 124 9 51 8 68 -5 92 -20 38 -19 99 1 121 12 13
13 22 6 35 -16 28 -3 166 16 182 14 10 14 16 4 30 -21 29 -34 66 -39 108 -4
34 -1 46 17 64 20 20 21 24 7 32 -14 7 -16 21 -10 86 3 42 9 82 14 87 4 6 -3
35 -16 65 -29 66 -31 111 -7 133 15 13 17 33 15 141 -1 86 -7 136 -18 162 -8
20 -15 46 -15 58 0 11 -11 45 -25 74 -21 46 -28 52 -55 52 -19 0 -30 -5 -30
-14z"/>
<path d="M5572 8031 c-68 -15 -98 -34 -86 -53 9 -14 52 -9 58 7 12 33 116 12
165 -33 16 -15 43 -12 49 6 2 7 -6 12 -22 12 -14 0 -26 5 -26 10 0 6 7 10 16
10 25 0 118 -32 129 -44 6 -6 28 -20 50 -31 23 -12 39 -27 38 -35 -2 -9 11
-21 28 -29 17 -7 34 -24 39 -37 5 -13 13 -24 18 -24 11 0 32 -46 32 -71 0 -11
7 -22 15 -26 9 -3 30 -19 48 -35 70 -65 85 -72 122 -58 18 7 25 17 25 35 0 20
-5 25 -27 25 -14 0 -34 -7 -44 -16 -20 -18 -39 -11 -39 14 0 28 -28 100 -57
145 -55 87 -188 197 -238 197 -8 0 -49 11 -91 25 -88 29 -102 29 -202 6z"/>
<path d="M3711 8027 c-15 -18 -24 -307 -10 -327 9 -13 12 -12 22 4 7 10 22 31
35 46 17 22 20 34 14 52 -5 12 -12 52 -15 88 -6 63 1 95 19 89 12 -4 30 49 20
58 -4 5 -14 -1 -22 -12 -14 -19 -16 -19 -25 -2 -12 20 -23 22 -38 4z"/>
<path d="M5420 7998 c0 -7 4 -19 9 -27 11 -17 25 3 17 24 -7 18 -26 20 -26 3z"/>
<path d="M8817 7983 c-2 -5 -1 -19 4 -33 7 -23 7 -23 8 8 1 31 -3 40 -12 25z"/>
<path d="M12130 7916 c0 -14 5 -28 11 -32 17 -10 32 12 24 35 -9 29 -35 27
-35 -3z"/>
<path d="M10230 7919 c-8 -5 -44 -9 -80 -8 -112 1 -140 -1 -140 -10 0 -18 59
-30 178 -35 111 -5 123 -3 120 11 -5 25 -60 54 -78 42z"/>
<path d="M10430 7917 c0 -29 44 -47 100 -40 29 3 74 1 105 -7 58 -14 88 -9 79
14 -9 23 -54 34 -144 35 -47 1 -97 3 -112 7 -21 4 -28 2 -28 -9z"/>
<path d="M11717 7924 c-31 -31 26 -56 129 -55 44 0 97 -1 118 -2 51 -3 56 15
11 42 -29 17 -40 19 -57 10 -21 -11 -150 -8 -179 5 -8 4 -18 3 -22 0z"/>
<path d="M10843 7903 c-10 -24 9 -30 104 -33 54 -1 118 -3 143 -4 34 -1 45 3
48 16 5 24 -28 31 -167 32 -88 1 -125 -2 -128 -11z"/>
<path d="M11280 7903 c0 -26 53 -38 136 -32 44 3 87 2 96 -3 27 -13 58 -9 65
8 12 31 -15 37 -157 39 -115 2 -140 0 -140 -12z"/>
<path d="M4424 7795 c-11 -17 -14 -34 -9 -52 4 -16 7 -166 6 -334 -1 -331 3
-356 46 -328 25 15 39 74 24 93 -6 7 -10 46 -9 87 1 41 -1 143 -5 227 -6 150
-6 154 14 159 18 5 20 11 15 46 -6 34 -51 127 -62 127 -2 0 -11 -11 -20 -25z"/>
<path d="M5580 7756 c-6 -8 -21 -16 -33 -18 -12 -2 -26 -12 -32 -23 -16 -33
-105 -145 -115 -145 -15 0 -23 -42 -9 -50 15 -10 23 -106 9 -115 -6 -3 -10
-17 -10 -31 0 -17 5 -24 19 -24 11 0 27 -10 35 -22 9 -12 18 -19 22 -15 4 3 9
68 11 144 5 128 7 141 31 173 49 68 70 79 147 80 57 0 79 -5 119 -26 26 -14
50 -23 53 -20 14 14 -16 62 -45 72 -18 5 -37 15 -44 22 -18 18 -142 16 -158
-2z"/>
<path d="M10250 7740 l-20 -29 362 0 c200 0 378 3 396 7 l34 7 -21 19 c-20 18
-42 20 -376 22 l-355 2 -20 -28z"/>
<path d="M11135 7761 c-37 -13 -75 -34 -75 -43 0 -10 18 -10 220 -8 85 1 158
4 163 7 5 3 -6 16 -24 29 -31 22 -41 24 -148 23 -64 -1 -125 -4 -136 -8z"/>
<path d="M11525 7749 c-16 -13 -23 -25 -17 -31 5 -5 79 -9 165 -10 161 -1 192
6 185 40 -2 13 -29 16 -154 19 -142 3 -153 1 -179 -18z"/>
<path d="M11963 7715 c-12 -31 -10 -1736 3 -1758 9 -16 13 -13 36 21 15 23 22
45 18 53 -4 8 -10 37 -14 66 -6 46 -4 53 14 63 25 13 25 39 1 82 -27 46 -36
95 -21 114 16 18 22 171 8 197 -7 14 -6 23 5 34 13 13 13 21 -4 69 -23 65 -23
69 0 119 13 27 16 45 10 57 -15 28 -11 128 5 128 26 0 37 64 12 73 -8 3 -22
30 -32 60 -15 49 -15 57 -2 84 11 22 13 45 7 94 -8 68 -6 79 17 79 21 0 18 54
-7 103 -12 23 -25 54 -30 70 -9 30 4 76 24 89 9 6 9 12 0 28 -7 11 -13 28 -13
38 0 10 -6 27 -14 38 -14 19 -15 19 -23 -1z"/>
<path d="M2448 7640 c12 -12 22 -27 22 -35 0 -8 17 -23 38 -33 32 -16 40 -17
62 -6 39 21 60 16 125 -26 33 -22 75 -42 95 -45 19 -3 60 -13 90 -23 47 -15
55 -21 53 -40 -3 -25 9 -29 26 -9 20 25 73 7 119 -40 26 -26 51 -42 60 -40 13
3 10 7 -11 17 -21 10 -27 19 -23 34 3 11 0 26 -6 33 -8 10 -6 18 7 33 18 19
17 20 -4 20 -12 0 -32 6 -44 12 -12 7 -42 18 -67 24 -25 7 -92 24 -149 39 -57
14 -120 32 -140 39 -20 8 -63 21 -96 31 -33 9 -74 21 -91 26 -17 5 -43 9 -59
9 l-29 0 22 -20z"/>
<path d="M3775 7620 c-3 -6 -16 -8 -29 -4 -41 10 -50 -16 -42 -120 6 -91 6
-94 -16 -100 -44 -11 -98 -6 -135 14 -24 13 -57 20 -90 20 -28 0 -55 5 -58 10
-3 6 -21 10 -40 10 -18 0 -55 5 -82 11 -36 8 -56 8 -78 -1 -28 -11 -28 -13
-10 -20 11 -4 27 -17 36 -28 9 -11 23 -22 30 -24 12 -4 12 -7 0 -21 -11 -14
-11 -18 4 -24 12 -4 24 1 37 17 14 18 32 24 72 28 62 5 90 -14 80 -54 -8 -30
2 -31 26 -2 16 21 22 22 66 13 27 -6 72 -9 99 -6 42 3 55 9 79 37 24 30 28 43
30 100 1 57 3 64 19 60 14 -3 17 2 17 29 0 18 3 40 6 49 7 17 -11 22 -21 6z"/>
<path d="M5880 7621 l-25 -7 -3 -148 c-3 -167 3 -177 52 -87 25 46 27 56 16
76 -13 24 -10 124 5 158 8 18 -1 20 -45 8z"/>
<path d="M10095 7580 c-26 -79 -29 -246 -4 -278 l18 -23 13 23 c19 35 24 254
6 298 l-15 35 -18 -55z"/>
<path d="M12115 7574 c7 -39 25 -74 37 -74 12 0 9 22 -7 54 -8 15 -15 35 -15
42 0 8 -5 14 -11 14 -7 0 -9 -12 -4 -36z"/>
<path d="M2577 7473 c-12 -11 -8 -23 8 -23 8 0 15 -7 15 -15 0 -8 9 -15 20
-15 20 0 20 0 -2 30 -22 31 -30 35 -41 23z"/>
<path d="M6418 7434 c-4 -3 -28 -6 -53 -6 -36 0 -53 -5 -70 -22 -12 -12 -36
-31 -53 -42 -38 -24 -102 -116 -102 -147 0 -13 -5 -28 -11 -34 -8 -8 -3 -29
15 -75 32 -80 32 -93 2 -123 -23 -23 -24 -29 -21 -143 2 -96 7 -128 24 -167
23 -53 21 -98 -6 -113 -11 -7 -16 -33 -19 -108 -4 -90 -1 -107 21 -162 31 -76
31 -87 2 -115 -23 -21 -24 -27 -20 -137 5 -181 6 -207 1 -350 -4 -116 -2 -143
15 -190 27 -76 26 -118 -4 -140 -22 -17 -23 -21 -12 -62 11 -43 8 -93 -8 -114
-5 -6 -5 -32 0 -60 5 -27 7 -52 5 -56 -7 -12 -66 -10 -102 3 -22 7 -33 19 -37
39 -4 16 -14 30 -26 33 -15 4 -19 13 -17 38 3 33 3 33 -37 30 -22 -1 -43 -6
-46 -9 -10 -11 -20 -166 -11 -179 6 -9 37 -10 130 -3 68 5 127 12 132 15 5 3
21 -2 35 -11 58 -38 55 -98 54 1013 0 560 0 1063 0 1118 l1 100 39 40 c21 22
58 56 82 76 36 30 48 34 66 26 12 -5 23 -17 26 -27 2 -9 17 -20 33 -23 41 -8
112 -82 120 -124 4 -19 8 -148 9 -286 1 -139 5 -268 9 -288 5 -24 4 -39 -3
-43 -7 -5 -11 -61 -11 -165 0 -147 1 -159 21 -177 20 -18 21 -18 40 6 20 27
26 85 9 95 -16 10 -12 96 6 116 15 17 15 22 -1 73 -12 36 -15 64 -10 83 5 15
7 33 5 38 -2 6 -4 123 -5 260 -2 158 -7 261 -14 279 -8 20 -8 33 -2 39 7 7 5
14 -4 21 -8 6 -26 31 -39 56 -19 37 -30 46 -57 50 -24 4 -33 10 -31 22 1 10
-9 20 -29 27 -37 13 -34 12 -41 5z"/>
<path d="M8816 7423 c-3 -10 -2 -31 3 -48 9 -28 9 -27 10 18 1 49 -4 60 -13
30z"/>
<path d="M9890 7413 c0 -5 5 -15 10 -23 8 -12 10 -11 10 8 0 12 -4 22 -10 22
-5 0 -10 -3 -10 -7z"/>
<path d="M2883 7393 c-7 -2 -13 -9 -13 -15 0 -14 43 -6 48 10 4 12 -12 15 -35
5z"/>
<path d="M3030 7360 c0 -39 15 -39 16 0 1 17 -3 30 -7 30 -5 0 -9 -13 -9 -30z"/>
<path d="M3165 7350 c-4 -6 7 -10 24 -10 17 0 31 5 31 10 0 6 -11 10 -24 10
-14 0 -28 -4 -31 -10z"/>
<path d="M10520 7338 c0 -2 -2 -79 -3 -171 -2 -178 2 -195 43 -182 11 3 165 7
343 7 375 0 423 9 285 55 -43 15 -70 18 -115 13 -36 -5 -63 -3 -71 3 -10 8
-19 7 -32 -1 -11 -6 -32 -9 -48 -6 -19 4 -43 -1 -70 -15 -30 -15 -47 -19 -59
-12 -90 47 -128 62 -151 57 -22 -5 -31 0 -47 27 -28 44 -20 93 14 89 17 -2 32
7 50 29 26 30 29 31 126 35 71 4 115 11 153 26 28 12 52 25 52 29 0 4 -19 11
-42 14 -51 8 -313 -1 -328 -10 -6 -4 -9 -14 -5 -22 7 -20 -21 -63 -41 -63 -27
0 -29 31 -3 51 24 19 24 20 5 34 -17 13 -55 21 -56 13z"/>
<path d="M11100 7332 c-34 -5 -52 -21 -48 -46 1 -12 -1 -27 -6 -34 -15 -25 4
-26 45 -3 27 16 51 22 72 18 18 -2 39 -1 49 4 9 5 29 4 47 -2 27 -10 42 -7
101 17 39 16 70 32 70 36 0 15 -241 22 -330 10z"/>
<path d="M11498 7323 c-8 -10 -21 -34 -27 -53 -12 -34 -11 -36 26 -68 32 -28
36 -35 25 -50 -7 -9 -16 -27 -21 -38 -23 -53 -95 -69 -153 -35 -34 22 -56 18
-37 -5 9 -11 9 -18 1 -26 -18 -18 -14 -46 6 -52 9 -3 68 -6 131 -8 139 -3 141
-2 124 99 -8 45 -9 81 -3 108 5 22 10 64 10 93 l0 52 -33 0 c-20 0 -40 -7 -49
-17z"/>
<path d="M10091 7238 c-11 -35 -12 -44 -11 -205 0 -101 10 -153 29 -153 20 0
31 69 31 195 0 169 -23 243 -49 163z"/>
<path d="M5429 7233 c-25 -27 -25 -32 -25 -167 l1 -139 28 -10 c16 -5 31 -6
35 -2 9 9 16 268 8 311 -8 41 -15 42 -47 7z"/>
<path d="M5860 7231 c-12 -23 -14 -341 -2 -341 4 0 21 26 36 58 25 51 28 67
27 147 -1 67 2 95 13 110 26 33 19 45 -24 45 -29 0 -42 -5 -50 -19z"/>
<path d="M11432 7217 c-9 -11 -10 -17 -2 -22 15 -9 23 -1 18 21 -3 15 -4 16
-16 1z"/>
<path d="M4424 6998 c-11 -18 -5 -284 7 -315 7 -19 14 -23 27 -18 9 4 25 7 35
7 21 -1 21 19 2 73 -27 73 -17 120 34 162 35 28 20 41 -16 13 l-28 -22 -6 40
c-8 58 -37 89 -55 60z"/>
<path d="M8822 6960 c0 -19 2 -27 5 -17 2 9 2 25 0 35 -3 9 -5 1 -5 -18z"/>
<path d="M9895 6957 c-4 -15 -13 -31 -20 -37 -8 -6 -17 -25 -20 -41 -5 -22
-11 -29 -23 -24 -20 7 -124 -35 -119 -49 2 -7 45 -12 106 -14 l103 -3 -6 93
c-7 99 -11 115 -21 75z"/>
<path d="M9350 6854 c-19 -9 -46 -20 -60 -25 -47 -19 2 -29 146 -29 150 0 188
9 162 41 -11 13 -27 14 -93 9 -61 -5 -83 -3 -91 7 -14 16 -20 16 -64 -3z"/>
<path d="M2333 6834 c-7 -11 -30 -26 -52 -33 -30 -9 -41 -17 -41 -32 0 -36 56
-38 98 -2 18 15 20 24 14 53 -8 33 -9 34 -19 14z"/>
<path d="M5448 6833 c-29 -32 -40 -76 -44 -168 -2 -49 -4 -99 -6 -109 -2 -15
5 -21 32 -27 19 -4 37 -5 39 -3 9 9 13 280 4 302 -9 22 -10 22 -25 5z"/>
<path d="M5934 6839 c-3 -6 -17 -8 -31 -4 -48 12 -53 -5 -53 -166 0 -82 4
-149 9 -149 5 0 19 9 32 19 23 18 24 25 21 118 -3 89 0 103 22 146 14 26 21
47 16 47 -5 0 -12 -5 -16 -11z"/>
<path d="M8960 6841 c0 -13 26 -32 33 -24 8 7 -11 33 -24 33 -5 0 -9 -4 -9 -9z"/>
<path d="M10089 6828 c-7 -13 -14 -58 -15 -101 -2 -43 -6 -82 -9 -88 -4 -5 -1
-9 4 -9 14 0 14 -39 0 -79 -10 -29 -9 -34 16 -57 15 -14 30 -23 32 -20 22 22
31 289 12 345 -13 37 -24 39 -40 9z"/>
<path d="M3787 6822 c-15 -16 -15 -19 4 -31 23 -14 26 -13 29 9 6 43 -7 51
-33 22z"/>
<path d="M2476 6821 c-16 -25 7 -34 72 -28 36 4 70 3 76 -2 15 -11 126 -22
126 -11 0 4 -12 10 -27 13 -16 4 -50 11 -78 17 -77 18 -162 23 -169 11z"/>
<path d="M12116 6761 c-8 -12 3 -41 15 -41 12 0 12 37 0 45 -5 3 -12 1 -15 -4z"/>
<path d="M2115 6692 c-3 -14 -20 -41 -36 -59 -49 -56 -35 -70 29 -29 74 47 87
81 37 104 -21 10 -24 8 -30 -16z"/>
<path d="M2375 6683 c-48 -5 -63 -17 -46 -36 7 -10 43 -16 109 -20 109 -6 193
-34 340 -113 87 -47 85 -47 96 12 5 29 2 32 -26 38 -17 3 -45 6 -62 6 -17 0
-40 6 -51 14 -107 74 -241 111 -360 99z"/>
<path d="M3800 6635 c0 -8 5 -15 10 -15 6 0 10 7 10 15 0 8 -4 15 -10 15 -5 0
-10 -7 -10 -15z"/>
<path d="M10517 6624 c-10 -10 -8 -71 3 -119 6 -26 5 -70 -2 -128 -15 -116
-14 -117 111 -108 103 7 124 20 69 45 -18 8 -46 26 -63 40 -25 22 -27 26 -12
32 19 7 23 29 6 40 -6 3 -16 1 -22 -5 -16 -16 -44 -13 -51 5 -17 45 -1 115 33
141 22 17 66 16 81 -2 10 -11 32 -14 104 -12 74 3 95 0 114 -14 22 -17 25 -17
69 3 38 17 55 19 97 12 28 -5 82 -9 121 -9 55 0 70 3 70 15 0 8 8 16 18 18 15
3 18 0 12 -17 -5 -15 -2 -21 9 -21 9 0 16 5 16 10 0 6 5 10 10 10 14 0 12 -28
-2 -33 -7 -2 -10 -8 -6 -12 4 -4 29 3 55 15 126 59 163 60 163 6 0 -19 -7 -39
-15 -46 -8 -7 -15 -20 -15 -29 0 -9 -5 -22 -12 -29 -9 -9 -7 -17 10 -35 27
-28 20 -37 -26 -37 -20 0 -50 -5 -68 -12 -26 -9 -38 -9 -57 1 -13 7 -41 11
-63 9 -36 -3 -39 -6 -42 -35 -3 -29 0 -33 35 -42 49 -13 284 -18 302 -7 11 7
12 27 8 85 -3 42 -2 114 2 161 7 70 5 87 -7 97 -8 7 -19 10 -24 7 -12 -8 -973
-6 -1002 2 -12 3 -25 2 -29 -2z"/>
<path d="M2199 6569 c-19 -26 -20 -34 -9 -54 7 -13 10 -34 7 -46 -6 -23 13
-55 63 -108 14 -14 41 -50 59 -80 18 -30 39 -60 46 -67 7 -7 15 -35 19 -63 l7
-51 42 3 c54 4 59 27 17 85 -16 23 -30 44 -30 46 0 9 -63 100 -124 180 -57 74
-60 81 -59 132 1 30 -2 54 -7 54 -5 0 -19 -14 -31 -31z"/>
<path d="M4431 6591 c-17 -11 -12 -294 5 -311 17 -17 67 17 59 39 -4 9 -9 45
-12 81 -4 53 -2 68 11 79 24 20 19 42 -17 83 -22 24 -37 34 -46 29z"/>
<path d="M5450 6472 c0 -10 -10 -36 -22 -57 -19 -34 -22 -56 -23 -150 0 -60
-4 -120 -9 -132 -7 -19 -5 -21 31 -20 21 0 41 5 45 11 9 13 10 276 2 329 -7
38 -24 52 -24 19z"/>
<path d="M2933 6453 c-18 -2 -33 -10 -33 -17 0 -7 24 -39 53 -72 100 -111 154
-225 202 -423 8 -34 24 -76 36 -92 14 -20 18 -36 13 -51 -11 -35 -5 -127 12
-166 8 -19 14 -46 14 -60 0 -14 9 -65 20 -112 10 -47 22 -101 25 -121 3 -19
12 -44 19 -55 14 -18 15 -18 26 11 16 39 16 102 0 140 -7 17 -14 44 -16 60 -1
17 -8 53 -14 80 -15 61 -18 132 -7 162 7 19 4 25 -17 33 -28 10 -32 20 -15 37
9 9 8 21 -3 50 -9 21 -13 43 -11 49 2 6 -10 52 -27 101 -16 50 -30 101 -30
113 0 12 -19 45 -43 73 -68 84 -87 114 -87 145 0 20 -9 35 -30 50 -19 15 -30
31 -30 47 0 14 -5 24 -12 23 -7 0 -28 -3 -45 -5z"/>
<path d="M3800 6423 c0 -28 3 -34 10 -23 13 20 13 60 0 60 -5 0 -10 -17 -10
-37z"/>
<path d="M5856 6434 c-9 -25 -7 -344 3 -344 4 0 21 26 37 58 27 53 29 65 29
166 l-1 110 -31 13 c-27 10 -32 10 -37 -3z"/>
<path d="M9897 6403 c-10 -9 -9 -43 2 -43 13 0 23 32 13 42 -5 5 -11 5 -15 1z"/>
<path d="M10094 6383 c-23 -30 -39 -119 -24 -128 12 -7 11 -133 -1 -140 -16
-11 -10 -23 21 -38 l30 -15 10 36 c5 21 10 92 10 159 0 159 -7 179 -46 126z"/>
<path d="M10785 6371 c-3 -5 -1 -12 5 -16 5 -3 10 -19 10 -35 0 -23 6 -30 31
-39 43 -15 306 -15 315 0 3 6 -7 25 -23 41 -27 26 -33 29 -53 18 -18 -10 -25
-8 -44 9 -21 19 -28 20 -107 12 -65 -7 -89 -6 -106 5 -12 8 -24 10 -28 5z"/>
<path d="M9902 6190 c0 -19 2 -27 5 -17 2 9 2 25 0 35 -3 9 -5 1 -5 -18z"/>
<path d="M4420 6179 c-7 -11 -9 -28 -5 -37 3 -9 6 -151 6 -316 0 -170 4 -317
9 -338 l10 -37 30 17 c31 18 38 40 19 59 -7 7 -9 34 -5 74 3 35 5 75 5 89 -1
14 -2 122 -3 240 -2 188 -5 219 -20 243 -22 32 -32 34 -46 6z"/>
<path d="M6572 6168 c-4 -13 -5 -87 -2 -166 5 -152 9 -162 58 -162 19 0 22 5
22 44 0 23 -5 57 -11 75 -15 44 -3 95 31 135 35 39 37 46 12 46 -10 0 -29 11
-42 25 -29 31 -58 32 -68 3z"/>
<path d="M2478 6023 c-4 -43 -2 -60 8 -66 8 -4 14 -18 14 -30 0 -12 7 -35 15
-51 8 -15 15 -36 15 -46 0 -9 9 -29 20 -43 23 -29 24 -41 8 -103 -11 -41 -11
-47 5 -59 20 -14 41 -165 42 -299 0 -54 4 -81 13 -83 6 -3 12 -16 12 -29 0
-31 38 -107 49 -100 5 3 11 17 13 31 7 36 -18 243 -36 292 -10 29 -13 60 -9
93 3 30 1 60 -5 73 -6 12 -13 54 -15 92 -4 67 -23 152 -45 205 -6 14 -18 50
-27 80 -15 50 -48 100 -66 100 -3 0 -9 -26 -11 -57z"/>
<path d="M5452 6048 c-7 -7 -12 -17 -12 -23 0 -7 -8 -27 -17 -46 -10 -21 -18
-63 -20 -109 -1 -41 -3 -91 -5 -110 -3 -33 -1 -35 30 -38 45 -5 52 20 52 181
0 136 -6 167 -28 145z"/>
<path d="M5930 6036 c-6 -8 -26 -16 -43 -18 l-32 -3 -3 -167 c-1 -100 1 -168
7 -168 5 0 17 21 27 48 10 26 22 53 27 60 5 6 7 26 3 43 -4 23 0 39 15 60 19
27 18 56 -2 44 -5 -4 -9 5 -9 19 0 15 8 30 20 36 12 6 20 21 20 35 0 28 -12
32 -30 11z"/>
<path d="M3800 6004 c0 -14 4 -23 10 -19 6 3 10 15 10 26 0 10 -4 19 -10 19
-5 0 -10 -12 -10 -26z"/>
<path d="M10100 5975 c-15 -40 -13 -51 20 -87 17 -18 33 -43 37 -56 5 -22 30
-42 52 -42 6 0 19 10 30 22 20 21 21 21 40 3 30 -26 52 -13 45 27 -10 50 -29
61 -100 54 -84 -9 -94 -3 -94 49 0 52 -16 67 -30 30z"/>
<path d="M12120 5921 c0 -12 6 -21 16 -21 9 0 14 7 12 17 -5 25 -28 28 -28 4z"/>
<path d="M10382 5893 c-17 -7 -5 -23 18 -23 10 0 33 -12 50 -26 26 -22 42 -27
91 -28 40 -1 59 -5 59 -13 0 -21 48 -15 60 7 16 29 30 24 30 -10 0 -28 3 -30
32 -28 18 1 33 -3 36 -10 2 -7 20 -12 40 -12 35 1 36 2 18 15 -11 8 -27 15
-36 15 -19 0 -50 49 -50 79 0 14 -9 25 -26 31 -26 10 -298 13 -322 3z"/>
<path d="M10800 5890 c-11 -7 -8 -11 15 -20 15 -6 39 -22 52 -37 19 -20 30
-24 54 -19 33 6 73 -9 64 -25 -4 -5 -29 -9 -56 -9 -28 0 -60 -5 -72 -12 -21
-11 -21 -11 -2 -19 38 -15 101 -10 127 10 13 11 37 23 52 27 21 5 25 11 20 26
-10 34 29 17 41 -17 10 -32 22 -45 43 -45 18 0 15 21 -5 36 -16 12 -15 14 15
20 35 7 40 15 18 34 -8 6 -12 18 -9 27 3 8 0 19 -8 24 -19 12 -330 11 -349 -1z"/>
<path d="M11232 5891 c-11 -6 -10 -15 6 -42 l19 -34 70 3 c51 3 81 -1 105 -12
27 -13 41 -14 62 -6 35 13 76 13 76 0 0 -6 -7 -13 -15 -16 -8 -4 -15 -13 -15
-21 0 -11 7 -14 28 -10 15 3 42 1 59 -6 18 -6 35 -8 38 -5 12 12 -8 37 -33 40
-20 2 -26 8 -24 21 2 10 -2 25 -8 32 -7 8 -9 23 -6 33 5 15 1 21 -16 26 -35 9
-331 7 -346 -3z"/>
<path d="M11667 5894 c-22 -7 -12 -24 13 -24 11 0 35 -14 54 -31 28 -24 42
-29 72 -27 53 4 57 -20 4 -28 -30 -5 -40 -11 -38 -23 6 -25 77 -16 108 14 24
24 24 25 5 40 -19 14 -19 14 9 15 42 0 104 -31 108 -54 5 -30 88 -45 88 -16 0
4 -27 27 -60 51 -33 24 -60 51 -60 60 0 9 -6 19 -12 21 -19 6 -270 7 -291 2z"/>
<path d="M10105 5783 c-37 -6 -55 -21 -37 -32 13 -8 87 1 98 12 9 9 -5 27 -19
26 -7 -1 -25 -4 -42 -6z"/>
<path d="M10281 5781 c-22 -14 -5 -28 40 -34 73 -10 96 15 32 32 -46 13 -54
13 -72 2z"/>
<path d="M10503 5780 c-26 -11 -30 -28 -8 -36 21 -8 75 15 75 32 0 16 -33 17
-67 4z"/>
<path d="M11346 5774 c-36 -35 -3 -46 62 -19 29 13 34 18 22 25 -23 15 -67 12
-84 -6z"/>
<path d="M6575 5768 c-3 -7 -3 -168 0 -358 5 -438 5 -395 -1 -535 -7 -144 1
-226 21 -219 14 6 75 -22 75 -33 0 -4 -8 -24 -17 -45 -20 -43 -51 -48 -68 -10
-19 43 -41 26 -71 -53 -25 -67 -70 -152 -105 -196 -16 -20 -29 -41 -29 -45 0
-5 -14 -25 -31 -44 -43 -50 -149 -190 -149 -196 0 -3 -18 -26 -40 -52 -64 -72
-64 -118 1 -109 23 3 27 -2 37 -40 16 -57 14 -119 -3 -168 -19 -51 -19 -51 4
-31 15 14 20 38 26 129 7 101 10 116 36 155 33 50 34 52 14 52 -8 0 -15 -4
-15 -9 0 -5 -9 -11 -20 -14 -16 -4 -20 0 -20 19 0 38 23 73 88 138 56 54 63
58 94 52 29 -5 38 -2 62 23 l28 30 -21 34 c-26 42 -26 59 -3 80 23 21 46 22
62 2 7 -8 16 -15 21 -15 15 0 39 31 39 51 0 11 11 35 24 52 34 46 56 92 72
154 22 83 19 103 -12 103 -25 0 -26 3 -21 34 4 24 1 39 -9 47 -21 18 -18 91 6
122 23 29 26 47 6 47 -15 0 -14 -23 -18 461 -3 252 -1 279 15 296 22 25 22 39
-4 74 -21 30 -66 40 -74 17z"/>
<path d="M5461 5661 c-1 -7 -17 -29 -37 -47 -23 -22 -32 -38 -27 -46 13 -21
13 -201 0 -216 -8 -11 -6 -18 13 -33 33 -25 56 -24 64 4 8 32 5 298 -4 327 -4
14 -8 19 -9 11z"/>
<path d="M5900 5633 c-19 -3 -38 -10 -42 -16 -9 -14 -10 -302 -2 -334 5 -19
11 -12 38 45 29 61 31 74 29 156 -1 65 2 95 13 110 15 22 19 47 7 44 -5 0 -24
-3 -43 -5z"/>
<path d="M3969 5397 c-8 -7 -21 -45 -29 -86 -8 -44 -22 -83 -32 -93 -17 -17
-17 -21 -3 -48 9 -17 20 -30 26 -30 5 0 19 21 30 48 12 26 27 61 34 77 21 49
29 114 15 130 -15 18 -20 18 -41 2z"/>
<path d="M3792 5388 c-16 -16 -15 -47 3 -78 12 -23 11 -27 -8 -48 -22 -24 -49
-115 -40 -138 6 -17 42 -5 54 17 14 26 23 209 12 237 -7 18 -11 20 -21 10z"/>
<path d="M5432 5195 c-17 -37 -32 -57 -50 -64 -35 -13 -56 -31 -72 -60 -11
-21 -10 -26 4 -36 18 -14 142 -29 156 -20 11 7 13 176 4 213 -9 33 -17 27 -42
-33z"/>
<path d="M3300 5228 c0 -2 7 -37 14 -78 40 -215 47 -230 79 -180 21 33 20 62
-6 185 -11 49 -18 61 -38 66 -26 8 -49 11 -49 7z"/>
<path d="M4630 5184 c0 -9 5 -14 12 -12 18 6 21 28 4 28 -9 0 -16 -7 -16 -16z"/>
<path d="M6746 5193 c-9 -9 -7 -33 3 -33 12 0 22 28 12 34 -5 3 -11 3 -15 -1z"/>
<path d="M3838 5083 c-23 -4 -28 -9 -28 -33 0 -20 -6 -31 -20 -35 -20 -6 -27
-30 -12 -38 4 -3 21 -8 38 -11 28 -6 33 -4 53 30 12 20 25 50 28 66 6 30 4 31
-59 21z"/>
<path d="M2668 5023 c-24 -12 -28 -20 -28 -59 0 -38 4 -47 21 -51 20 -6 21
-11 16 -72 -5 -56 -2 -71 14 -91 10 -14 19 -29 19 -34 0 -5 15 -32 34 -60 30
-46 33 -57 29 -106 -4 -63 13 -94 60 -105 24 -6 27 -4 27 18 0 29 -22 85 -54
136 -13 20 -26 58 -29 85 -4 27 -11 54 -16 60 -5 6 -14 43 -20 81 -24 152 -33
200 -39 206 -4 3 -19 -1 -34 -8z"/>
<path d="M3655 4931 c-9 -30 -35 -34 -60 -11 -17 16 -25 18 -30 10 -5 -8 -23
-10 -57 -6 -28 4 -55 3 -61 -3 -7 -5 -23 -11 -36 -13 -56 -8 -52 -75 5 -71 75
4 282 14 304 14 14 1 37 -2 51 -6 22 -6 28 -2 38 23 7 16 11 43 9 58 l-4 29
-11 -26 c-6 -14 -26 -33 -44 -42 -30 -14 -35 -14 -51 0 -9 8 -18 24 -20 36 -4
27 -25 33 -33 8z"/>
<path d="M6717 4753 c-11 -10 -8 -43 3 -43 6 0 10 11 10 25 0 26 -2 29 -13 18z"/>
<path d="M2870 4398 c0 -38 12 -68 25 -68 22 0 84 -70 93 -103 5 -20 16 -33
28 -36 10 -2 28 -13 40 -25 12 -11 36 -32 54 -46 51 -38 55 -42 85 -82 15 -21
31 -38 35 -38 4 0 43 -35 86 -77 52 -51 89 -98 107 -134 31 -64 33 -88 11
-130 -11 -22 -12 -34 -5 -43 7 -8 11 -77 11 -182 0 -432 -3 -397 50 -449 29
-29 33 -30 50 -10 14 17 5 35 -19 35 -28 0 -46 51 -32 92 7 21 10 160 10 380
l0 346 -77 74 c-42 40 -120 116 -172 168 -53 52 -121 118 -150 146 -30 29 -77
78 -104 109 -44 52 -98 95 -118 95 -5 0 -8 -10 -8 -22z"/>
<path d="M6040 3825 c-20 -24 -14 -274 7 -297 12 -13 20 -15 35 -7 14 7 23 7
34 -1 11 -10 15 -9 21 5 4 12 0 23 -11 31 -13 9 -20 31 -23 78 -5 58 -4 64 13
63 23 -2 33 40 11 49 -8 3 -20 25 -27 50 -13 47 -36 58 -60 29z"/>
<path d="M3272 3420 c0 -19 2 -27 5 -17 2 9 2 25 0 35 -3 9 -5 1 -5 -18z"/>
<path d="M6037 3444 c-11 -11 -8 -283 3 -304 8 -16 19 -19 53 -16 23 2 43 4
45 5 1 1 -7 17 -17 36 -19 36 -19 108 0 130 14 14 11 37 -8 50 -9 7 -23 31
-32 55 -16 43 -31 57 -44 44z"/>
<path d="M3629 3018 c-28 -11 -24 -24 16 -48 41 -25 45 -46 10 -62 -18 -8 -28
-8 -39 1 -10 8 -16 9 -21 1 -12 -20 7 -30 59 -30 44 0 57 4 77 26 13 14 23 29
22 32 -5 13 53 22 100 16 28 -3 53 -2 60 5 14 11 75 10 94 -2 7 -4 22 -3 33 3
15 8 27 7 50 -5 42 -22 39 -43 -7 -47 -53 -4 -52 -32 0 -36 34 -3 43 2 83 42
71 73 124 70 124 -5 0 -30 17 -41 49 -32 27 7 27 16 -1 28 -29 13 -37 45 -11
45 25 0 68 -32 68 -50 0 -11 17 -17 70 -21 87 -8 135 8 135 44 0 19 7 27 27
32 30 7 146 -3 182 -17 29 -11 38 -4 21 17 -11 13 -10 19 4 34 16 17 16 19 -1
26 -35 13 -316 18 -348 5 l-30 -11 24 -18 c19 -15 22 -23 16 -49 -5 -26 -11
-32 -33 -32 -33 0 -45 8 -61 38 -10 18 -10 26 0 38 16 20 -2 33 -51 36 -93 5
-704 2 -721 -4z"/>
<path d="M4913 3023 c-20 -7 -15 -31 7 -38 15 -5 20 -15 20 -42 l0 -36 -42 6
c-27 4 -52 1 -67 -7 -36 -20 -13 -27 90 -29 85 -2 92 0 108 21 46 65 43 63 86
54 35 -7 40 -11 40 -37 1 -32 37 -57 57 -37 8 8 3 17 -17 35 -34 29 -26 52 14
42 14 -4 34 -14 44 -22 14 -13 22 -14 43 -5 33 16 21 34 -19 30 -32 -2 -34 2
-22 33 4 11 0 19 -12 24 -20 8 -311 16 -330 8z"/>
<path d="M5332 3019 c-31 -12 -24 -30 20 -52 l36 -18 -26 -26 c-21 -21 -35
-26 -72 -25 -60 2 -33 -13 39 -21 51 -6 68 -1 140 40 2 2 -2 9 -9 18 -23 28
32 39 138 27 60 -7 103 -7 119 -1 13 5 44 9 69 9 39 0 44 -2 44 -23 0 -17 -8
-25 -32 -32 -42 -13 -46 -32 -8 -40 38 -8 77 14 86 49 6 26 29 36 81 36 27 0
34 -4 39 -27 3 -16 7 -34 10 -40 4 -15 50 -17 59 -3 3 6 -3 10 -15 10 -21 0
-24 4 -34 51 -5 21 -2 28 14 32 11 3 20 12 20 21 0 13 -15 16 -92 17 -51 0
-208 2 -348 4 -147 2 -265 0 -278 -6z"/>
<path d="M4730 2911 c-15 -28 -13 -31 20 -31 33 0 36 6 16 33 -17 22 -23 22
-36 -2z"/>
<path d="M3507 2904 c-4 -4 -7 -11 -7 -16 0 -13 50 -6 53 7 2 12 -36 19 -46 9z"/>
<path d="M6183 2903 c-24 -9 -13 -24 15 -21 15 2 26 8 25 13 -2 12 -23 16 -40
8z"/>
<path d="M3815 2890 c3 -5 15 -10 26 -10 10 0 19 5 19 10 0 6 -12 10 -26 10
-14 0 -23 -4 -19 -10z"/>
<path d="M3945 2890 c-4 -6 5 -10 19 -10 14 0 26 5 26 10 0 6 -9 10 -19 10
-11 0 -23 -4 -26 -10z"/>
<path d="M5530 2890 c0 -5 6 -10 14 -10 8 0 18 5 21 10 3 6 -3 10 -14 10 -12
0 -21 -4 -21 -10z"/>
<path d="M5685 2890 c-3 -5 3 -10 14 -10 12 0 21 5 21 10 0 6 -6 10 -14 10 -8
0 -18 -4 -21 -10z"/>
</g>
</svg>
